<?xml version="1.0" encoding="UTF-8"?>
<svg version="1.1" xmlns="http://www.w3.org/2000/svg" width="1000" height="1000">
<path d="M0 0 C0.66095952 -0.00265183 1.32191904 -0.00530365 2.00290763 -0.00803584 C4.20930918 -0.01567223 6.41565456 -0.01628582 8.62206841 -0.01688576 C10.22339321 -0.02090409 11.824717 -0.02534293 13.42603958 -0.03016531 C17.82033765 -0.0420948 22.21462476 -0.04777079 26.60893583 -0.05234647 C31.35076264 -0.05831614 36.09257644 -0.06992234 40.83439445 -0.08063698 C52.28139172 -0.1051265 63.72839328 -0.11978139 75.17540866 -0.13269705 C78.40955067 -0.13641096 81.64369226 -0.14038401 84.87783384 -0.14444971 C104.97158092 -0.169684 125.06532871 -0.19173183 145.15908813 -0.20417786 C149.81023092 -0.20710742 154.46137368 -0.21006911 159.1125164 -0.21308327 C160.8464873 -0.21420234 160.8464873 -0.21420234 162.61548792 -0.21534403 C181.34306738 -0.22799865 200.07055193 -0.26122577 218.79808702 -0.3028851 C238.03457312 -0.34532523 257.27101065 -0.36887513 276.50754344 -0.37409842 C287.30445156 -0.37750973 298.10121122 -0.38923247 308.8980732 -0.42220116 C318.09241009 -0.45023107 327.28656805 -0.46118793 336.48094435 -0.4500057 C341.16921344 -0.44482701 345.85710799 -0.44765457 350.54532242 -0.47247124 C354.8438491 -0.49503462 359.14173372 -0.4941693 363.4402722 -0.47526737 C364.9887451 -0.47247729 366.53726221 -0.47801029 368.08566429 -0.4930803 C385.31658408 -0.65042264 399.68911354 5.49303752 412.59982109 16.88701439 C417.99540761 21.51067758 423.15037039 23.08186219 430.09982109 24.13701439 C430.16169609 23.18826439 430.22357109 22.23951439 430.28732109 21.26201439 C430.55544609 20.23076439 430.82357109 19.19951439 431.09982109 18.13701439 C435.03733937 15.86457651 437.5379201 16.10442054 441.83810234 17.25420189 C443.43815117 17.66992455 443.43815117 17.66992455 445.07052422 18.09404564 C446.17331718 18.39697533 447.27611015 18.69990501 448.41232109 19.01201439 C449.53445 19.3072097 450.6565789 19.60240501 451.81271172 19.90654564 C454.57903141 20.63638318 457.34076919 21.38024949 460.09982109 22.13701439 C460.55010674 20.96441063 460.55010674 20.96441063 461.00948906 19.7681179 C463.5918957 13.53645727 468.59977129 8.62180096 474.75997734 5.93779564 C489.15562417 1.01107176 504.50165267 -0.16467257 519.60325432 -0.1438694 C520.99628345 -0.14905466 522.38930965 -0.15508586 523.78233188 -0.1618762 C527.56375893 -0.17780999 531.34510966 -0.18158358 535.12656629 -0.18307114 C539.22274338 -0.18680833 543.31888248 -0.20191966 547.41503716 -0.21534157 C556.34661693 -0.24235341 565.27817858 -0.2545309 574.20979238 -0.26336288 C579.79425763 -0.2689093 585.37871609 -0.27738734 590.96317673 -0.28637123 C606.4502643 -0.31072727 621.93734648 -0.33133751 637.42445278 -0.33812141 C638.90725725 -0.33878011 638.90725725 -0.33878011 640.42001736 -0.33945212 C641.4107769 -0.33988867 642.40153644 -0.34032523 643.42231899 -0.34077501 C645.42964717 -0.34166192 647.43697534 -0.34255504 649.44430351 -0.34345436 C650.93782698 -0.34411865 650.93782698 -0.34411865 652.46152263 -0.34479636 C668.6078107 -0.35269861 684.75391863 -0.38763885 700.90013707 -0.43417341 C717.50960897 -0.4816542 734.11899047 -0.50652724 750.7285313 -0.50885725 C760.04147213 -0.51068679 769.35417749 -0.52209259 778.66705322 -0.55849648 C786.59236184 -0.5893701 794.51736204 -0.59949688 802.44271941 -0.58302027 C806.48114701 -0.57523463 810.51895411 -0.57692999 814.55730438 -0.60513496 C818.26296236 -0.63077882 821.96753891 -0.62807771 825.67319714 -0.60395354 C827.62960007 -0.5982446 829.58602317 -0.62178595 831.54227453 -0.64679766 C844.14374436 -0.50752766 856.09327576 4.05856051 865.09982109 13.13701439 C867.74060576 16.31345518 870.01812923 19.57044599 872.09982109 23.13701439 C872.50753242 23.71047096 872.91524376 24.28392754 873.33530998 24.87476158 C878.87186694 33.79526154 877.84252243 43.91446777 877.79903984 54.03545189 C877.80495788 56.07749915 877.81220841 58.11954295 877.82072258 60.16158104 C877.83256699 64.42994399 877.82595588 68.69778433 877.8066082 72.96611595 C877.78374615 78.40880889 877.81049157 83.84993792 877.85167027 89.29247665 C877.87737206 93.50673905 877.87463441 97.72063351 877.86377716 101.93494606 C877.8623004 103.94020697 877.86986434 105.9454975 877.88702774 107.9506855 C877.98801589 122.03468931 876.98155821 132.78945843 866.66232109 143.44951439 C865.88888359 144.26678001 865.11544609 145.08404564 864.31857109 145.92607689 C863.00615704 147.23386976 861.67839041 148.52702261 860.31857109 149.78545189 C856.20441807 153.60850917 853.30143811 157.74860324 850.28732109 162.44951439 C841.6690904 175.76085722 832.33495263 183.48402574 816.93575859 187.55888939 C810.65724078 188.83880762 804.48595924 189.28786836 798.08932304 189.2981472 C797.33184776 189.30311211 796.57437248 189.30807701 795.79394341 189.31319237 C793.30865343 189.32769101 790.82342753 189.33459972 788.33810234 189.34013939 C787.47801252 189.34296677 786.61792271 189.34579414 785.73176956 189.3487072 C781.16882209 189.36365927 776.60590584 189.37291056 772.04293633 189.37724876 C768.31236699 189.3816137 764.5820315 189.3954333 760.85153008 189.41826439 C725.2155332 189.63307449 725.2155332 189.63307449 710.99273491 186.98744774 C704.00182807 185.81213366 697.78153176 186.7299926 690.83849907 187.90181541 C678.51046338 189.90058147 666.113703 189.41965833 653.66232109 189.26201439 C649.95904338 189.22676117 646.2558011 189.19604787 642.55244255 189.17067528 C640.2729761 189.15389461 637.99354369 189.13092114 635.71421623 189.10066795 C630.38577585 189.05016487 625.34687947 189.18334211 620.09982109 190.13701439 C619.78528984 191.17599876 619.47075859 192.21498314 619.14669609 193.28545189 C614.18035447 209.54816929 609.00015951 224.37494112 596.09982109 236.13701439 C591.76444435 240.14599615 588.6770122 244.51992902 585.41232109 249.38701439 C572.7200138 267.7073374 557.47607019 273.23147246 536.09982109 277.13701439 C535.10982109 277.13701439 534.11982109 277.13701439 533.09982109 277.13701439 C532.67443047 278.22369408 532.67443047 278.22369408 532.24044609 279.33232689 C527.36254486 291.32661826 522.77824741 298.3231067 510.90450859 303.97295189 C507.20475116 305.50850581 504.06399526 306.26180277 500.06175041 306.26399803 C499.26728004 306.26681786 498.47280968 306.26963768 497.65426445 306.27254295 C496.35996513 306.26950661 496.35996513 306.26950661 495.03951836 306.26640892 C493.66545074 306.2690374 493.66545074 306.2690374 492.26362419 306.27171898 C489.23113935 306.27612394 486.19871279 306.27320205 483.16622734 306.26982689 C481.05074363 306.27050084 478.93525999 306.27147163 476.81977654 306.27272606 C472.37869342 306.27420163 467.93763039 306.2720549 463.49654961 306.26738548 C457.8346224 306.26171961 452.17274294 306.26494804 446.51081753 306.27095795 C442.13618939 306.27459419 437.76157231 306.27341044 433.38694382 306.27083015 C431.30158228 306.2701677 429.2162197 306.27096521 427.13085938 306.27330971 C407.1716182 306.29080809 407.1716182 306.29080809 397.75153923 305.25343895 C395.06865146 305.04023603 395.06865146 305.04023603 392.33758736 305.62053967 C389.04822492 306.14524479 385.97298537 306.27135042 382.6438427 306.28418541 C381.3641259 306.29134071 380.0844091 306.29849602 378.76591301 306.30586815 C377.36004472 306.3087079 375.95417617 306.31141969 374.54830742 306.31401634 C373.05789852 306.32028747 371.56749117 306.32693484 370.07708549 306.33392906 C365.19535203 306.35489405 360.31361851 306.36532413 355.43185234 306.37529564 C353.74624618 306.37934597 352.06064017 306.38346298 350.37503433 306.38764572 C342.45409504 306.40668051 334.53316497 306.42091531 326.61220723 306.42925769 C317.49083612 306.439025 308.36970799 306.46533843 299.24842244 306.50575858 C292.18321784 306.53598545 285.11808264 306.55073276 278.05281466 306.5540387 C273.83991193 306.55638158 269.62726929 306.56524229 265.41443634 306.59049988 C261.447387 306.6139013 257.48076682 306.61796587 253.51366615 306.60773849 C252.06535279 306.60724595 250.61701742 306.61348257 249.16876984 306.62729454 C238.02388043 306.727557 228.01526959 305.35428222 219.09982109 298.13701439 C212.97404217 291.86538359 209.78258404 284.8670807 209.37325859 276.08232689 C209.19778814 273.81435735 209.19778814 273.81435735 207.09982109 271.13701439 C206.91576658 268.47861664 206.84749201 265.92671478 206.87277031 263.26909447 C206.87247826 262.4688636 206.8721862 261.66863274 206.8718853 260.84415245 C206.87327904 258.19817335 206.88884225 255.55247557 206.90450859 252.90654564 C206.90823857 251.07237464 206.91108561 249.23820164 206.91308403 247.40402794 C206.92072171 242.57560796 206.94037137 237.74730823 206.96249199 232.91893578 C206.9829475 227.99229624 206.99208512 223.06563728 207.00216484 218.13896751 C207.02361712 208.47159696 207.05775472 198.80431567 207.09982109 189.13701439 C206.47366339 189.13885798 205.84750568 189.14070156 205.2023735 189.14260101 C189.9090631 189.18692696 174.61577264 189.21994201 159.3224144 189.24063873 C151.92641569 189.25091563 144.53046009 189.26490665 137.13448906 189.2878933 C130.6820412 189.30793778 124.22962459 189.32075683 117.77714646 189.32519138 C114.36617036 189.3277802 110.95528356 189.33378855 107.54433632 189.3484745 C103.72016798 189.36311568 99.89618117 189.36498707 96.07198906 189.36406517 C94.96283134 189.37125572 93.85367363 189.37844627 92.71090508 189.38585472 C79.67229481 189.35211916 63.80520849 188.75125338 53.78732109 179.26201439 C51.23617212 176.82631475 51.23617212 176.82631475 47.78732109 176.94951439 C43.68194346 178.27158515 40.84085358 180.18267671 37.34200859 182.64482689 C26.39759672 189.92839019 11.99806792 189.51722052 -0.65017891 189.44951439 C-1.3553968 189.44769157 -2.0606147 189.44586876 -2.78720284 189.44399071 C-33.79076442 189.30892482 -33.79076442 189.30892482 -45.17752266 179.09404564 C-55.16328091 168.60267937 -55.05128115 157.09100239 -55.04544258 143.27422142 C-55.04880119 142.12014793 -55.05215981 140.96607445 -55.05562019 139.77702904 C-55.06507616 135.98295054 -55.0670705 132.18891642 -55.06814766 128.39482689 C-55.07054987 126.41443016 -55.07295406 124.43403342 -55.07560807 122.453637 C-55.08372367 116.23334678 -55.08619492 110.01307102 -55.08548164 103.79277611 C-55.08488114 97.40292108 -55.09543423 91.01315054 -55.11122531 84.62331688 C-55.12435325 79.11217708 -55.12966337 73.60106473 -55.12902623 68.08990943 C-55.12877284 64.80939452 -55.13247429 61.52897118 -55.14220428 58.2484684 C-55.15205417 54.58510728 -55.14910649 50.92196136 -55.14309883 47.25859642 C-55.14871834 46.19019524 -55.15433784 45.12179405 -55.16012764 44.02101707 C-55.11322686 32.70740113 -53.92105254 21.27912214 -46.36892891 12.32060814 C-37.57212321 4.04248202 -25.34042155 2.83200644 -13.90017891 1.13701439 C-12.8421916 0.96812812 -11.78420429 0.79924186 -10.69415677 0.62523782 C-7.07819005 0.15992154 -3.642982 0.00724454 0 0 Z " fill="#000000" transform="translate(88.90017890930176,346.8629856109619)"/>
<path d="M0 0 C6.45846531 0.56244893 12.35063262 1.73728465 18.5625 3.5625 C19.38041016 3.79646484 20.19832031 4.03042969 21.04101562 4.27148438 C23.02920527 4.84119954 25.01488299 5.41966914 27 6 C26.34 9.3 25.68 12.6 25 16 C27.64 16.33 30.28 16.66 33 17 C32.67 20.3 32.34 23.6 32 27 C34.64 27.33 37.28 27.66 40 28 C39.67 31.3 39.34 34.6 39 38 C41.31 38.66 43.62 39.32 46 40 C46 42.97 46 45.94 46 49 C48.31 49.33 50.62 49.66 53 50 C52.56901343 58.96452064 50.30110566 67.37352947 48 76 C43.97128525 77.03595522 42.34944269 76.86988854 38 76 C36.68 81.61 35.36 87.22 34 93 C30.7 92.67 27.4 92.34 24 92 C23.67 94.64 23.34 97.28 23 100 C20.39533418 99.52342708 17.79128286 99.04385281 15.1875 98.5625 C14.08051758 98.36043945 14.08051758 98.36043945 12.95117188 98.15429688 C9.88684924 97.58580263 6.96071047 96.98690349 4 96 C3.67 98.64 3.34 101.28 3 104 C-3.20213847 103.37547911 -8.99429414 102.0842258 -15 100.4375 C-16.30517578 100.08655273 -16.30517578 100.08655273 -17.63671875 99.72851562 C-19.75910017 99.15710524 -21.87973791 98.57922482 -24 98 C-23.67 94.7 -23.34 91.4 -23 88 C-24.98 87.814375 -24.98 87.814375 -27 87.625 C-31.47792832 87.13533747 -35.65743306 86.18433644 -40 85 C-39.34 81.7 -38.68 78.4 -38 75 C-41.96 74.505 -41.96 74.505 -46 74 C-45.54240047 67.4491015 -44.7899856 61.3246158 -43 55 C-46.96 54.505 -46.96 54.505 -51 54 C-50.43755107 47.54153469 -49.26271535 41.64936738 -47.4375 35.4375 C-47.20353516 34.61958984 -46.96957031 33.80167969 -46.72851562 32.95898438 C-46.15880046 30.97079473 -45.58033086 28.98511701 -45 27 C-41.7 27.33 -38.4 27.66 -35 28 C-34.80083984 26.66195313 -34.80083984 26.66195313 -34.59765625 25.296875 C-34.42105469 24.12640625 -34.24445313 22.9559375 -34.0625 21.75 C-33.80146484 20.00976562 -33.80146484 20.00976562 -33.53515625 18.234375 C-33 15 -33 15 -32 11 C-28.7 11 -25.4 11 -22 11 C-21.34 8.69 -20.68 6.38 -20 4 C-18.95199219 4.2165625 -17.90398437 4.433125 -16.82421875 4.65625 C-15.44534373 4.93765307 -14.06643574 5.21889464 -12.6875 5.5 C-11.99720703 5.64308594 -11.30691406 5.78617187 -10.59570312 5.93359375 C-7.67475227 6.52625044 -4.98891878 7 -2 7 C-1.34 4.69 -0.68 2.38 0 0 Z " fill="#70AA4A" transform="translate(520,375)"/>
<path d="M0 0 C24.42 0 48.84 0 74 0 C74 2.64 74 5.28 74 8 C76.97 8 79.94 8 83 8 C83 10.64 83 13.28 83 16 C85.64 16 88.28 16 91 16 C91 32.5 91 49 91 66 C88.36 66 85.72 66 83 66 C83 68.64 83 71.28 83 74 C80.03 74 77.06 74 74 74 C74 76.97 74 79.94 74 83 C49.58 83 25.16 83 0 83 C0 55.61 0 28.22 0 0 Z " fill="#A04EC1" transform="translate(368,377)"/>
<path d="M0 0 C10.89 0 21.78 0 33 0 C33 2.64 33 5.28 33 8 C35.64 8 38.28 8 41 8 C41 10.64 41 13.28 41 16 C43.97 16 46.94 16 50 16 C50 18.64 50 21.28 50 24 C52.64 24 55.28 24 58 24 C58 21.36 58 18.72 58 16 C60.64 16 63.28 16 66 16 C66 13.36 66 10.72 66 8 C68.64 8 71.28 8 74 8 C74 5.36 74 2.72 74 0 C84.89 0 95.78 0 107 0 C107 27.06 107 54.12 107 82 C96.11 82 85.22 82 74 82 C74 68.47 74 54.94 74 41 C71.36 41 68.72 41 66 41 C66 43.64 66 46.28 66 49 C63.36 49 60.72 49 58 49 C58 51.97 58 54.94 58 58 C55.03 58 52.06 58 49 58 C49 55.03 49 52.06 49 49 C46.36 49 43.72 49 41 49 C41 46.36 41 43.72 41 41 C38.36 41 35.72 41 33 41 C33 54.53 33 68.06 33 82 C22.11 82 11.22 82 0 82 C0 54.94 0 27.88 0 0 Z " fill="#A350C5" transform="translate(434,496)"/>
<path d="M0 0 C24.75 0 49.5 0 75 0 C75 2.64 75 5.28 75 8 C77.64 8 80.28 8 83 8 C83 32.75 83 57.5 83 83 C72.11 83 61.22 83 50 83 C50 72.11 50 61.22 50 50 C41.75 50 33.5 50 25 50 C25 60.89 25 71.78 25 83 C14.11 83 3.22 83 -8 83 C-8 58.25 -8 33.5 -8 8 C-5.36 8 -2.72 8 0 8 C0 5.36 0 2.72 0 0 Z " fill="#A753C9" transform="translate(178,377)"/>
<path d="M0 0 C27.39 0 54.78 0 83 0 C83 2.64 83 5.28 83 8 C85.64 8 88.28 8 91 8 C91 16.25 91 24.5 91 33 C88.36 33 85.72 33 83 33 C83 38.28 83 43.56 83 49 C85.64 49 88.28 49 91 49 C91 60.22 91 71.44 91 83 C80.11 83 69.22 83 58 83 C58 72.11 58 61.22 58 50 C50.08 50 42.16 50 34 50 C34 60.89 34 71.78 34 83 C22.78 83 11.56 83 0 83 C0 55.61 0 28.22 0 0 Z " fill="#B158D5" transform="translate(582,377)"/>
<path d="M0 0 C24.42 0 48.84 0 74 0 C74 2.64 74 5.28 74 8 C76.64 8 79.28 8 82 8 C82 32.75 82 57.5 82 83 C71.11 83 60.22 83 49 83 C49 72.11 49 61.22 49 50 C40.75 50 32.5 50 24 50 C24 60.56 24 71.12 24 82 C13.44 82 2.88 82 -8 82 C-8 57.91 -8 33.82 -8 9 C-5.36 9 -2.72 9 0 9 C0 6.03 0 3.06 0 0 Z " fill="#A352C4" transform="translate(690,377)"/>
<path d="M0 0 C10.89 0 21.78 0 33 0 C33 2.64 33 5.28 33 8 C35.64 8 38.28 8 41 8 C41 10.97 41 13.94 41 17 C43.64 17 46.28 17 49 17 C49 19.64 49 22.28 49 25 C51.97 25 54.94 25 58 25 C58 16.75 58 8.5 58 0 C68.89 0 79.78 0 91 0 C91 27.39 91 54.78 91 83 C80.11 83 69.22 83 58 83 C58 74.75 58 66.5 58 58 C55.03 58 52.06 58 49 58 C49 55.36 49 52.72 49 50 C46.36 50 43.72 50 41 50 C41 47.03 41 44.06 41 41 C38.36 41 35.72 41 33 41 C33 54.86 33 68.72 33 83 C22.11 83 11.22 83 0 83 C0 55.61 0 28.22 0 0 Z " fill="#9F4CC1" transform="translate(269,377)"/>
<path d="M0 0 C27.39 0 54.78 0 83 0 C83 2.64 83 5.28 83 8 C85.64 8 88.28 8 91 8 C91 19.22 91 30.44 91 42 C88.36 42 85.72 42 83 42 C83 44.64 83 47.28 83 50 C66.5 50 50 50 33 50 C33 60.89 33 71.78 33 83 C22.11 83 11.22 83 0 83 C0 55.61 0 28.22 0 0 Z " fill="#B25AD6" transform="translate(71,377)"/>
<path d="M0 0 C27.06 0 54.12 0 82 0 C82 2.64 82 5.28 82 8 C84.64 8 87.28 8 90 8 C90 18.89 90 29.78 90 41 C87.36 41 84.72 41 82 41 C82 43.64 82 46.28 82 49 C65.83 49 49.66 49 33 49 C33 59.89 33 70.78 33 82 C22.11 82 11.22 82 0 82 C0 54.94 0 27.88 0 0 Z " fill="#9C4DBC" transform="translate(550,496)"/>
<path d="M0 0 C27.06 0 54.12 0 82 0 C82 5.61 82 11.22 82 17 C63.19 17 44.38 17 25 17 C25 22.28 25 27.56 25 33 C41.17 33 57.34 33 74 33 C74 35.64 74 38.28 74 41 C76.64 41 79.28 41 82 41 C82 51.89 82 62.78 82 74 C79.36 74 76.72 74 74 74 C74 76.64 74 79.28 74 82 C46.94 82 19.88 82 -8 82 C-8 76.72 -8 71.44 -8 66 C10.81 66 29.62 66 49 66 C49 60.39 49 54.78 49 49 C32.83 49 16.66 49 0 49 C0 46.36 0 43.72 0 41 C-2.64 41 -5.28 41 -8 41 C-8 30.44 -8 19.88 -8 9 C-5.36 9 -2.72 9 0 9 C0 6.03 0 3.06 0 0 Z " fill="#AE54D2" transform="translate(822,377)"/>
<path d="M0 0 C27.39 0 54.78 0 83 0 C83 5.28 83 10.56 83 16 C63.86 16 44.72 16 25 16 C25 21.61 25 27.22 25 33 C41.17 33 57.34 33 74 33 C73.67 35.64 73.34 38.28 73 41 C76.3 41 79.6 41 83 41 C83 51.89 83 62.78 83 74 C80.03 74 77.06 74 74 74 C74 76.64 74 79.28 74 82 C46.94 82 19.88 82 -8 82 C-8 76.72 -8 71.44 -8 66 C11.14 66 30.28 66 50 66 C50 60.39 50 54.78 50 49 C33.5 49 17 49 0 49 C0 46.36 0 43.72 0 41 C-2.64 41 -5.28 41 -8 41 C-8 30.11 -8 19.22 -8 8 C-5.36 8 -2.72 8 0 8 C0 5.36 0 2.72 0 0 Z " fill="#B157D6" transform="translate(343,496)"/>
<path d="M0 0 C2.97 0 5.94 0 9 0 C9 0.33 9 0.66 9 1 C6.36 1 3.72 1 1 1 C1 11.56 1 22.12 1 33 C3.64 33 6.28 33 9 33 C9 35.64 9 38.28 9 41 C25.17 41 41.34 41 58 41 C58 46.61 58 52.22 58 58 C39.19 58 20.38 58 1 58 C1 63.28 1 68.56 1 74 C28.06 74 55.12 74 83 74 C83 71.36 83 68.72 83 66 C85.64 66 88.28 66 91 66 C91 75.24 91 84.48 91 94 C88.36 94 85.72 94 83 94 C83 96.97 83 99.94 83 103 C55.61 103 28.22 103 0 103 C0 69.01 0 35.02 0 0 Z " fill="#2C1934" transform="translate(813,385)"/>
<path d="M0 0 C1.57361431 0.3568332 3.14386858 0.72872057 4.7109375 1.11328125 C5.51966309 1.30245117 6.32838867 1.49162109 7.16162109 1.68652344 C12.58273761 2.98147695 17.85564815 4.48863705 23.0859375 6.42578125 C22.7559375 9.72578125 22.4259375 13.02578125 22.0859375 16.42578125 C27.3659375 18.07578125 32.6459375 19.72578125 38.0859375 21.42578125 C38.0859375 24.39578125 38.0859375 27.36578125 38.0859375 30.42578125 C40.3959375 31.08578125 42.7059375 31.74578125 45.0859375 32.42578125 C44.0959375 37.37578125 44.0959375 37.37578125 43.0859375 42.42578125 C44.7359375 42.75578125 46.3859375 43.08578125 48.0859375 43.42578125 C49.5709375 43.92078125 49.5709375 43.92078125 51.0859375 44.42578125 C50.0471283 50.53707365 48.92863472 56.50282589 47.0859375 62.42578125 C48.0346875 62.57015625 48.9834375 62.71453125 49.9609375 62.86328125 C53.0859375 63.42578125 53.0859375 63.42578125 55.0859375 64.42578125 C54.52348857 70.88424656 53.34865285 76.77641387 51.5234375 82.98828125 C51.28947266 83.80619141 51.05550781 84.62410156 50.81445312 85.46679688 C50.24473796 87.45498652 49.66626836 89.44066424 49.0859375 91.42578125 C46.1159375 91.09578125 43.1459375 90.76578125 40.0859375 90.42578125 C39.9003125 91.60140625 39.9003125 91.60140625 39.7109375 92.80078125 C38.92467326 97.36111385 38.00893334 101.89145218 37.0859375 106.42578125 C33.70276263 107.40169708 31.5202037 107.2843478 28.0859375 106.42578125 C27.0959375 109.06578125 26.1059375 111.70578125 25.0859375 114.42578125 C22.1159375 113.76578125 19.1459375 113.10578125 16.0859375 112.42578125 C15.4259375 115.06578125 14.7659375 117.70578125 14.0859375 120.42578125 C8.07266999 119.84663458 2.07701028 119.2024018 -3.9140625 118.42578125 C-4.5740625 120.40578125 -5.2340625 122.38578125 -5.9140625 124.42578125 C-15.48106306 123.80855541 -24.60654207 121.60564715 -33.9140625 119.42578125 C-33.5840625 116.12578125 -33.2540625 112.82578125 -32.9140625 109.42578125 C-34.4403125 109.13703125 -35.9665625 108.84828125 -37.5390625 108.55078125 C-41.4511747 107.77280439 -45.16356705 106.80754273 -48.9140625 105.42578125 C-48.5840625 102.12578125 -48.2540625 98.82578125 -47.9140625 95.42578125 C-50.5540625 95.09578125 -53.1940625 94.76578125 -55.9140625 94.42578125 C-55.45583782 90.95636579 -55.02274567 87.75183076 -53.9140625 84.42578125 C-54.8628125 84.28140625 -55.8115625 84.13703125 -56.7890625 83.98828125 C-59.9140625 83.42578125 -59.9140625 83.42578125 -61.9140625 82.42578125 C-61.3276307 76.26824735 -60.34677032 70.4431541 -58.9140625 64.42578125 C-61.5540625 63.76578125 -64.1940625 63.10578125 -66.9140625 62.42578125 C-65.44221136 53.28481099 -63.22866714 44.38082929 -60.9140625 35.42578125 C-57.44464704 35.88400593 -54.24011201 36.31709808 -50.9140625 37.42578125 C-50.7903125 36.12640625 -50.6665625 34.82703125 -50.5390625 33.48828125 C-50.01414002 28.69551075 -49.03027939 24.11389221 -47.9140625 19.42578125 C-44.6140625 20.08578125 -41.3140625 20.74578125 -37.9140625 21.42578125 C-37.5840625 18.78578125 -37.2540625 16.14578125 -36.9140625 13.42578125 C-32.97735762 12.11354629 -30.78918106 13.18281869 -26.9140625 14.42578125 C-26.7696875 13.14703125 -26.6253125 11.86828125 -26.4765625 10.55078125 C-26.20763504 8.16885231 -25.99179904 6.58125434 -24.9140625 4.42578125 C-19.0612675 4.94061044 -13.5842988 5.87935317 -7.9140625 7.42578125 C-7.8109375 6.47703125 -7.7078125 5.52828125 -7.6015625 4.55078125 C-6.51567846 -0.38505528 -4.82596932 -0.70800149 0 0 Z M-6.9140625 11.42578125 C-7.5740625 13.73578125 -8.2340625 16.04578125 -8.9140625 18.42578125 C-9.98333984 18.22662109 -9.98333984 18.22662109 -11.07421875 18.0234375 C-16.34417205 17.05172337 -21.602153 16.13403585 -26.9140625 15.42578125 C-27.5740625 17.73578125 -28.2340625 20.04578125 -28.9140625 22.42578125 C-32.2140625 22.42578125 -35.5140625 22.42578125 -38.9140625 22.42578125 C-39.41784018 24.6957795 -39.91696269 26.96681128 -40.4140625 29.23828125 C-40.6925 30.50285156 -40.9709375 31.76742187 -41.2578125 33.0703125 C-42.01003242 36.34664459 -42.01003242 36.34664459 -41.9140625 39.42578125 C-45.2140625 39.09578125 -48.5140625 38.76578125 -51.9140625 38.42578125 C-52.73557987 41.2359163 -53.54637812 44.04846311 -54.3515625 46.86328125 C-54.58166016 47.64638672 -54.81175781 48.42949219 -55.04882812 49.23632812 C-56.58453174 54.64467564 -57.42615362 59.82324135 -57.9140625 65.42578125 C-55.2740625 65.75578125 -52.6340625 66.08578125 -49.9140625 66.42578125 C-50.130625 67.37839844 -50.3471875 68.33101562 -50.5703125 69.3125 C-50.84875 70.56675781 -51.1271875 71.82101562 -51.4140625 73.11328125 C-51.6925 74.35464844 -51.9709375 75.59601563 -52.2578125 76.875 C-52.80760376 79.84976343 -53.05201955 82.41946727 -52.9140625 85.42578125 C-50.2740625 85.75578125 -47.6340625 86.08578125 -44.9140625 86.42578125 C-45.9040625 91.37578125 -45.9040625 91.37578125 -46.9140625 96.42578125 C-44.83204722 96.93124161 -42.74839183 97.4299496 -40.6640625 97.92578125 C-39.50390625 98.20421875 -38.34375 98.48265625 -37.1484375 98.76953125 C-33.81075538 99.55834577 -33.81075538 99.55834577 -29.9140625 99.42578125 C-30.2440625 102.72578125 -30.5740625 106.02578125 -30.9140625 109.42578125 C-27.1661704 110.43379801 -23.41543283 111.43079414 -19.6640625 112.42578125 C-18.60058594 112.71195312 -17.53710938 112.998125 -16.44140625 113.29296875 C-15.41660156 113.56367188 -14.39179687 113.834375 -13.3359375 114.11328125 C-12.39331055 114.36464844 -11.45068359 114.61601562 -10.47949219 114.875 C-7.69956344 115.56572147 -7.69956344 115.56572147 -3.9140625 115.42578125 C-3.5840625 112.78578125 -3.2540625 110.14578125 -2.9140625 107.42578125 C-1.71007812 107.71453125 -0.50609375 108.00328125 0.734375 108.30078125 C2.3098679 108.67589861 3.88539026 109.0508922 5.4609375 109.42578125 C6.255 109.6165625 7.0490625 109.80734375 7.8671875 110.00390625 C9.00800781 110.27460938 9.00800781 110.27460938 10.171875 110.55078125 C10.8736084 110.71835937 11.5753418 110.8859375 12.29833984 111.05859375 C14.10830043 111.49285041 14.10830043 111.49285041 16.0859375 111.42578125 C16.4159375 108.78578125 16.7459375 106.14578125 17.0859375 103.42578125 C20.3859375 103.75578125 23.6859375 104.08578125 27.0859375 104.42578125 C28.4059375 98.81578125 29.7259375 93.20578125 31.0859375 87.42578125 C34.0559375 87.75578125 37.0259375 88.08578125 40.0859375 88.42578125 C44.79060388 75.23749075 44.79060388 75.23749075 46.0859375 61.42578125 C43.7759375 61.09578125 41.4659375 60.76578125 39.0859375 60.42578125 C39.0859375 57.45578125 39.0859375 54.48578125 39.0859375 51.42578125 C36.7759375 50.76578125 34.4659375 50.10578125 32.0859375 49.42578125 C32.5809375 44.47578125 32.5809375 44.47578125 33.0859375 39.42578125 C30.4459375 39.09578125 27.8059375 38.76578125 25.0859375 38.42578125 C25.4159375 35.12578125 25.7459375 31.82578125 26.0859375 28.42578125 C23.4459375 28.09578125 20.8059375 27.76578125 18.0859375 27.42578125 C18.7459375 24.12578125 19.4059375 20.82578125 20.0859375 17.42578125 C16.52548897 16.41793735 12.9628935 15.41926428 9.3984375 14.42578125 C8.39103516 14.13960938 7.38363281 13.8534375 6.34570312 13.55859375 C5.36923828 13.28789062 4.39277344 13.0171875 3.38671875 12.73828125 C2.49122314 12.48691406 1.59572754 12.23554688 0.6730957 11.9765625 C-1.93595628 11.42112027 -4.25534092 11.32521495 -6.9140625 11.42578125 Z " fill="#102B30" transform="translate(526.9140625,363.57421875)"/>
<path d="M0 0 C2.64 0 5.28 0 8 0 C8 9.24 8 18.48 8 28 C5.36 28 2.72 28 0 28 C0 30.97 0 33.94 0 37 C-2.64 37 -5.28 37 -8 37 C-8 39.64 -8 42.28 -8 45 C-32.75 45 -57.5 45 -83 45 C-83 35.76 -83 26.52 -83 17 C-58.58 17 -34.16 17 -9 17 C-9 14.03 -9 11.06 -9 8 C-6.03 8 -3.06 8 0 8 C0 5.36 0 2.72 0 0 Z " fill="#2A1831" transform="translate(451,443)"/>
<path d="M0 0 C2.97 0 5.94 0 9 0 C9 9.24 9 18.48 9 28 C6.03 28 3.06 28 0 28 C0 30.64 0 33.28 0 36 C-27.06 36 -54.12 36 -82 36 C-82 26.76 -82 17.52 -82 8 C-54.94 8 -27.88 8 0 8 C0 5.36 0 2.72 0 0 Z " fill="#2E1A36" transform="translate(417,570)"/>
<path d="M0 0 C6.45846531 0.56244893 12.35063262 1.73728465 18.5625 3.5625 C19.38041016 3.79646484 20.19832031 4.03042969 21.04101562 4.27148438 C23.02920527 4.84119954 25.01488299 5.41966914 27 6 C26.34 9.3 25.68 12.6 25 16 C27.64 16.33 30.28 16.66 33 17 C32.67 20.3 32.34 23.6 32 27 C34.64 27.33 37.28 27.66 40 28 C39.67 31.3 39.34 34.6 39 38 C41.31 38.66 43.62 39.32 46 40 C45.56901343 48.96452064 43.30110566 57.37352947 41 66 C38.03 65.67 35.06 65.34 32 65 C32.53951066 58.31006781 33.88706171 52.36539272 36 46 C33.03 45.34 30.06 44.68 27 44 C27.66 41.03 28.32 38.06 29 35 C26.36 34.34 23.72 33.68 21 33 C21 30.03 21 27.06 21 24 C18.36 23.34 15.72 22.68 13 22 C12.67 24.64 12.34 27.28 12 30 C5.375 30.125 5.375 30.125 2 29 C1.34 31.64 0.68 34.28 0 37 C-2.97 37 -5.94 37 -9 37 C-10.32 42.28 -11.64 47.56 -13 53 C-15.97 52.34 -18.94 51.68 -22 51 C-21.125 44.25 -21.125 44.25 -20 42 C-21.670625 41.814375 -21.670625 41.814375 -23.375 41.625 C-27 41 -27 41 -29 39 C-31.20250992 38.53993654 -31.20250992 38.53993654 -33.625 38.375 C-35.8125 38.1875 -35.8125 38.1875 -38 38 C-36 29 -34 20 -32 11 C-28.7 11 -25.4 11 -22 11 C-21.34 8.69 -20.68 6.38 -20 4 C-18.42798828 4.32484375 -18.42798828 4.32484375 -16.82421875 4.65625 C-15.44534373 4.93765307 -14.06643574 5.21889464 -12.6875 5.5 C-11.99720703 5.64308594 -11.30691406 5.78617187 -10.59570312 5.93359375 C-7.67475227 6.52625044 -4.98891878 7 -2 7 C-1.34 4.69 -0.68 2.38 0 0 Z " fill="#649A7C" transform="translate(520,375)"/>
<path d="M0 0 C3.3 0.33 6.6 0.66 10 1 C9.79503906 1.70125 9.59007812 2.4025 9.37890625 3.125 C7.77632603 8.76853609 6.55105987 14.15876543 6 20 C8.64 20.33 11.28 20.66 14 21 C13.34 24.3 12.68 27.6 12 31 C13.423125 31.2165625 13.423125 31.2165625 14.875 31.4375 C18 32 18 32 20 33 C19.67 35.97 19.34 38.94 19 42 C22.465 42.495 22.465 42.495 26 43 C27.46726798 46.81489674 26.43336419 49.29011622 25 53 C25.52464844 53.09796875 26.04929687 53.1959375 26.58984375 53.296875 C35.11899555 54.94310064 43.55311913 56.98137186 52 59 C52.144375 58.05125 52.28875 57.1025 52.4375 56.125 C53 53 53 53 54 51 C56.97 51 59.94 51 63 51 C63.66 48.69 64.32 46.38 65 44 C71.40593286 45.10690752 77.71363856 46.33945169 84 48 C84.11214844 46.73285156 84.22429687 45.46570313 84.33984375 44.16015625 C84.93716805 38.78423753 86.19406382 33.66208968 87.5625 28.4375 C87.91344727 27.06754883 87.91344727 27.06754883 88.27148438 25.66992188 C88.84223625 23.44515436 89.41847478 21.22197103 90 19 C90.495 20.485 90.495 20.485 91 22 C93.31 22.33 95.62 22.66 98 23 C97.56901343 31.96452064 95.30110566 40.37352947 93 49 C88.97128525 50.03595522 87.34944269 49.86988854 83 49 C81.68 54.61 80.36 60.22 79 66 C75.7 65.67 72.4 65.34 69 65 C68.67 67.64 68.34 70.28 68 73 C65.39533418 72.52342708 62.79128286 72.04385281 60.1875 71.5625 C59.08051758 71.36043945 59.08051758 71.36043945 57.95117188 71.15429688 C54.88684924 70.58580263 51.96071047 69.98690349 49 69 C48.67 71.64 48.34 74.28 48 77 C41.79786153 76.37547911 36.00570586 75.0842258 30 73.4375 C28.69482422 73.08655273 28.69482422 73.08655273 27.36328125 72.72851562 C25.24089983 72.15710524 23.12026209 71.57922482 21 71 C21.33 67.7 21.66 64.4 22 61 C20.02 60.814375 20.02 60.814375 18 60.625 C13.52207168 60.13533747 9.34256694 59.18433644 5 58 C5.66 54.7 6.32 51.4 7 48 C3.04 47.505 3.04 47.505 -1 47 C-0.54240047 40.4491015 0.2100144 34.3246158 2 28 C-0.64 27.67 -3.28 27.34 -6 27 C-5.43755107 20.54153469 -4.26271535 14.64936738 -2.4375 8.4375 C-2.20353516 7.61958984 -1.96957031 6.80167969 -1.72851562 5.95898438 C-1.15880046 3.97079473 -0.58033086 1.98511701 0 0 Z " fill="#4D8284" transform="translate(475,402)"/>
<path d="M0 0 C2.97 0 5.94 0 9 0 C9 0.33 9 0.66 9 1 C6.36 1 3.72 1 1 1 C1 25.09 1 49.18 1 74 C11.56 74 22.12 74 33 74 C33 63.44 33 52.88 33 42 C41.25 42 49.5 42 58 42 C58 51.24 58 60.48 58 70 C50.08 70 42.16 70 34 70 C34 80.89 34 91.78 34 103 C22.78 103 11.56 103 0 103 C0 69.01 0 35.02 0 0 Z " fill="#35243C" transform="translate(681,385)"/>
<path d="M0 0 C2.64 0 5.28 0 8 0 C8 2.97 8 5.94 8 9 C10.64 9 13.28 9 16 9 C16 11.64 16 14.28 16 17 C18.97 17 21.94 17 25 17 C25 25.25 25 33.5 25 42 C35.89 42 46.78 42 58 42 C58 51.24 58 60.48 58 70 C47.11 70 36.22 70 25 70 C25 61.75 25 53.5 25 45 C22.03 45 19.06 45 16 45 C16 42.36 16 39.72 16 37 C13.36 37 10.72 37 8 37 C8 34.03 8 31.06 8 28 C5.36 28 2.72 28 0 28 C0 18.76 0 9.52 0 0 Z " fill="#291531" transform="translate(302,418)"/>
<path d="M0 0 C2.64 0 5.28 0 8 0 C8 8.91 8 17.82 8 27 C5.36 27 2.72 27 0 27 C0 29.97 0 32.94 0 36 C-16.5 36 -33 36 -50 36 C-50 26.76 -50 17.52 -50 8 C-33.5 8 -17 8 0 8 C0 5.36 0 2.72 0 0 Z " fill="#200F28" transform="translate(154,419)"/>
<path d="M0 0 C2.64 0 5.28 0 8 0 C8 9.24 8 18.48 8 28 C5.36 28 2.72 28 0 28 C0 30.64 0 33.28 0 36 C-16.17 36 -32.34 36 -49 36 C-49 26.76 -49 17.52 -49 8 C-32.83 8 -16.66 8 0 8 C0 5.36 0 2.72 0 0 Z " fill="#221029" transform="translate(632,537)"/>
<path d="M0 0 C8.58 0 17.16 0 26 0 C26.02290513 6.24801086 26.04283339 12.49587715 26.05493164 18.74389648 C26.05997298 20.87118014 26.06680591 22.99846031 26.07543945 25.12573242 C26.08751379 28.17627826 26.09323014 31.22677845 26.09765625 34.27734375 C26.10281754 35.23462875 26.10797882 36.19191376 26.11329651 37.1782074 C26.11340981 38.49946373 26.11340981 38.49946373 26.11352539 39.84741211 C26.115746 40.62684677 26.11796661 41.40628143 26.12025452 42.20933533 C26 44 26 44 25 45 C23.14630389 45.08737645 21.28932459 45.10698153 19.43359375 45.09765625 C18.42095459 45.09515869 17.40831543 45.09266113 16.36499023 45.09008789 C15.06891846 45.08098389 13.77284668 45.07187988 12.4375 45.0625 C8.333125 45.041875 4.22875 45.02125 0 45 C0 30.15 0 15.3 0 0 Z " fill="#201126" transform="translate(780,377)"/>
<path d="M0 0 C2.64 0 5.28 0 8 0 C8 2.64 8 5.28 8 8 C10.64 8 13.28 8 16 8 C16 10.97 16 13.94 16 17 C18.97 17 21.94 17 25 17 C25 14.03 25 11.06 25 8 C27.64 8 30.28 8 33 8 C33 5.36 33 2.72 33 0 C35.64 0 38.28 0 41 0 C41 9.24 41 18.48 41 28 C38.36 28 35.72 28 33 28 C33 30.64 33 33.28 33 36 C30.36 36 27.72 36 25 36 C25 38.97 25 41.94 25 45 C18.84765625 45.09765625 18.84765625 45.09765625 17 45 C16 44 16 44 15.90234375 42.15234375 C15.95117188 39.07617188 15.95117188 39.07617188 16 36 C13.36 36 10.72 36 8 36 C8 33.36 8 30.72 8 28 C5.69 28 3.38 28 1 28 C1 32.29 1 36.58 1 41 C0.67 41 0.34 41 0 41 C0 27.47 0 13.94 0 0 Z " fill="#23112A" transform="translate(467,537)"/>
<path d="M0 0 C2.64 0 5.28 0 8 0 C8.8907563 9.51185827 9.13479086 18.93968542 9.09765625 28.48828125 C9.09578524 29.92701671 9.09436458 31.36575281 9.09336853 32.80448914 C9.08959702 36.54440144 9.07981433 40.28427331 9.06866455 44.02416992 C9.0565087 48.5365185 9.05202258 53.04888079 9.04621124 57.56124115 C9.03659827 64.37418866 9.01740465 71.18704792 9 78 C-2.22 78 -13.44 78 -25 78 C-25 68.76 -25 59.52 -25 50 C-14.11 50 -3.22 50 8 50 C8 38.78 8 27.56 8 16 C5.36 16 2.72 16 0 16 C0 10.72 0 5.44 0 0 Z " fill="#2A1532" transform="translate(665,410)"/>
<path d="M0 0 C0.495 1.485 0.495 1.485 1 3 C3.31 3.33 5.62 3.66 8 4 C7.56901343 12.96452064 5.30110566 21.37352947 3 30 C-1.02871475 31.03595522 -2.65055731 30.86988854 -7 30 C-8.32 35.61 -9.64 41.22 -11 47 C-14.3 46.67 -17.6 46.34 -21 46 C-21.33 48.64 -21.66 51.28 -22 54 C-24.60466582 53.52342708 -27.20871714 53.04385281 -29.8125 52.5625 C-30.55048828 52.42779297 -31.28847656 52.29308594 -32.04882812 52.15429688 C-35.11315076 51.58580263 -38.03928953 50.98690349 -41 50 C-41.33 52.64 -41.66 55.28 -42 58 C-48.20213847 57.37547911 -53.99429414 56.0842258 -60 54.4375 C-61.30517578 54.08655273 -61.30517578 54.08655273 -62.63671875 53.72851562 C-64.75910017 53.15710524 -66.87973791 52.57922482 -69 52 C-68.67 49.03 -68.34 46.06 -68 43 C-58.4858532 44.36946052 -49.28597346 46.57244856 -40 49 C-40 46.03 -40 43.06 -40 40 C-39.34 40 -38.68 40 -38 40 C-37.855625 39.05125 -37.71125 38.1025 -37.5625 37.125 C-37 34 -37 34 -36 32 C-33.03 32 -30.06 32 -27 32 C-26.34 29.69 -25.68 27.38 -25 25 C-18.59406714 26.10690752 -12.28636144 27.33945169 -6 29 C-5.88785156 27.73285156 -5.77570312 26.46570313 -5.66015625 25.16015625 C-5.06283195 19.78423753 -3.80593618 14.66208968 -2.4375 9.4375 C-2.08655273 8.06754883 -2.08655273 8.06754883 -1.72851562 6.66992188 C-1.15776375 4.44515436 -0.58152522 2.22197103 0 0 Z " fill="#619778" transform="translate(565,421)"/>
<path d="M0 0 C5.28 0 10.56 0 16 0 C16 2.64 16 5.28 16 8 C18.97 8 21.94 8 25 8 C25 18.89 25 29.78 25 41 C22.36 41 19.72 41 17 41 C17 43.64 17 46.28 17 49 C11.39 49 5.78 49 0 49 C0 32.83 0 16.66 0 0 Z " fill="#1B0D20" transform="translate(401,394)"/>
<path d="M0 0 C19.14 0 38.28 0 58 0 C58 8.25 58 16.5 58 25 C54.7 25 51.4 25 48 25 C48 23.35 48 21.7 48 20 C47.34 19.67 46.68 19.34 46 19 C46.99 19 47.98 19 49 19 C49 18.34 49 17.68 49 17 C32.83 17 16.66 17 0 17 C0 11.39 0 5.78 0 0 Z " fill="#220F29" transform="translate(368,512)"/>
<path d="M0 0 C2.64 0 5.28 0 8 0 C8 2.64 8 5.28 8 8 C24.5 8 41 8 58 8 C58 13.61 58 19.22 58 25 C38.86 25 19.72 25 0 25 C0 16.75 0 8.5 0 0 Z " fill="#281530" transform="translate(335,537)"/>
<path d="M0 0 C0.33 0 0.66 0 1 0 C1 24.42 1 48.84 1 74 C0.67 74 0.34 74 0 74 C0 63.11 0 52.22 0 41 C-2.64 41 -5.28 41 -8 41 C-8 38.36 -8 35.72 -8 33 C-24.17 33 -40.34 33 -57 33 C-57 27.72 -57 22.44 -57 17 C-38.19 17 -19.38 17 0 17 C0 11.39 0 5.78 0 0 Z " fill="#1C0B23" transform="translate(904,377)"/>
<path d="M0 0 C1.57361431 0.3568332 3.14386858 0.72872057 4.7109375 1.11328125 C5.51966309 1.30245117 6.32838867 1.49162109 7.16162109 1.68652344 C12.58273761 2.98147695 17.85564815 4.48863705 23.0859375 6.42578125 C22.7559375 9.72578125 22.4259375 13.02578125 22.0859375 16.42578125 C27.3659375 18.07578125 32.6459375 19.72578125 38.0859375 21.42578125 C37.4168625 26.10930624 36.69437472 30.3322633 35.5234375 34.86328125 C35.25402344 35.91386719 34.98460937 36.96445312 34.70703125 38.046875 C34.50207031 38.83191406 34.29710937 39.61695313 34.0859375 40.42578125 C36.7259375 40.75578125 39.3659375 41.08578125 42.0859375 41.42578125 C41.97135057 42.86414876 41.84384634 44.30149091 41.7109375 45.73828125 C41.64132812 46.53878906 41.57171875 47.33929688 41.5 48.1640625 C41.0859375 50.42578125 41.0859375 50.42578125 39.0859375 53.42578125 C38.7559375 52.76578125 38.4259375 52.10578125 38.0859375 51.42578125 C36.10704789 50.69884221 34.10639192 50.02761874 32.0859375 49.42578125 C31.9609375 42.80078125 31.9609375 42.80078125 33.0859375 39.42578125 C30.4459375 39.09578125 27.8059375 38.76578125 25.0859375 38.42578125 C25.5809375 33.47578125 25.5809375 33.47578125 26.0859375 28.42578125 C23.4459375 28.09578125 20.8059375 27.76578125 18.0859375 27.42578125 C18.9609375 19.67578125 18.9609375 19.67578125 20.0859375 17.42578125 C19.04759766 17.27882813 19.04759766 17.27882813 17.98828125 17.12890625 C9.49302594 15.83055366 1.34410168 13.74980013 -6.9140625 11.42578125 C-7.2440625 13.73578125 -7.5740625 16.04578125 -7.9140625 18.42578125 C-12.00492702 20.10219223 -15.62917268 18.66671315 -19.6640625 17.48828125 C-20.36144531 17.29298828 -21.05882812 17.09769531 -21.77734375 16.89648438 C-23.49205223 16.41495665 -25.20341127 15.92152968 -26.9140625 15.42578125 C-27.130625 17.12734375 -27.130625 17.12734375 -27.3515625 18.86328125 C-27.9140625 22.42578125 -27.9140625 22.42578125 -28.9140625 23.42578125 C-31.93522583 23.24873765 -34.91004482 22.80657222 -37.9140625 22.42578125 C-37.4190625 17.97078125 -37.4190625 17.97078125 -36.9140625 13.42578125 C-32.97735762 12.11354629 -30.78918106 13.18281869 -26.9140625 14.42578125 C-26.7696875 13.14703125 -26.6253125 11.86828125 -26.4765625 10.55078125 C-26.20763504 8.16885231 -25.99179904 6.58125434 -24.9140625 4.42578125 C-19.0612675 4.94061044 -13.5842988 5.87935317 -7.9140625 7.42578125 C-7.8109375 6.47703125 -7.7078125 5.52828125 -7.6015625 4.55078125 C-6.51567846 -0.38505528 -4.82596932 -0.70800149 0 0 Z " fill="#1F4836" transform="translate(526.9140625,363.57421875)"/>
<path d="M0 0 C11.22 0 22.44 0 34 0 C34 9.24 34 18.48 34 28 C22.78 28 11.56 28 0 28 C0 18.76 0 9.52 0 0 Z " fill="#2F1E35" transform="translate(582,460)"/>
<path d="M0 0 C2.97 0.66 5.94 1.32 9 2 C8.67 4.97 8.34 7.94 8 11 C10.31 11.33 12.62 11.66 15 12 C16.18857105 15.56571316 15.717232 16.94781941 14.78515625 20.54296875 C14.51123047 21.61611328 14.23730469 22.68925781 13.95507812 23.79492188 C13.66052734 24.91447266 13.36597656 26.03402344 13.0625 27.1875 C12.77181641 28.31865234 12.48113281 29.44980469 12.18164062 30.61523438 C11.46176152 33.4121417 10.73427514 36.20684393 10 39 C3.375 39.125 3.375 39.125 0 38 C-0.33 40.31 -0.66 42.62 -1 45 C-4.67788118 46.22596039 -5.78449613 45.84310077 -10 45 C-9.67 41.37 -9.34 37.74 -9 34 C-12.96 33.505 -12.96 33.505 -17 33 C-16.37392048 27.20052651 -15.32599062 21.66190169 -13.9375 16 C-13.75123047 15.22527344 -13.56496094 14.45054687 -13.37304688 13.65234375 C-12.91923822 11.76729241 -12.46017508 9.8835073 -12 8 C-8.26798075 7.15323933 -5.73059699 7.04070363 -2 8 C-1.34 5.36 -0.68 2.72 0 0 Z " fill="#204A34" transform="translate(522,404)"/>
<path d="M0 0 C10.89 0 21.78 0 33 0 C33 9.24 33 18.48 33 28 C22.11 28 11.22 28 0 28 C0 18.76 0 9.52 0 0 Z " fill="#2B1634" transform="translate(508,578)"/>
<path d="M0 0 C10.89 0 21.78 0 33 0 C33 9.24 33 18.48 33 28 C22.11 28 11.22 28 0 28 C0 18.76 0 9.52 0 0 Z " fill="#322139" transform="translate(434,578)"/>
<path d="M0 0 C10.89 0 21.78 0 33 0 C33 9.24 33 18.48 33 28 C22.11 28 11.22 28 0 28 C0 18.76 0 9.52 0 0 Z " fill="#2A1532" transform="translate(228,460)"/>
<path d="M0 0 C10.89 0 21.78 0 33 0 C33 9.24 33 18.48 33 28 C22.11 28 11.22 28 0 28 C0 18.76 0 9.52 0 0 Z " fill="#311F39" transform="translate(71,460)"/>
<path d="M0 0 C10.89 0 21.78 0 33 0 C33 9.24 33 18.48 33 28 C22.11 28 11.22 28 0 28 C0 18.76 0 9.52 0 0 Z " fill="#301F36" transform="translate(269,460)"/>
<path d="M0 0 C10.89 0 21.78 0 33 0 C33 9.24 33 18.48 33 28 C22.11 28 11.22 28 0 28 C0 18.76 0 9.52 0 0 Z " fill="#311F38" transform="translate(170,460)"/>
<path d="M0 0 C1.98 0 3.96 0 6 0 C6 2.64 6 5.28 6 8 C22.5 8 39 8 56 8 C56 13.28 56 18.56 56 24 C37.85 24 19.7 24 1 24 C0.67 16.08 0.34 8.16 0 0 Z " fill="#281530" transform="translate(815,419)"/>
<path d="M0 0 C10.56 0 21.12 0 32 0 C32 9.24 32 18.48 32 28 C21.44 28 10.88 28 0 28 C0 18.76 0 9.52 0 0 Z " fill="#312039" transform="translate(550,578)"/>
<path d="M0 0 C10.89 0 21.78 0 33 0 C33 8.91 33 17.82 33 27 C22.11 27 11.22 27 0 27 C0 18.09 0 9.18 0 0 Z " fill="#2A1533" transform="translate(739,460)"/>
<path d="M0 0 C9.27394893 0.58882215 18.0146265 2.75886856 27 5 C26.67 7.97 26.34 10.94 26 14 C19.375 14.125 19.375 14.125 16 13 C15.34 15.64 14.68 18.28 14 21 C11.03 21 8.06 21 5 21 C3.68 26.28 2.36 31.56 1 37 C-1.97 36.34 -4.94 35.68 -8 35 C-7.125 28.25 -7.125 28.25 -6 26 C-7.134375 25.855625 -8.26875 25.71125 -9.4375 25.5625 C-13 25 -13 25 -14 24 C-14.55514729 17.61580618 -12.84623638 12.07719474 -11 6 C-7.7 6.66 -4.4 7.32 -1 8 C-0.67 5.36 -0.34 2.72 0 0 Z " fill="#94CE68" transform="translate(506,391)"/>
<path d="M0 0 C8.25 0 16.5 0 25 0 C25 9.24 25 18.48 25 28 C16.75 28 8.5 28 0 28 C0 18.76 0 9.52 0 0 Z " fill="#211029" transform="translate(203,427)"/>
<path d="M0 0 C7.92 0 15.84 0 24 0 C24 9.24 24 18.48 24 28 C16.08 28 8.16 28 0 28 C0 18.76 0 9.52 0 0 Z " fill="#1F0E26" transform="translate(715,427)"/>
<path d="M0 0 C7.92 0 15.84 0 24 0 C24 9.24 24 18.48 24 28 C16.08 28 8.16 28 0 28 C0 18.76 0 9.52 0 0 Z " fill="#1F0E26" transform="translate(616,427)"/>
<path d="M0 0 C3.3 0.66 6.6 1.32 10 2 C8.68 7.94 7.36 13.88 6 20 C2.7 19.67 -0.6 19.34 -4 19 C-4.26554687 20.19496094 -4.53109375 21.38992188 -4.8046875 22.62109375 C-6.53645833 30.4140625 -8.26822917 38.20703125 -10 46 C-8.576875 45.9690625 -8.576875 45.9690625 -7.125 45.9375 C-4 46 -4 46 -2 47 C-2.67581523 53.08233706 -3.73638028 59.01314152 -5 65 C-11.75 64.125 -11.75 64.125 -14 63 C-13.4135682 56.8424661 -12.43270782 51.01737285 -11 45 C-13.64 44.34 -16.28 43.68 -19 43 C-17.52814886 33.85902974 -15.31460464 24.95504804 -13 16 C-9.53058454 16.45822468 -6.32604951 16.89131683 -3 18 C-2.87625 16.700625 -2.7525 15.40125 -2.625 14.0625 C-2.10007752 9.2697295 -1.11621689 4.68811096 0 0 Z " fill="#1D4533" transform="translate(479,383)"/>
<path d="M0 0 C27.06 0 54.12 0 82 0 C82 0.66 82 1.32 82 2 C80.86272964 2.0154612 80.86272964 2.0154612 79.70248413 2.03123474 C72.49587068 2.12992732 65.28932781 2.23253154 58.08283043 2.33933926 C54.37946479 2.39409408 50.67609093 2.44742822 46.97265625 2.49731445 C43.38696285 2.54567032 39.80134648 2.59802048 36.21574783 2.65294075 C34.20770237 2.682715 32.19959952 2.70853646 30.1914978 2.73423767 C21.75779465 2.86771284 13.40591406 3.3101454 5 4 C3.9373982 20.42180999 3.88170804 36.79874063 3.9375 53.25 C3.94252924 55.85676997 3.94708961 58.46354088 3.95117188 61.0703125 C3.96205493 67.38023228 3.97923956 73.6901053 4 80 C10.93 80.33 17.86 80.66 25 81 C25 81.33 25 81.66 25 82 C16.75 82 8.5 82 0 82 C0 54.94 0 27.88 0 0 Z " fill="#D5B0E2" transform="translate(71,377)"/>
<path d="M0 0 C10.89 0 21.78 0 33 0 C33 0.66 33 1.32 33 2 C32.19256348 2.01981934 31.38512695 2.03963867 30.55322266 2.06005859 C26.91014125 2.15505899 23.26765314 2.26483912 19.625 2.375 C18.35398437 2.4059375 17.08296875 2.436875 15.7734375 2.46875 C14.56171875 2.50742187 13.35 2.54609375 12.1015625 2.5859375 C10.42054443 2.63306885 10.42054443 2.63306885 8.70556641 2.68115234 C5.85289588 2.73411203 5.85289588 2.73411203 4 5 C3.81234227 7.40926234 3.74799019 9.70248397 3.77294922 12.11181641 C3.77251114 13.20953117 3.77251114 13.20953117 3.77206421 14.329422 C3.77345999 16.75358854 3.7890326 19.17744951 3.8046875 21.6015625 C3.80841675 23.28022087 3.81126414 24.95888141 3.81326294 26.63754272 C3.82090631 31.05991607 3.84056078 35.48215845 3.8626709 39.90447998 C3.88311421 44.41546863 3.89226141 48.9264784 3.90234375 53.4375 C3.92380608 62.29173352 3.95899389 71.14583539 4 80 C12.91 80 21.82 80 31 80 C30.98839844 77.28007813 30.97679687 74.56015625 30.96484375 71.7578125 C30.95705002 69.13004676 30.95097505 66.5022823 30.94506836 63.87451172 C30.94003263 62.04507879 30.93320373 60.21564991 30.92456055 58.38623047 C30.91246176 55.76008102 30.90676417 53.13398468 30.90234375 50.5078125 C30.89718246 49.68693146 30.89202118 48.86605042 30.88670349 48.02029419 C30.88612829 42.22774341 30.88612829 42.22774341 32 40 C36.20971771 38.9269347 38.387099 38.74369595 42.4375 40.4375 C43.7059375 41.2109375 43.7059375 41.2109375 45 42 C45 43.98 45 45.96 45 48 C43.02 48.495 43.02 48.495 41 49 C41 46.36 41 43.72 41 41 C38.36 41 35.72 41 33 41 C33 54.53 33 68.06 33 82 C22.11 82 11.22 82 0 82 C0 54.94 0 27.88 0 0 Z " fill="#B27AC9" transform="translate(434,496)"/>
<path d="M0 0 C2.64 0 5.28 0 8 0 C8 2.97 8 5.94 8 9 C10.64 9 13.28 9 16 9 C16.33 14.94 16.66 20.88 17 27 C17.66 26.01 18.32 25.02 19 24 C19 26.64 19 29.28 19 32 C18.67 32 18.34 32 18 32 C17.67 36.29 17.34 40.58 17 45 C16.67 45 16.34 45 16 45 C16 42.36 16 39.72 16 37 C13.36 37 10.72 37 8 37 C8 34.03 8 31.06 8 28 C5.36 28 2.72 28 0 28 C0 18.76 0 9.52 0 0 Z " fill="#211127" transform="translate(302,418)"/>
<path d="M0 0 C3.36914062 0.87890625 3.36914062 0.87890625 6.73828125 1.7578125 C6.07828125 5.7178125 5.41828125 9.6778125 4.73828125 13.7578125 C-0.21171875 12.7678125 -0.21171875 12.7678125 -5.26171875 11.7578125 C-5.59171875 14.0678125 -5.92171875 16.3778125 -6.26171875 18.7578125 C-10.35258327 20.43422348 -13.97682893 18.9987444 -18.01171875 17.8203125 C-18.70910156 17.62501953 -19.40648437 17.42972656 -20.125 17.22851562 C-21.83970848 16.7469879 -23.55106752 16.25356093 -25.26171875 15.7578125 C-25.47828125 17.459375 -25.47828125 17.459375 -25.69921875 19.1953125 C-26.26171875 22.7578125 -26.26171875 22.7578125 -27.26171875 23.7578125 C-30.28288208 23.5807689 -33.25770107 23.13860347 -36.26171875 22.7578125 C-35.76671875 18.3028125 -35.76671875 18.3028125 -35.26171875 13.7578125 C-31.32501387 12.44557754 -29.13683731 13.51484994 -25.26171875 14.7578125 C-25.11734375 13.4790625 -24.97296875 12.2003125 -24.82421875 10.8828125 C-24.55529129 8.50088356 -24.33945529 6.91328559 -23.26171875 4.7578125 C-17.40892375 5.27264169 -11.93195505 6.21138442 -6.26171875 7.7578125 C-6.15859375 6.8090625 -6.05546875 5.8603125 -5.94921875 4.8828125 C-5.12823991 1.1510905 -4.03398757 -0.43196413 0 0 Z " fill="#316162" transform="translate(525.26171875,363.2421875)"/>
<path d="M0 0 C7.875 0.875 7.875 0.875 9 2 C8.91062197 3.52519276 8.75462854 5.04681929 8.5625 6.5625 C8.46066406 7.38878906 8.35882812 8.21507812 8.25390625 9.06640625 C8.17011719 9.70449219 8.08632813 10.34257812 8 11 C9.423125 11.2165625 9.423125 11.2165625 10.875 11.4375 C14 12 14 12 16 13 C14.60213923 21.84698726 12.39537771 30.38361708 10 39 C7.03 38.67 4.06 38.34 1 38 C1.58490879 31.85845775 2.54066252 25.99320151 4 20 C1.69 19.34 -0.62 18.68 -3 18 C-3.125 11.25 -3.125 11.25 -2 9 C-2.66 8.67 -3.32 8.34 -4 8 C-3.01 8 -2.02 8 -1 8 C-0.67 5.36 -0.34 2.72 0 0 Z " fill="#6FA94B" transform="translate(533,397)"/>
<path d="M0 0 C8.25 0 16.5 0 25 0 C25 5.61 25 11.22 25 17 C16.75 17 8.5 17 0 17 C0 11.39 0 5.78 0 0 Z " fill="#25102C" transform="translate(582,512)"/>
<path d="M0 0 C8.25 0 16.5 0 25 0 C25 5.61 25 11.22 25 17 C16.75 17 8.5 17 0 17 C0 11.39 0 5.78 0 0 Z " fill="#9050AA" transform="translate(780,377)"/>
<path d="M0 0 C4.455 0.99 4.455 0.99 9 2 C8.67 4.97 8.34 7.94 8 11 C10.31 11.33 12.62 11.66 15 12 C16.18857105 15.56571316 15.717232 16.94781941 14.78515625 20.54296875 C14.51123047 21.61611328 14.23730469 22.68925781 13.95507812 23.79492188 C13.66052734 24.91447266 13.36597656 26.03402344 13.0625 27.1875 C12.77181641 28.31865234 12.48113281 29.44980469 12.18164062 30.61523438 C11.46176152 33.4121417 10.73427514 36.20684393 10 39 C3.375 39.125 3.375 39.125 0 38 C-0.33 40.31 -0.66 42.62 -1 45 C-4.32534757 46.10844919 -6.62182575 45.84454356 -10 45 C-9.67 41.7 -9.34 38.4 -9 35 C-5.7 35.66 -2.4 36.32 1 37 C1.11214844 35.88625 1.22429688 34.7725 1.33984375 33.625 C1.96508944 28.62303449 3.23158076 23.85394077 4.5625 19 C4.79646484 18.12988281 5.03042969 17.25976562 5.27148438 16.36328125 C5.84289476 14.24089983 6.42077518 12.12026209 7 10 C3.7 9.67 0.4 9.34 -3 9 C-2.01 6.03 -1.02 3.06 0 0 Z " fill="#204A35" transform="translate(522,404)"/>
<path d="M0 0 C8.25 0 16.5 0 25 0 C25 5.28 25 10.56 25 16 C16.75 16 8.5 16 0 16 C0 10.72 0 5.44 0 0 Z " fill="#1F0C26" transform="translate(203,394)"/>
<path d="M0 0 C8.25 0 16.5 0 25 0 C25 5.28 25 10.56 25 16 C16.75 16 8.5 16 0 16 C0 10.72 0 5.44 0 0 Z " fill="#1F0C25" transform="translate(104,394)"/>
<path d="M0 0 C27.06 0 54.12 0 82 0 C82 0.66 82 1.32 82 2 C55.6 2 29.2 2 2 2 C2.33 5.63 2.66 9.26 3 13 C3.03823523 15.35385615 3.04575887 17.70877809 3 20.0625 C2.78714251 24.19097513 2.78714251 24.19097513 4 28 C3.34 28 2.68 28 2 28 C2.16226074 28.61931396 2.32452148 29.23862793 2.49169922 29.87670898 C3.20345471 34.25014221 3.14250296 38.54881829 3.1328125 42.97265625 C3.13376923 43.93272079 3.13472595 44.89278534 3.13571167 45.88194275 C3.13639074 47.90672878 3.13455552 49.93151701 3.13037109 51.95629883 C3.12501314 55.05489993 3.13032837 58.15335648 3.13671875 61.25195312 C3.13605803 63.22135449 3.13477701 65.19075576 3.1328125 67.16015625 C3.13483673 68.08627213 3.13686096 69.012388 3.13894653 69.96656799 C3.13579437 70.8310405 3.13264221 71.695513 3.12939453 72.58618164 C3.12820114 73.72271935 3.12820114 73.72271935 3.12698364 74.88221741 C3 77 3 77 2 81 C9.92 81 17.84 81 26 81 C26 81.33 26 81.66 26 82 C17.42 82 8.84 82 0 82 C0 54.94 0 27.88 0 0 Z " fill="#C89BDA" transform="translate(583,377)"/>
<path d="M0 0 C7.92 0 15.84 0 24 0 C24 5.28 24 10.56 24 16 C16.08 16 8.16 16 0 16 C0 10.72 0 5.44 0 0 Z " fill="#1D0B23" transform="translate(715,394)"/>
<path d="M0 0 C7.92 0 15.84 0 24 0 C24 5.28 24 10.56 24 16 C16.08 16 8.16 16 0 16 C0 10.72 0 5.44 0 0 Z " fill="#1D0B23" transform="translate(616,394)"/>
<path d="M0 0 C2.64 0 5.28 0 8 0 C8 2.64 8 5.28 8 8 C24.5 8 41 8 58 8 C58 13.61 58 19.22 58 25 C38.86 25 19.72 25 0 25 C0 16.75 0 8.5 0 0 Z M11 9 C9.36754447 13.37032032 9.36754447 13.37032032 10 24 C25.51 24 41.02 24 57 24 C57 19.05 57 14.1 57 9 C41.82 9 26.64 9 11 9 Z " fill="#422C4B" transform="translate(335,537)"/>
<path d="M0 0 C3.12290635 0.48578543 5.99580359 0.9986012 9 2 C8.58411954 8.19518473 7.39748106 13.26689311 5 19 C2.03 18.67 -0.94 18.34 -4 18 C-4.66 20.64 -5.32 23.28 -6 26 C-8.97 25.67 -11.94 25.34 -15 25 C-13.9611908 18.8887076 -12.84269722 12.92295536 -11 7 C-7.7 7.33 -4.4 7.66 -1 8 C-0.67 5.36 -0.34 2.72 0 0 Z " fill="#70AA4B" transform="translate(533,435)"/>
<path d="M0 0 C6.55925943 0.38979206 11.94526627 1.42113193 18 4 C17.67 6.64 17.34 9.28 17 12 C13.7 11.67 10.4 11.34 7 11 C6.67 13.64 6.34 16.28 6 19 C3.93643105 18.7159949 1.8741715 18.42246648 -0.1875 18.125 C-1.33605469 17.96257812 -2.48460937 17.80015625 -3.66796875 17.6328125 C-6.68724625 17.05939755 -9.20575848 16.25240957 -12 15 C-11.67 12.03 -11.34 9.06 -11 6 C-7.7 6.66 -4.4 7.32 -1 8 C-0.67 5.36 -0.34 2.72 0 0 Z " fill="#B3E35E" transform="translate(506,391)"/>
<path d="M0 0 C27.06 0 54.12 0 82 0 C82 0.33 82 0.66 82 1 C64.15784255 1.93381657 46.36373613 2.12391528 28.5 2.0625 C25.91145921 2.05746709 23.32291746 2.0529074 20.734375 2.04882812 C14.48956172 2.03798254 8.24478562 2.0213909 2 2 C1.97680737 10.25820656 1.95904963 18.51639945 1.94818783 26.77463055 C1.94297414 30.60944966 1.93590401 34.44424646 1.92456055 38.27905273 C1.91367783 41.98135916 1.90771175 45.68364415 1.90512276 49.38596535 C1.90327821 50.79691721 1.89967629 52.20786794 1.89426994 53.61881065 C1.88698816 55.59831976 1.88659133 57.57785055 1.88647461 59.55737305 C1.884254 60.68322311 1.88203339 61.80907318 1.87974548 62.96903992 C1.99091282 65.77096172 2.39832355 68.2695042 3 71 C3.06459042 72.76977761 3.08611065 74.54170152 3.0625 76.3125 C3.05347656 77.19550781 3.04445313 78.07851563 3.03515625 78.98828125 C3.02355469 79.65214844 3.01195312 80.31601562 3 81 C4.39412109 80.75443359 4.39412109 80.75443359 5.81640625 80.50390625 C10.84732937 79.78520295 15.86645558 79.89279156 20.9375 79.9375 C24.258125 79.958125 27.57875 79.97875 31 80 C31 70.1 31 60.2 31 50 C31.33 50 31.66 50 32 50 C32 60.56 32 71.12 32 82 C21.44 82 10.88 82 0 82 C0 54.94 0 27.88 0 0 Z " fill="#B473CF" transform="translate(550,496)"/>
<path d="M0 0 C4.62 0 9.24 0 14 0 C14 2.64 14 5.28 14 8 C16.64 8 19.28 8 22 8 C22 9.32 22 10.64 22 12 C19.69 12.33 17.38 12.66 15 13 C14.67 15.31 14.34 17.62 14 20 C9.38 20 4.76 20 0 20 C0 13.4 0 6.8 0 0 Z " fill="#000000" transform="translate(403,422)"/>
<path d="M0 0 C27.39 0 54.78 0 83 0 C83 0.33 83 0.66 83 1 C56.33171449 1.6129904 29.67656838 2.20469566 3 2 C3 4.64 3 7.28 3 10 C-0.465 11.485 -0.465 11.485 -4 13 C-4 21.91 -4 30.82 -4 40 C-2.02 40 -0.04 40 2 40 C3.4783226 42.95664519 3.06032783 45.74229737 3 49 C2.01 49 1.02 49 0 49 C0 46.36 0 43.72 0 41 C-2.64 41 -5.28 41 -8 41 C-8 30.11 -8 19.22 -8 8 C-5.36 8 -2.72 8 0 8 C0 5.36 0 2.72 0 0 Z " fill="#DAB1EA" transform="translate(343,496)"/>
<path d="M0 0 C2.97 0 5.94 0 9 0 C9 0.33 9 0.66 9 1 C6.36 1 3.72 1 1 1 C1 11.56 1 22.12 1 33 C3.64 33 6.28 33 9 33 C9 35.64 9 38.28 9 41 C25.17 41 41.34 41 58 41 C58 41.33 58 41.66 58 42 C41.5 42 25 42 8 42 C8 39.36 8 36.72 8 34 C5.525 34.495 5.525 34.495 3 35 C3 42.59 3 50.18 3 58 C2.34 58 1.68 58 1 58 C1 63.28 1 68.56 1 74 C28.06 74 55.12 74 83 74 C83 74.33 83 74.66 83 75 C55.61 75 28.22 75 0 75 C0 50.25 0 25.5 0 0 Z " fill="#644671" transform="translate(813,385)"/>
<path d="M0 0 C27.06 0 54.12 0 82 0 C82 0.66 82 1.32 82 2 C55.6 2 29.2 2 2 2 C2 4.64 2 7.28 2 10 C-0.64 10 -3.28 10 -6 10 C-5.34 19.57 -4.68 29.14 -4 39 C-2.68 39.33 -1.36 39.66 0 40 C0 40.33 0 40.66 0 41 C-2.64 41 -5.28 41 -8 41 C-8 30.44 -8 19.88 -8 9 C-5.36 9 -2.72 9 0 9 C0 6.03 0 3.06 0 0 Z " fill="#C39ED1" transform="translate(822,377)"/>
<path d="M0 0 C3.3 0.33 6.6 0.66 10 1 C9.57847656 2.59070313 9.15695312 4.18140625 8.72265625 5.8203125 C8.1691295 7.92183778 7.61575191 10.02340235 7.0625 12.125 C6.78470703 13.17171875 6.50691406 14.2184375 6.22070312 15.296875 C5.95322266 16.31523437 5.68574219 17.33359375 5.41015625 18.3828125 C5.16402588 19.31496582 4.91789551 20.24711914 4.66430664 21.20751953 C3.97046497 24.1241535 3.46049132 27.03833384 3 30 C2.67 29.34 2.34 28.68 2 28 C0.10466658 27.53476937 0.10466658 27.53476937 -2.0625 27.375 C-3.361875 27.25125 -4.66125 27.1275 -6 27 C-5.43755107 20.54153469 -4.26271535 14.64936738 -2.4375 8.4375 C-2.20353516 7.61958984 -1.96957031 6.80167969 -1.72851562 5.95898438 C-1.15880046 3.97079473 -0.58033086 1.98511701 0 0 Z " fill="#306161" transform="translate(475,402)"/>
<path d="M0 0 C0.33 1.32 0.66 2.64 1 4 C3.64 4.33 6.28 4.66 9 5 C8.34 8.3 7.68 11.6 7 15 C8.423125 15.2165625 8.423125 15.2165625 9.875 15.4375 C13 16 13 16 15 17 C14.67 19.97 14.34 22.94 14 26 C16.31 26.33 18.62 26.66 21 27 C22.46726798 30.81489674 21.43336419 33.29011622 20 37 C17.36 36.34 14.72 35.68 12 35 C12.33 31.7 12.66 28.4 13 25 C10.36 24.67 7.72 24.34 5 24 C5.33 20.7 5.66 17.4 6 14 C3.36 13.67 0.72 13.34 -2 13 C-1.85769192 11.58297487 -1.71099254 10.1663904 -1.5625 8.75 C-1.48128906 7.96109375 -1.40007812 7.1721875 -1.31640625 6.359375 C-1.02365007 4.17635361 -0.57935581 2.1226818 0 0 Z " fill="#63997A" transform="translate(480,418)"/>
<path d="M0 0 C9.81132732 1.43672616 19.37671974 3.65118989 29 6 C28.01 6.495 28.01 6.495 27 7 C26.53476937 8.89533342 26.53476937 8.89533342 26.375 11.0625 C26.25125 12.361875 26.1275 13.66125 26 15 C19.79786153 14.37547911 14.00570586 13.0842258 8 11.4375 C7.12988281 11.20353516 6.25976562 10.96957031 5.36328125 10.72851562 C3.24089983 10.15710524 1.12026209 9.57922482 -1 9 C-0.67 6.03 -0.34 3.06 0 0 Z " fill="#306263" transform="translate(497,464)"/>
<path d="M0 0 C0.33 0.99 0.66 1.98 1 3 C3.31 3.33 5.62 3.66 8 4 C7.56901343 12.96452064 5.30110566 21.37352947 3 30 C-0.73059699 30.95929637 -3.26798075 30.84676067 -7 30 C-6.02143206 25.74986191 -5.04204233 21.49991361 -4.0625 17.25 C-3.78470703 16.0434375 -3.50691406 14.836875 -3.22070312 13.59375 C-2.95322266 12.43359375 -2.68574219 11.2734375 -2.41015625 10.078125 C-2.16402588 9.00981445 -1.91789551 7.94150391 -1.66430664 6.84082031 C-1.12971226 4.55469748 -0.5784341 2.27533412 0 0 Z " fill="#306162" transform="translate(565,421)"/>
<path d="M0 0 C2.97 0.33 5.94 0.66 9 1 C8.37547911 7.20213847 7.0842258 12.99429414 5.4375 19 C5.20353516 19.87011719 4.96957031 20.74023438 4.72851562 21.63671875 C4.15710524 23.75910017 3.57922482 25.87973791 3 28 C0.03 27.67 -2.94 27.34 -6 27 C-5.37423415 21.25077626 -4.36011739 15.74287619 -3 10.125 C-2.82210937 9.36703125 -2.64421875 8.6090625 -2.4609375 7.828125 C-1.13632015 2.27264031 -1.13632015 2.27264031 0 0 Z " fill="#1A2B11" transform="translate(520,413)"/>
<path d="M0 0 C6.45846531 0.56244893 12.35063262 1.73728465 18.5625 3.5625 C19.38041016 3.79646484 20.19832031 4.03042969 21.04101562 4.27148438 C23.02920527 4.84119954 25.01488299 5.41966914 27 6 C26.34 8.97 25.68 11.94 25 15 C23.24236328 14.60167969 23.24236328 14.60167969 21.44921875 14.1953125 C12.99359895 12.29068279 4.55159142 10.43154394 -4 9 C-3.34 8.34 -2.68 7.68 -2 7 C-1.28072705 4.68234271 -0.6090107 2.34904126 0 0 Z " fill="#4D8184" transform="translate(520,375)"/>
<path d="M0 0 C2.64 0 5.28 0 8 0 C8 10.89 8 21.78 8 33 C5.36 33 2.72 33 0 33 C0 32.67 0 32.34 0 32 C2.31 32 4.62 32 7 32 C7 30.68 7 29.36 7 28 C4.69 28 2.38 28 0 28 C0 18.76 0 9.52 0 0 Z " fill="#24152A" transform="translate(418,402)"/>
<path d="M0 0 C2.81355932 0.64147959 5.62580239 1.28795515 8.4375 1.9375 C9.64116211 2.21110352 9.64116211 2.21110352 10.86914062 2.49023438 C16.88671875 3.88671875 16.88671875 3.88671875 18 5 C17.96219927 6.64869317 17.84529698 8.29594032 17.6875 9.9375 C17.56955078 11.28134766 17.56955078 11.28134766 17.44921875 12.65234375 C17 15 17 15 15 17 C12.72893254 16.35498084 10.45814093 15.70901747 8.1875 15.0625 C6.92292969 14.70285156 5.65835938 14.34320313 4.35546875 13.97265625 C2.22498018 13.35508739 0.10436108 12.70145369 -2 12 C-1.85831863 10.56208484 -1.71148957 9.1246763 -1.5625 7.6875 C-1.48128906 6.88699219 -1.40007813 6.08648437 -1.31640625 5.26171875 C-1 3 -1 3 0 0 Z " fill="#1E4636" transform="translate(532,365)"/>
<path d="M0 0 C0.33 0 0.66 0 1 0 C1.02684679 2.64590014 1.04676357 5.29153096 1.0625 7.9375 C1.07087891 8.69224609 1.07925781 9.44699219 1.08789062 10.22460938 C1.09652441 12.14994313 1.05224333 14.07535581 1 16 C-0.67605723 17.67605723 -2.76655749 17.21693356 -5.07055664 17.29711914 C-6.69212425 17.3570681 -6.69212425 17.3570681 -8.34645081 17.41822815 C-9.5224736 17.45681442 -10.6984964 17.4954007 -11.91015625 17.53515625 C-13.70591347 17.59962196 -13.70591347 17.59962196 -15.53794861 17.66539001 C-19.37932243 17.80225272 -23.22089033 17.93244239 -27.0625 18.0625 C-29.65952065 18.15385899 -32.25652614 18.24565007 -34.85351562 18.33789062 C-41.23551164 18.56361671 -47.61768947 18.78335652 -54 19 C-54.33 22.63 -54.66 26.26 -55 30 C-47.08 30 -39.16 30 -31 30 C-31 30.33 -31 30.66 -31 31 C-39.91 31 -48.82 31 -58 31 C-58 25.72 -58 20.44 -58 15 C-38.86 15 -19.72 15 0 15 C0 10.05 0 5.1 0 0 Z " fill="#DBA7F0" transform="translate(872,428)"/>
<path d="M0 0 C0.66 0.33 1.32 0.66 2 1 C1.99555878 1.83493988 1.99111755 2.66987976 1.98654175 3.53012085 C1.94651408 11.38790625 1.91604063 19.24565755 1.89637566 27.10352135 C1.88592593 31.14360264 1.8717452 35.18359989 1.84912109 39.22363281 C1.82743488 43.12044733 1.81544033 47.01718087 1.81024551 50.91405106 C1.80654214 52.40285136 1.79931062 53.8916471 1.78853989 55.38041306 C1.77408081 57.46122667 1.77201967 59.54170306 1.77294922 61.62255859 C1.768508 62.80836517 1.76406677 63.99417175 1.75949097 65.21591187 C1.71124217 68.14032538 1.71124217 68.14032538 4 70 C2.02 70 0.04 70 -2 70 C-2.04628239 61.16846012 -2.08184825 52.3369618 -2.10362434 43.50532722 C-2.11407426 39.40471243 -2.12825537 35.30418042 -2.15087891 31.20361328 C-2.1725644 27.24844419 -2.18455952 23.29335489 -2.18975449 19.33813095 C-2.19345799 17.82700214 -2.20068975 16.31587783 -2.21146011 14.80478287 C-2.22591823 12.69283768 -2.22798037 10.58122476 -2.22705078 8.46923828 C-2.231492 7.26566681 -2.23593323 6.06209534 -2.24050903 4.822052 C-2 2 -2 2 0 0 Z " fill="#876993" transform="translate(271,389)"/>
<path d="M0 0 C2.64 0 5.28 0 8 0 C8.8907563 9.51185827 9.13479086 18.93968542 9.09765625 28.48828125 C9.09578524 29.92701671 9.09436458 31.36575281 9.09336853 32.80448914 C9.08959702 36.54440144 9.07981433 40.28427331 9.06866455 44.02416992 C9.0565087 48.5365185 9.05202258 53.04888079 9.04621124 57.56124115 C9.03659827 64.37418866 9.01740465 71.18704792 9 78 C-2.22 78 -13.44 78 -25 78 C-25 77.67 -25 77.34 -25 77 C-14.11 77 -3.22 77 8 77 C8 56.87 8 36.74 8 16 C5.36 16 2.72 16 0 16 C0 10.72 0 5.44 0 0 Z " fill="#1E0A26" transform="translate(665,410)"/>
<path d="M0 0 C1.48203779 2.96407559 1.11920826 5.62079165 1.11352539 8.92822266 C1.11367142 9.64052536 1.11381744 10.35282806 1.1139679 11.0867157 C1.11327011 13.44586206 1.10548397 15.80492989 1.09765625 18.1640625 C1.0957916 19.79788164 1.09436792 21.43170134 1.09336853 23.06552124 C1.08954709 27.3694818 1.07971998 31.67340871 1.06866455 35.97735596 C1.05844242 40.36771184 1.05386919 44.75807315 1.04882812 49.1484375 C1.03809739 57.76564046 1.02102543 66.38281604 1 75 C-0.32 75 -1.64 75 -3 75 C-3.04651505 66.68050328 -3.08196601 58.36106168 -3.10362434 50.04146671 C-3.11402371 46.17758118 -3.12811186 42.31378519 -3.15087891 38.44995117 C-3.17274549 34.71520048 -3.1845975 30.98053545 -3.18975449 27.24572563 C-3.19342561 25.82690522 -3.20059382 24.40808904 -3.21146011 22.9893055 C-3.26753113 15.35889137 -3.13508771 8.35667251 -1 1 C-0.67 0.67 -0.34 0.34 0 0 Z " fill="#876894" transform="translate(371,384)"/>
<path d="M0 0 C1.98 0 3.96 0 6 0 C6 2.64 6 5.28 6 8 C22.5 8 39 8 56 8 C56 8.33 56 8.66 56 9 C40.49 9 24.98 9 9 9 C9.33 13.95 9.66 18.9 10 24 C7.03 24 4.06 24 1 24 C0.67 16.08 0.34 8.16 0 0 Z " fill="#311D3A" transform="translate(815,419)"/>
<path d="M0 0 C0.33 0 0.66 0 1 0 C1 5.61 1 11.22 1 17 C-4.76167337 17.1443105 -10.52339115 17.28664525 -16.28515625 17.42724609 C-18.24024738 17.47522181 -20.19532594 17.52371272 -22.15039062 17.57275391 C-24.98043668 17.64364974 -27.8105153 17.71294426 -30.640625 17.78125 C-31.5519519 17.80348633 -32.46327881 17.82572266 -33.40222168 17.84863281 C-39.28632667 17.98401692 -45.15673635 18.02460448 -51.04199219 17.91992188 C-53.00455905 17.77868531 -53.00455905 17.77868531 -54 19 C-54.07226502 20.85287502 -54.0838122 22.70833878 -54.0625 24.5625 C-54.05347656 25.57441406 -54.04445313 26.58632813 -54.03515625 27.62890625 C-54.02355469 28.41136719 -54.01195312 29.19382812 -54 30 C-52.75863281 29.75443359 -52.75863281 29.75443359 -51.4921875 29.50390625 C-47.67805811 28.9535453 -43.96646499 28.88910945 -40.125 28.9375 C-39.09246094 28.94426758 -39.09246094 28.94426758 -38.0390625 28.95117188 C-36.35933665 28.96283664 -34.67965625 28.98076729 -33 29 C-33 29.33 -33 29.66 -33 30 C-41.36506246 30.75555403 -49.60059013 31.10119771 -58 31 C-58 25.72 -58 20.44 -58 15 C-38.86 15 -19.72 15 0 15 C0 10.05 0 5.1 0 0 Z " fill="#DFACF3" transform="translate(393,547)"/>
<path d="M0 0 C0.33 0 0.66 0 1 0 C1.02505615 0.79172607 1.0501123 1.58345215 1.07592773 2.39916992 C1.19215729 5.99543363 1.31476176 9.5914528 1.4375 13.1875 C1.47681641 14.43337891 1.51613281 15.67925781 1.55664062 16.96289062 C1.59853516 18.16494141 1.64042969 19.36699219 1.68359375 20.60546875 C1.72025146 21.71043701 1.75690918 22.81540527 1.79467773 23.95385742 C1.91460081 26.89150849 1.91460081 26.89150849 2.51147461 29.27636719 C3.26808773 33.49464604 3.14218075 37.69590835 3.1328125 41.97265625 C3.13376923 42.93272079 3.13472595 43.89278534 3.13571167 44.88194275 C3.13639074 46.90672878 3.13455552 48.93151701 3.13037109 50.95629883 C3.12501314 54.05489993 3.13032837 57.15335648 3.13671875 60.25195312 C3.13605803 62.22135449 3.13477701 64.19075576 3.1328125 66.16015625 C3.13483673 67.08627213 3.13686096 68.012388 3.13894653 68.96656799 C3.13579437 69.8310405 3.13264221 70.695513 3.12939453 71.58618164 C3.12820114 72.72271935 3.12820114 72.72271935 3.12698364 73.88221741 C3 76 3 76 2 80 C9.92 80 17.84 80 26 80 C26 80.33 26 80.66 26 81 C17.42 81 8.84 81 0 81 C0 54.27 0 27.54 0 0 Z " fill="#E0B0F4" transform="translate(583,378)"/>
<path d="M0 0 C0.556875 0.474375 1.11375 0.94875 1.6875 1.4375 C4.24804988 3.38456424 4.24804988 3.38456424 9 4 C8.34 7.3 7.68 10.6 7 14 C8.65 14.33 10.3 14.66 12 15 C12.99 15.33 13.98 15.66 15 16 C14.34 18.97 13.68 21.94 13 25 C8.545 24.01 8.545 24.01 4 23 C4.66 19.7 5.32 16.4 6 13 C3.36 12.67 0.72 12.34 -2 12 C-2.21278058 7.53160785 -1.59138085 4.17737474 0 0 Z " fill="#1C4432" transform="translate(563,392)"/>
<path d="M0 0 C2.64 0.66 5.28 1.32 8 2 C9.00000429 6.00001715 8.80688405 8.05523353 8 12 C10.64 12.33 13.28 12.66 16 13 C15.88541307 14.43836751 15.75790884 15.87570966 15.625 17.3125 C15.55539062 18.11300781 15.48578125 18.91351563 15.4140625 19.73828125 C15 22 15 22 13 25 C12.67 24.34 12.34 23.68 12 23 C10.02111039 22.27306096 8.02045442 21.60183749 6 21 C5.875 14.375 5.875 14.375 7 11 C4.36 10.67 1.72 10.34 -1 10 C-0.67 6.7 -0.34 3.4 0 0 Z " fill="#326362" transform="translate(553,392)"/>
<path d="M0 0 C3.3 0.66 6.6 1.32 10 2 C9.01 4.97 8.02 7.94 7 11 C3.87709365 10.51421457 1.00419641 10.0013988 -2 9 C-2.66 11.64 -3.32 14.28 -4 17 C-6.97 16.67 -9.94 16.34 -13 16 C-12.67 13.03 -12.34 10.06 -12 7 C-8.7 7 -5.4 7 -2 7 C-1.34 4.69 -0.68 2.38 0 0 Z " fill="#4C8182" transform="translate(500,379)"/>
<path d="M0 0 C7.75 0.75 7.75 0.75 10 3 C9.7578125 4.9453125 9.7578125 4.9453125 9.125 7.125 C8.92132813 7.84945313 8.71765625 8.57390625 8.5078125 9.3203125 C8.25644531 10.15175781 8.25644531 10.15175781 8 11 C8.99 11.33 9.98 11.66 11 12 C9.68 12 8.36 12 7 12 C6.87625 12.763125 6.7525 13.52625 6.625 14.3125 C6 17 6 17 4 20 C1.69 19.34 -0.62 18.68 -3 18 C-2.67 15.03 -2.34 12.06 -2 9 C-2.66 8.67 -3.32 8.34 -4 8 C-3.01 8 -2.02 8 -1 8 C-0.67 5.36 -0.34 2.72 0 0 Z " fill="#6EA84A" transform="translate(497,426)"/>
<path d="M0 0 C2.97 0.66 5.94 1.32 9 2 C8.34 4.97 7.68 7.94 7 11 C3.7 10.67 0.4 10.34 -3 10 C-3.33 12.64 -3.66 15.28 -4 18 C-9.94 17.01 -9.94 17.01 -16 16 C-15.01 15.67 -14.02 15.34 -13 15 C-12.67 12.36 -12.34 9.72 -12 7 C-8.60694964 7.53980347 -5.33796756 8.16550811 -2 9 C-1.34 6.03 -0.68 3.06 0 0 Z " fill="#316261" transform="translate(547,457)"/>
<path d="M0 0 C24.42 0 48.84 0 74 0 C74 0.66 74 1.32 74 2 C50.24 2 26.48 2 2 2 C2 5.3 2 8.6 2 12 C1.5 15.125 1.5 15.125 1 17 C0.67 17 0.34 17 0 17 C0 11.39 0 5.78 0 0 Z " fill="#C19AD1" transform="translate(368,377)"/>
<path d="M0 0 C0.33 0.66 0.66 1.32 1 2 C2.89533342 2.46523063 2.89533342 2.46523063 5.0625 2.625 C6.361875 2.74875 7.66125 2.8725 9 3 C8.67 6.3 8.34 9.6 8 13 C10.64 13.33 13.28 13.66 16 14 C15.67 17.3 15.34 20.6 15 24 C11.7 23.34 8.4 22.68 5 22 C5.66 18.7 6.32 15.4 7 12 C4.36 11.67 1.72 11.34 -1 11 C-0.67 7.37 -0.34 3.74 0 0 Z " fill="#306263" transform="translate(475,438)"/>
<path d="M0 0 C4.455 0.99 4.455 0.99 9 2 C8.52294177 4.27127721 8.04328294 6.54200832 7.5625 8.8125 C7.29566406 10.07707031 7.02882813 11.34164063 6.75390625 12.64453125 C6 16 6 16 5 19 C2.03 18.67 -0.94 18.34 -4 18 C-3.48477649 11.50818377 -2.23377431 6.11859918 0 0 Z " fill="#568F42" transform="translate(538,417)"/>
<path d="M0 0 C4.455 0.99 4.455 0.99 9 2 C8.125 8.875 8.125 8.875 7 10 C0.47457627 10.23728814 0.47457627 10.23728814 -2 9 C-2.66 11.64 -3.32 14.28 -4 17 C-6.64 16.67 -9.28 16.34 -12 16 C-12.125 9.25 -12.125 9.25 -11 7 C-8.03 7 -5.06 7 -2 7 C-1.34 4.69 -0.68 2.38 0 0 Z " fill="#4F8482" transform="translate(540,446)"/>
<path d="M0 0 C0.33 0 0.66 0 1 0 C1 2.64 1 5.28 1 8 C3.64 8 6.28 8 9 8 C9 19.22 9 30.44 9 42 C6.36 42 3.72 42 1 42 C1 44.64 1 47.28 1 50 C-15.5 50 -32 50 -49 50 C-49 49.67 -49 49.34 -49 49 C-32.83 49 -16.66 49 0 49 C0 46.36 0 43.72 0 41 C3.08809695 39.23537317 4.23312136 39 8 39 C7.94670532 37.9941687 7.94670532 37.9941687 7.89233398 36.96801758 C7.73428164 33.91647264 7.58579918 30.86453383 7.4375 27.8125 C7.35338867 26.22985352 7.35338867 26.22985352 7.26757812 24.61523438 C7.21923828 23.59365234 7.17089844 22.57207031 7.12109375 21.51953125 C7.0739624 20.58214111 7.02683105 19.64475098 6.97827148 18.67895508 C7.00010568 15.98697068 7.38413594 13.61483024 8 11 C6.6078125 11.061875 6.6078125 11.061875 5.1875 11.125 C2 11 2 11 -1 9 C-1 7.02 -1 5.04 -1 3 C-8.92 3 -16.84 3 -25 3 C-25 2.67 -25 2.34 -25 2 C-16.75 2 -8.5 2 0 2 C0 1.34 0 0.68 0 0 Z " fill="#753D8B" transform="translate(153,377)"/>
<path d="M0 0 C5.61 0 11.22 0 17 0 C17 0.33 17 0.66 17 1 C12.38 1.33 7.76 1.66 3 2 C1.9373982 18.42180999 1.88170804 34.79874063 1.9375 51.25 C1.94252924 53.85676997 1.94708961 56.46354088 1.95117188 59.0703125 C1.96205493 65.38023228 1.97923956 71.6901053 2 78 C8.93 78.33 15.86 78.66 23 79 C23 79.33 23 79.66 23 80 C15.41 80 7.82 80 0 80 C0 53.6 0 27.2 0 0 Z " fill="#D08EEB" transform="translate(73,379)"/>
<path d="M0 0 C12.54 0 25.08 0 38 0 C38 1.98 38 3.96 38 6 C40.64 6 43.28 6 46 6 C46 14.25 46 22.5 46 31 C43.36 31 40.72 31 38 31 C38 36.28 38 41.56 38 47 C40.64 47 43.28 47 46 47 C46 47.33 46 47.66 46 48 C44.52168779 48.19412181 43.04230684 48.38012131 41.5625 48.5625 C40.73878906 48.66691406 39.91507813 48.77132812 39.06640625 48.87890625 C38.04353516 48.93884766 38.04353516 48.93884766 37 49 C34.95774789 46.95774789 35.76944936 42.92084523 35.75 40.125 C35.729375 39.39152344 35.70875 38.65804687 35.6875 37.90234375 C35.66595214 34.9449002 35.658332 32.60142929 37.140625 29.9921875 C39 29 39 29 45 29 C44.67 22.4 44.34 15.8 44 9 C42.35 9.33 40.7 9.66 39 10 C36.70620251 6.55930376 36 5.27709699 36 1 C24.12 1 12.24 1 0 1 C0 0.67 0 0.34 0 0 Z " fill="#7E4197" transform="translate(627,379)"/>
<path d="M0 0 C27.06 0 54.12 0 82 0 C82 0.33 82 0.66 82 1 C64.15784255 1.93381657 46.36373613 2.12391528 28.5 2.0625 C25.91145921 2.05746709 23.32291746 2.0529074 20.734375 2.04882812 C14.48956172 2.03798254 8.24478562 2.0213909 2 2 C1.67 3.65 1.34 5.3 1 7 C0.67 7 0.34 7 0 7 C0 4.69 0 2.38 0 0 Z " fill="#C79AD9" transform="translate(550,496)"/>
<path d="M0 0 C0.33 0 0.66 0 1 0 C1.33 3.63 1.66 7.26 2 11 C0.02 11.33 -1.96 11.66 -4 12 C-4 24.54 -4 37.08 -4 50 C-4.66 50 -5.32 50 -6 50 C-6 48.02 -6 46.04 -6 44 C-6.66 44 -7.32 44 -8 44 C-8 32.12 -8 20.24 -8 8 C-5.36 8 -2.72 8 0 8 C0 5.36 0 2.72 0 0 Z " fill="#92739E" transform="translate(178,377)"/>
<path d="M0 0 C10.89 0 21.78 0 33 0 C33 0.66 33 1.32 33 2 C22.77 2 12.54 2 2 2 C2 14.54 2 27.08 2 40 C1.34 40 0.68 40 0 40 C0 26.8 0 13.6 0 0 Z " fill="#BD9ACA" transform="translate(434,496)"/>
<path d="M0 0 C1.32 0.33 2.64 0.66 4 1 C3.34 1.66 2.68 2.32 2 3 C1.83573796 5.8792382 1.79316914 8.66135787 1.83984375 11.5390625 C1.84540787 12.40474854 1.85097198 13.27043457 1.85670471 14.16235352 C1.86913386 16.02015309 1.88579897 17.87792816 1.90625 19.73565674 C1.95812539 24.53200254 1.97813671 29.32842353 1.99609375 34.125 C2.00003143 35.06751617 2.00396912 36.01003235 2.00802612 36.98110962 C2.03524999 47.67191178 1.61869107 58.32757904 1 69 C0.01 68.67 -0.98 68.34 -2 68 C-2 58.1 -2 48.2 -2 38 C-1.34 38 -0.68 38 0 38 C0 25.46 0 12.92 0 0 Z " fill="#9A73AA" transform="translate(436,498)"/>
<path d="M0 0 C0.66 0 1.32 0 2 0 C2 11.22 2 22.44 2 34 C-0.64 34 -3.28 34 -6 34 C-6 36.64 -6 39.28 -6 42 C-11.61 42 -17.22 42 -23 42 C-23 41.34 -23 40.68 -23 40 C-18.05 40 -13.1 40 -8 40 C-8 37.36 -8 34.72 -8 32 C-5.36 32 -2.72 32 0 32 C0 21.44 0 10.88 0 0 Z " fill="#DAAAED" transform="translate(426,403)"/>
<path d="M0 0 C0.66 0 1.32 0 2 0 C4.17119193 8.14608631 4.07318924 15.75282505 3.625 24.125 C3.56828125 25.36765625 3.5115625 26.6103125 3.453125 27.890625 C3.31295671 30.92760469 3.15799699 33.96389563 3 37 C7.95 37 12.9 37 18 37 C18 37.33 18 37.66 18 38 C12.06 38 6.12 38 0 38 C0 25.46 0 12.92 0 0 Z " fill="#D8ADE9" transform="translate(170,421)"/>
<path d="M0 0 C10.89 0 21.78 0 33 0 C33 0.66 33 1.32 33 2 C22.77 2 12.54 2 2 2 C2 9.92 2 17.84 2 26 C-0.97 26 -3.94 26 -7 26 C-7 25.67 -7 25.34 -7 25 C-4.69 25 -2.38 25 0 25 C0 16.75 0 8.5 0 0 Z " fill="#C6A3D5" transform="translate(327,377)"/>
<path d="M0 0 C10.89 0 21.78 0 33 0 C33 0.33 33 0.66 33 1 C22.77 1 12.54 1 2 1 C2 3.64 2 6.28 2 9 C-0.64 9 -3.28 9 -6 9 C-5.979375 10.299375 -5.95875 11.59875 -5.9375 12.9375 C-5.91600546 14.29165633 -5.92851801 15.64756083 -6 17 C-7 18 -7 18 -10.5625 18.0625 C-11.696875 18.041875 -12.83125 18.02125 -14 18 C-14 20.64 -14 23.28 -14 26 C-16.97 26 -19.94 26 -23 26 C-23 25.67 -23 25.34 -23 25 C-20.69 25 -18.38 25 -16 25 C-16 22.03 -16 19.06 -16 16 C-13.36 16 -10.72 16 -8 16 C-8 13.36 -8 10.72 -8 8 C-5.36 8 -2.72 8 0 8 C0 5.36 0 2.72 0 0 Z " fill="#D2B5DD" transform="translate(508,496)"/>
<path d="M0 0 C0.33 0 0.66 0 1 0 C1 11.22 1 22.44 1 34 C-9.89 34 -20.78 34 -32 34 C-32 33.67 -32 33.34 -32 33 C-29.27106533 32.82848447 -26.54196081 32.66275592 -23.8125 32.5 C-23.06291016 32.45230469 -22.31332031 32.40460938 -21.54101562 32.35546875 C-14.69221023 31.9542835 -7.8589547 31.95174941 -1 32 C-1.00785522 30.59923218 -1.00785522 30.59923218 -1.01586914 29.17016602 C-1.0328762 25.71687204 -1.04543302 22.26362233 -1.05493164 18.81030273 C-1.05997121 17.31355082 -1.06680287 15.81680384 -1.07543945 14.32006836 C-1.08752159 12.17300193 -1.09323191 10.02600038 -1.09765625 7.87890625 C-1.10551147 5.93866577 -1.10551147 5.93866577 -1.11352539 3.95922852 C-1 1 -1 1 0 0 Z " fill="#AD6FC6" transform="translate(202,426)"/>
<path d="M0 0 C1.98 0 3.96 0 6 0 C5.01 0.66 4.02 1.32 3 2 C0.37006954 14.30157219 1.88858863 28.35922702 1.9375 40.875 C1.94252593 43.12369692 1.9470869 45.37239493 1.95117188 47.62109375 C1.96208883 53.0807533 1.97873999 58.54037143 2 64 C1.01 64.495 1.01 64.495 0 65 C0 43.55 0 22.1 0 0 Z " fill="#8C619E" transform="translate(683,387)"/>
<path d="M0 0 C0.66 0.33 1.32 0.66 2 1 C2.02684312 3.81256281 2.04676188 6.62487241 2.0625 9.4375 C2.07087891 10.23994141 2.07925781 11.04238281 2.08789062 11.86914062 C2.0965143 13.91295221 2.0522815 15.95683902 2 18 C-0.53727633 20.53727633 -7.46486756 19.23433923 -10.875 19.25 C-11.99003906 19.270625 -13.10507812 19.29125 -14.25390625 19.3125 C-15.32253906 19.31765625 -16.39117188 19.3228125 -17.4921875 19.328125 C-18.96727783 19.34214355 -18.96727783 19.34214355 -20.47216797 19.35644531 C-23 19 -23 19 -26 16 C-17.42 16 -8.84 16 0 16 C0 10.72 0 5.44 0 0 Z " fill="#C783E2" transform="translate(608,513)"/>
<path d="M0 0 C0.66 0 1.32 0 2 0 C2.33 2.31 2.66 4.62 3 7 C4.01646606 6.94670532 4.01646606 6.94670532 5.0534668 6.89233398 C20.12431574 6.13123134 34.94296187 5.9610324 50 7 C50 7.66 50 8.32 50 9 C50.66 9 51.32 9 52 9 C52 14.61 52 20.22 52 26 C51.01 25.67 50.02 25.34 49 25 C49 19.39 49 13.78 49 8 C32.83 8 16.66 8 0 8 C0 5.36 0 2.72 0 0 Z " fill="#B670D2" transform="translate(822,418)"/>
<path d="M0 0 C0.99 0.33 1.98 0.66 3 1 C3.8679851 6.20107605 4.12463484 11.17143465 4.0625 16.4375 C4.041875 18.933125 4.02125 21.42875 4 24 C9.61 24 15.22 24 21 24 C21 24.33 21 24.66 21 25 C14.07 25 7.14 25 0 25 C0 16.75 0 8.5 0 0 Z " fill="#C883E4" transform="translate(327,434)"/>
<path d="M0 0 C1.98 0 3.96 0 6 0 C6 10.23 6 20.46 6 31 C-4.89 31 -15.78 31 -27 31 C-27 30.67 -27 30.34 -27 30 C-11.655 29.505 -11.655 29.505 4 29 C4 19.76 4 10.52 4 1 C2.68 0.67 1.36 0.34 0 0 Z " fill="#8944A5" transform="translate(667,429)"/>
<path d="M0 0 C0.33 0 0.66 0 1 0 C1 10.23 1 20.46 1 31 C-1.97 31 -4.94 31 -8 31 C-8 33.64 -8 36.28 -8 39 C-17.57 39 -27.14 39 -37 39 C-37 38.67 -37 38.34 -37 38 C-28.09 37.67 -19.18 37.34 -10 37 C-9.67 34.69 -9.34 32.38 -9 30 C-6.04335481 28.5216774 -3.25770263 28.93967217 0 29 C-0.17402344 27.73285156 -0.34804688 26.46570313 -0.52734375 25.16015625 C-1.1155234 19.86653938 -0.90106085 14.74161994 -0.5625 9.4375 C-0.48418945 8.06754883 -0.48418945 8.06754883 -0.40429688 6.66992188 C-0.27622505 4.44612919 -0.14136041 2.22298064 0 0 Z " fill="#934DB0" transform="translate(425,539)"/>
<path d="M0 0 C0 1.98 0 3.96 0 6 C-1.32 6.33 -2.64 6.66 -4 7 C-4 4.36 -4 1.72 -4 -1 C-6.64 -1 -9.28 -1 -12 -1 C-12.33 12.2 -12.66 25.4 -13 39 C-16.63 39 -20.26 39 -24 39 C-24 38.67 -24 38.34 -24 38 C-20.7 38 -17.4 38 -14 38 C-14.00523682 36.85934082 -14.01047363 35.71868164 -14.01586914 34.54345703 C-14.03393869 30.32048321 -14.04543919 26.09751282 -14.05493164 21.87451172 C-14.05996737 20.04507879 -14.06679627 18.21564991 -14.07543945 16.38623047 C-14.08753824 13.76008102 -14.09323583 11.13398468 -14.09765625 8.5078125 C-14.10281754 7.68693146 -14.10797882 6.86605042 -14.11329651 6.02029419 C-14.11387171 0.22774341 -14.11387171 0.22774341 -13 -2 C-7.64395089 -3.65782473 -4.78866769 -2.39433385 0 0 Z " fill="#B771D4" transform="translate(479,538)"/>
<path d="M0 0 C0.33 1.32 0.66 2.64 1 4 C3.64 4.33 6.28 4.66 9 5 C8.34 7.97 7.68 10.94 7 14 C3.625 14.125 3.625 14.125 0 14 C-2 12 -2 12 -2.1953125 9.8359375 C-2.17210937 9.02382813 -2.14890625 8.21171875 -2.125 7.375 C-2.10695313 6.55773437 -2.08890625 5.74046875 -2.0703125 4.8984375 C-2.04710937 4.27195312 -2.02390625 3.64546875 -2 3 C-1.34 3 -0.68 3 0 3 C0 2.01 0 1.02 0 0 Z " fill="#60967A" transform="translate(527,458)"/>
<path d="M0 0 C10.89 0 21.78 0 33 0 C33 0.66 33 1.32 33 2 C22.77 2 12.54 2 2 2 C2 6.29 2 10.58 2 15 C1.34 14.67 0.68 14.34 0 14 C0 9.38 0 4.76 0 0 Z " fill="#B493C2" transform="translate(269,377)"/>
<path d="M0 0 C3.3 0.66 6.6 1.32 10 2 C9.67 4.97 9.34 7.94 9 11 C2.375 11.25 2.375 11.25 -1 9 C-0.67 6.03 -0.34 3.06 0 0 Z " fill="#84BF59" transform="translate(523,394)"/>
<path d="M0 0 C2.97 0 5.94 0 9 0 C9 1.98 9 3.96 9 6 C11.64 6 14.28 6 17 6 C17 16.89 17 27.78 17 39 C14.36 39 11.72 39 9 39 C9 41.64 9 44.28 9 47 C8.67 47 8.34 47 8 47 C8 44.03 8 41.06 8 38 C10.64 38 13.28 38 16 38 C15.67 28.76 15.34 19.52 15 10 C13.02 9.34 11.04 8.68 9 8 C7.625 4.875 7.625 4.875 7 2 C5.02 2 3.04 2 1 2 C0.67 1.34 0.34 0.68 0 0 Z " fill="#9653B2" transform="translate(887,412)"/>
<path d="M0 0 C3.12290635 0.48578543 5.99580359 0.9986012 9 2 C8.67 4.97 8.34 7.94 8 11 C3.545 10.01 3.545 10.01 -1 9 C-0.67 6.03 -0.34 3.06 0 0 Z " fill="#83BE57" transform="translate(533,435)"/>
<path d="M0 0 C0.33 0.66 0.66 1.32 1 2 C2.88764903 2.68472665 2.88764903 2.68472665 5.0625 3.125 C5.79597656 3.29257812 6.52945312 3.46015625 7.28515625 3.6328125 C7.85105469 3.75398438 8.41695313 3.87515625 9 4 C8.67 6.64 8.34 9.28 8 12 C1.84765625 12.09765625 1.84765625 12.09765625 0 12 C-1 11 -1 11 -1.125 7.6875 C-1.02893262 4.85351237 -0.85249568 2.66404901 0 0 Z " fill="#B0DF5C" transform="translate(493,404)"/>
<path d="M0 0 C0.33 0.99 0.66 1.98 1 3 C3.64 3.33 6.28 3.66 9 4 C8.34 6.97 7.68 9.94 7 13 C0.84765625 12.4140625 0.84765625 12.4140625 -1 12 C-2.3609623 9.2780754 -1.70366248 7.8168043 -1.0625 4.875 C-0.86785156 3.96492188 -0.67320312 3.05484375 -0.47265625 2.1171875 C-0.31667969 1.41851562 -0.16070312 0.71984375 0 0 Z " fill="#558F43" transform="translate(511,446)"/>
<path d="M0 0 C4.12494151 -0.05784708 8.24977944 -0.09354407 12.375 -0.125 C13.550625 -0.14175781 14.72625 -0.15851563 15.9375 -0.17578125 C17.61972656 -0.18544922 17.61972656 -0.18544922 19.3359375 -0.1953125 C20.37282715 -0.20578613 21.4097168 -0.21625977 22.47802734 -0.22705078 C25 0 25 0 27 2 C27.14517744 4.9093558 27.18630796 7.719946 27.125 10.625 C27.11597656 11.42679687 27.10695313 12.22859375 27.09765625 13.0546875 C27.07406223 15.03658523 27.03819065 17.01832981 27 19 C26.01 18.67 25.02 18.34 24 18 C24 12.72 24 7.44 24 2 C16.08 2 8.16 2 0 2 C0 1.34 0 0.68 0 0 Z " fill="#995BB2" transform="translate(616,392)"/>
<path d="M0 0 C4.95 0.99 4.95 0.99 10 2 C11.07349791 6.29399165 10.79682816 7.19495213 9 11 C6.125 11.125 6.125 11.125 3 11 C2.34 10.34 1.68 9.68 1 9 C1.03287583 6.27130593 1.56397771 3.7033382 2 1 C1.34 0.67 0.68 0.34 0 0 Z " fill="#70AA4A" transform="translate(529,443)"/>
<path d="M0 0 C4.455 0.99 4.455 0.99 9 2 C8.34 4.97 7.68 7.94 7 11 C2.545 10.01 2.545 10.01 -2 9 C-1.125 2.25 -1.125 2.25 0 0 Z " fill="#86C159" transform="translate(500,417)"/>
<path d="M0 0 C2.64 0.33 5.28 0.66 8 1 C9.15837626 5.05431692 8.83691257 7.21812119 7 11 C4.36 10.34 1.72 9.68 -1 9 C-1.125 2.25 -1.125 2.25 0 0 Z " fill="#558F42" transform="translate(531,406)"/>
<path d="M0 0 C4.455 0.99 4.455 0.99 9 2 C8.67 4.97 8.34 7.94 8 11 C1.25 10.125 1.25 10.125 -1 9 C-0.67 6.03 -0.34 3.06 0 0 Z " fill="#C6F7D4" transform="translate(495,397)"/>
<path d="M0 0 C2.97 0.33 5.94 0.66 9 1 C8.67 3.97 8.34 6.94 8 10 C1.25 9.125 1.25 9.125 -1 8 C-0.67 5.36 -0.34 2.72 0 0 Z " fill="#C6F7D4" transform="translate(506,391)"/>
<path d="M0 0 C2.97 0 5.94 0 9 0 C9.17942163 3.94727588 9.09350689 6.5980513 7 10 C4.36 9.34 1.72 8.68 -1 8 C-0.67 5.36 -0.34 2.72 0 0 Z " fill="#82BC57" transform="translate(504,438)"/>
<path d="M0 0 C7.75 0.75 7.75 0.75 10 3 C9.65481673 5.77260114 8.78179976 8.30713416 8 11 C3.545 10.01 3.545 10.01 -1 9 C-0.67 6.03 -0.34 3.06 0 0 Z " fill="#579143" transform="translate(497,426)"/>
<path d="M0 0 C3.96 0.99 3.96 0.99 8 2 C7.67 4.97 7.34 7.94 7 11 C3.87709365 10.51421457 1.00419641 10.0013988 -2 9 C-1.34 6.03 -0.68 3.06 0 0 Z " fill="#6DA84A" transform="translate(538,455)"/>
<path d="M0 0 C2.64 0 5.28 0 8 0 C8 0.33 8 0.66 8 1 C6.02 1.66 4.04 2.32 2 3 C2 11.91 2 20.82 2 30 C3.98 30 5.96 30 8 30 C9.4783226 32.95664519 9.06032783 35.74229737 9 39 C8.01 39 7.02 39 6 39 C6 36.36 6 33.72 6 31 C4.02 31 2.04 31 0 31 C0 20.77 0 10.54 0 0 Z " fill="#C77DE4" transform="translate(337,506)"/>
<path d="M0 0 C4.455 0.99 4.455 0.99 9 2 C8.67 4.64 8.34 7.28 8 10 C5.03 9.67 2.06 9.34 -1 9 C-1.125 2.25 -1.125 2.25 0 0 Z " fill="#93CC68" transform="translate(522,442)"/>
<path d="M0 0 C0.33 0 0.66 0 1 0 C1.01030746 0.72805344 1.02061493 1.45610687 1.03123474 2.20622253 C1.1293305 9.07717937 1.23186183 15.94805734 1.33933926 22.81887341 C1.39443507 26.35097936 1.44783313 29.88309378 1.49731445 33.4152832 C1.55431367 37.47876668 1.61876325 41.54210262 1.68359375 45.60546875 C1.70030624 46.8702153 1.71701874 48.13496185 1.73423767 49.43803406 C1.75418289 50.61888077 1.77412811 51.79972748 1.79467773 53.01635742 C1.81022202 54.05338303 1.8257663 55.09040863 1.84178162 56.15885925 C1.99258428 58.86683529 2.462962 61.34817106 3 64 C2.5625 66.3125 2.5625 66.3125 2 68 C1.67 68 1.34 68 1 68 C0.09846054 64.15340746 -0.12143479 60.59596165 -0.11352539 56.64916992 C-0.11344986 55.3882402 -0.11337433 54.12731049 -0.11329651 52.82817078 C-0.10819069 51.46226969 -0.1029747 50.09636902 -0.09765625 48.73046875 C-0.0957897 47.32513988 -0.09436692 45.91981035 -0.09336853 44.51448059 C-0.089562 40.82705875 -0.07974774 37.1396767 -0.06866455 33.45227051 C-0.05841025 29.68498269 -0.05386232 25.9176884 -0.04882812 22.15039062 C-0.0381237 14.766909 -0.0210698 7.38346009 0 0 Z " fill="#9B80A4" transform="translate(550,503)"/>
<path d="M0 0 C4.47181535 4.47181535 4.10372052 12.07835614 4.13623047 18.0637207 C4.11999688 21.04328917 4.07148931 24.02127861 4 27 C2.68 27 1.36 27 0 27 C0 18.09 0 9.18 0 0 Z " fill="#9E82A8" transform="translate(368,432)"/>
<path d="M0 0 C5.28 0 10.56 0 16 0 C15.67 0.66 15.34 1.32 15 2 C13.948125 1.979375 12.89625 1.95875 11.8125 1.9375 C7.77343861 1.88929767 7.77343861 1.88929767 3 3 C2.67 10.92 2.34 18.84 2 27 C1.34 27 0.68 27 0 27 C0 18.09 0 9.18 0 0 Z " fill="#2A0737" transform="translate(401,394)"/>
<path d="M0 0 C12.54 0 25.08 0 38 0 C38 1.98 38 3.96 38 6 C40.64 6 43.28 6 46 6 C46 6.99 46 7.98 46 9 C43.69 9.33 41.38 9.66 39 10 C36.70620251 6.55930376 36 5.27709699 36 1 C24.12 1 12.24 1 0 1 C0 0.67 0 0.34 0 0 Z " fill="#8D53A4" transform="translate(627,379)"/>
<path d="M0 0 C0.33 0 0.66 0 1 0 C1.01030746 0.57771652 1.02061493 1.15543304 1.03123474 1.75065613 C1.13950252 7.7691839 1.25408372 13.78756808 1.37231445 19.8059082 C1.41559833 22.05132032 1.45727801 24.29676396 1.49731445 26.54223633 C1.55517557 29.77174373 1.61882451 33.00109341 1.68359375 36.23046875 C1.70030624 37.23272995 1.71701874 38.23499115 1.73423767 39.2676239 C1.75418289 40.20822159 1.77412811 41.14881927 1.79467773 42.11791992 C1.81022202 42.94176682 1.8257663 43.76561371 1.84178162 44.61442566 C1.94941907 47.05607891 1.94941907 47.05607891 2.54017639 49.62934875 C3.07166664 52.36948215 2.68957388 54.31832379 2 57 C0.09299476 53.77421353 -0.24479238 51.4064004 -0.22705078 47.68066406 C-0.22689972 46.61986633 -0.22674866 45.5590686 -0.22659302 44.46612549 C-0.21627045 43.32746033 -0.20594788 42.18879517 -0.1953125 41.015625 C-0.1924826 39.84489441 -0.18965271 38.67416382 -0.18673706 37.46795654 C-0.17554156 33.72853375 -0.15043776 29.98935041 -0.125 26.25 C-0.1149694 23.71484721 -0.10584369 21.17969066 -0.09765625 18.64453125 C-0.07560426 12.42960579 -0.04213275 6.21482 0 0 Z " fill="#91719E" transform="translate(270,392)"/>
<path d="M0 0 C5.61 0 11.22 0 17 0 C17 0.33 17 0.66 17 1 C12.38 1.33 7.76 1.66 3 2 C2.83178679 5.22909286 2.66537277 8.45826148 2.5 11.6875 C2.45230469 12.59951172 2.40460938 13.51152344 2.35546875 14.45117188 C2.31035156 15.33740234 2.26523438 16.22363281 2.21875 17.13671875 C2.17685547 17.94842529 2.13496094 18.76013184 2.09179688 19.59643555 C1.99745221 22.06671004 1.98461121 24.52817489 2 27 C1.34 27 0.68 27 0 27 C0 18.09 0 9.18 0 0 Z " fill="#C275E1" transform="translate(73,379)"/>
<path d="M0 0 C0.99 0 1.98 0 3 0 C2.67 8.91 2.34 17.82 2 27 C1.34 27 0.68 27 0 27 C0 18.09 0 9.18 0 0 Z " fill="#37303A" transform="translate(170,460)"/>
<path d="M0 0 C5.28 0 10.56 0 16 0 C16 0.66 16 1.32 16 2 C11.38 2 6.76 2 2 2 C2.020625 3.546875 2.04125 5.09375 2.0625 6.6875 C2.06756984 10.26173735 1.92679644 13.52451334 1 17 C0.67 17 0.34 17 0 17 C0 11.39 0 5.78 0 0 Z " fill="#A98DB4" transform="translate(368,377)"/>
<path d="M0 0 C0.99 0 1.98 0 3 0 C2.67 8.91 2.34 17.82 2 27 C1.34 27 0.68 27 0 27 C0 18.09 0 9.18 0 0 Z " fill="#37303B" transform="translate(71,460)"/>
<path d="M0 0 C0.33 0 0.66 0 1 0 C1 7.92 1 15.84 1 24 C1.66 24 2.32 24 3 24 C2.84152588 24.72469482 2.68305176 25.44938965 2.51977539 26.19604492 C2.03901777 28.78951662 1.80242678 31.2319784 1.68359375 33.86328125 C1.64169922 34.74951172 1.59980469 35.63574219 1.55664062 36.54882812 C1.51732422 37.46083984 1.47800781 38.37285156 1.4375 39.3125 C1.39431641 40.24384766 1.35113281 41.17519531 1.30664062 42.13476562 C1.20102775 44.42304454 1.09892248 46.71142372 1 49 C0.67 49 0.34 49 0 49 C0 32.83 0 16.66 0 0 Z " fill="#0C0217" transform="translate(459,394)"/>
<path d="M0 0 C2.64 0 5.28 0 8 0 C7.67 0.66 7.34 1.32 7 2 C4.4375 2.625 4.4375 2.625 2 3 C1.67 4.98 1.34 6.96 1 9 C0.67 9 0.34 9 0 9 C0 6.03 0 3.06 0 0 Z M-30 9 C-20.1 9 -10.2 9 0 9 C0 9.33 0 9.66 0 10 C-9.9 10 -19.8 10 -30 10 C-30 9.67 -30 9.34 -30 9 Z " fill="#290B35" transform="translate(418,570)"/>
<path d="M0 0 C0.33 0 0.66 0 1 0 C1.66 9.57 2.32 19.14 3 29 C4.32 29.33 5.64 29.66 7 30 C7 30.33 7 30.66 7 31 C4.69 31 2.38 31 0 31 C0 20.77 0 10.54 0 0 Z " fill="#BC81D4" transform="translate(815,387)"/>
<path d="M0 0 C0.99 0.33 1.98 0.66 3 1 C3.33 3.97 3.66 6.94 4 10 C6.97 10.495 6.97 10.495 10 11 C10 11.33 10 11.66 10 12 C6.7 12 3.4 12 0 12 C0 8.04 0 4.08 0 0 Z " fill="#AB8BB9" transform="translate(434,566)"/>
<path d="M0 0 C2.19470368 3.95046662 3 7.48763697 3 12 C3.66 12.66 4.32 13.32 5 14 C3.02 14 1.04 14 -1 14 C-1.02694851 12.04174127 -1.04637218 10.08337774 -1.0625 8.125 C-1.07410156 7.03445313 -1.08570313 5.94390625 -1.09765625 4.8203125 C-1 2 -1 2 0 0 Z " fill="#A889B4" transform="translate(270,445)"/>
<path d="M0 0 C2.64 0 5.28 0 8 0 C8.33 0.66 8.66 1.32 9 2 C6.69 2 4.38 2 2 2 C2 4.64 2 7.28 2 10 C-0.97 10 -3.94 10 -7 10 C-7 9.67 -7 9.34 -7 9 C-4.69 9 -2.38 9 0 9 C0 6.03 0 3.06 0 0 Z " fill="#D0A3E3" transform="translate(492,512)"/>
<path d="M0 0 C0.66 0 1.32 0 2 0 C2.39180108 1.57925975 2.76280736 3.16368794 3.125 4.75 C3.33382812 5.63171875 3.54265625 6.5134375 3.7578125 7.421875 C4.03088304 10.32875493 3.53508028 11.56661348 2 14 C1.34 14 0.68 14 0 14 C0 9.38 0 4.76 0 0 Z " fill="#BA9AC8" transform="translate(170,421)"/>
<path d="M0 0 C0.66 0 1.32 0 2 0 C2.33 2.31 2.66 4.62 3 7 C6.96 7 10.92 7 15 7 C15 7.33 15 7.66 15 8 C10.05 8 5.1 8 0 8 C0 5.36 0 2.72 0 0 Z " fill="#D193E9" transform="translate(822,418)"/>
<path d="M0 0 C0.99 0 1.98 0 3 0 C2.67 4.95 2.34 9.9 2 15 C1.34 15 0.68 15 0 15 C0 10.05 0 5.1 0 0 Z " fill="#392B40" transform="translate(343,546)"/>
<path d="M0 0 C0.99 0 1.98 0 3 0 C4 3 4 3 3 6 C3.99 6 4.98 6 6 6 C6 4.02 6 2.04 6 0 C6.33 0 6.66 0 7 0 C7 2.31 7 4.62 7 7 C4.69 7 2.38 7 0 7 C0 4.69 0 2.38 0 0 Z " fill="#C47BE1" transform="translate(484,546)"/>
<path d="M0 0 C0.33 0 0.66 0 1 0 C1 1.65 1 3.3 1 5 C1.66 5 2.32 5 3 5 C3 6.98 3 8.96 3 11 C4.65 11 6.3 11 8 11 C8 11.33 8 11.66 8 12 C5.36 12 2.72 12 0 12 C0 8.04 0 4.08 0 0 Z " fill="#AE8BBD" transform="translate(550,566)"/>
<path d="M0 0 C2.64 0 5.28 0 8 0 C9.4783226 2.95664519 9.06032783 5.74229737 9 9 C8.01 9 7.02 9 6 9 C6 6.36 6 3.72 6 1 C4.02 1 2.04 1 0 1 C0 0.67 0 0.34 0 0 Z " fill="#CA96DE" transform="translate(337,536)"/>
<path d="M0 0 C0.99 0.33 1.98 0.66 3 1 C3 2.98 3 4.96 3 7 C2.01 7.33 1.02 7.66 0 8 C0 5.36 0 2.72 0 0 Z " fill="#C984E6" transform="translate(476,537)"/>
<path d="M0 0 C3.63 0 7.26 0 11 0 C11 0.33 11 0.66 11 1 C8.36 1.33 5.72 1.66 3 2 C2.34 3.65 1.68 5.3 1 7 C0.67 7 0.34 7 0 7 C0 4.69 0 2.38 0 0 Z " fill="#BE6DE0" transform="translate(585,379)"/>
<path d="M0 0 C2 3 2 3 2 5 C4.64 5 7.28 5 10 5 C10 5.33 10 5.66 10 6 C8.52168779 6.19412181 7.04230684 6.38012131 5.5625 6.5625 C4.73878906 6.66691406 3.91507813 6.77132813 3.06640625 6.87890625 C2.38449219 6.91886719 1.70257812 6.95882813 1 7 C0 6 0 6 -0.0625 2.9375 C-0.041875 1.968125 -0.02125 0.99875 0 0 Z " fill="#83489A" transform="translate(663,421)"/>
<path d="M0 0 C0.66 0 1.32 0 2 0 C2.79953138 3.28696233 3.09658936 4.71023192 2 8 C1.34 8 0.68 8 0 8 C0 5.36 0 2.72 0 0 Z " fill="#C886E6" transform="translate(311,418)"/>
<path d="M0 0 C2.97 0 5.94 0 9 0 C7.515 1.485 7.515 1.485 6 3 C4.02 2.34 2.04 1.68 0 1 C0 0.67 0 0.34 0 0 Z " fill="#A476B7" transform="translate(450,394)"/>
</svg>
