<?xml version="1.0" encoding="UTF-8"?>
<svg version="1.1" xmlns="http://www.w3.org/2000/svg" width="200" height="200">
<path d="M0 0 C0.6528504 -0.00367669 1.3057008 -0.00735338 1.97833455 -0.01114148 C4.15216 -0.02209916 6.32593754 -0.02600851 8.49978638 -0.02983093 C10.06402739 -0.03610136 11.62826694 -0.04274867 13.19250488 -0.04974365 C18.31591773 -0.07071015 23.43933065 -0.08113621 28.56277466 -0.09111023 C30.3301711 -0.09515997 32.0975674 -0.09927696 33.86496353 -0.10346031 C42.16659312 -0.12249238 50.46821391 -0.13672992 58.7698611 -0.14507228 C68.34065091 -0.15485026 77.91120979 -0.18119267 87.48191822 -0.22157317 C94.88932357 -0.25175064 102.29666276 -0.26654253 109.70412838 -0.26985329 C114.12428694 -0.27220104 118.5441982 -0.28112637 122.96429062 -0.30631447 C127.12256578 -0.32963022 131.28043139 -0.3338145 135.43875504 -0.32355309 C136.96089289 -0.32305854 138.48305116 -0.32935512 140.00512695 -0.34310913 C149.87376262 -0.4272661 155.94903073 0.60780007 164.25808716 6.14717102 C164.25808716 6.80717102 164.25808716 7.46717102 164.25808716 8.14717102 C166.56808716 8.47717102 168.87808716 8.80717102 171.25808716 9.14717102 C171.25808716 8.15717102 171.25808716 7.16717102 171.25808716 6.14717102 C177.19808716 7.63217102 177.19808716 7.63217102 183.25808716 9.14717102 C183.91808716 7.49717102 184.57808716 5.84717102 185.25808716 4.14717102 C190.9220785 0.54281289 196.65007444 0.03110383 203.23399353 -0.01345825 C204.9938282 -0.02852669 204.9938282 -0.02852669 206.78921509 -0.04389954 C208.69930359 -0.05264603 208.69930359 -0.05264603 210.64797974 -0.06156921 C212.01355726 -0.07111847 213.37913243 -0.08101009 214.7447052 -0.09121704 C219.21398085 -0.12246801 223.68327439 -0.14284861 228.15261841 -0.16142273 C228.91470415 -0.16472005 229.67678989 -0.16801737 230.46196914 -0.17141461 C237.656551 -0.20218065 244.85113735 -0.22886891 252.04576588 -0.2458334 C261.22620098 -0.26774072 270.40605151 -0.30974254 279.58625299 -0.37927097 C286.05439825 -0.42658621 292.52238615 -0.45077655 298.99069899 -0.45803028 C302.84824236 -0.4629735 306.70512501 -0.47792695 310.56247902 -0.51777458 C314.19317157 -0.55479085 317.82283003 -0.56300281 321.45367622 -0.54976845 C323.40934663 -0.5498476 325.36494663 -0.57959818 327.32037354 -0.61045837 C335.15936892 -0.5461564 340.43532945 0.69245292 346.25808716 6.14717102 C349.16686626 10.37799512 349.66274356 13.86782765 349.80496216 18.94404602 C349.8449231 20.23310852 349.88488403 21.52217102 349.92605591 22.85029602 C349.93942993 23.5160968 349.95280396 24.18189758 349.96658325 24.86787415 C350.00770336 26.87840551 350.07049151 28.88733575 350.13699341 30.89717102 C350.69392686 51.60684467 350.69392686 51.60684467 343.25808716 60.14717102 C342.55941528 61.07142883 341.86074341 61.99568665 341.14089966 62.94795227 C340.39582153 63.92119446 339.65074341 64.89443665 338.88308716 65.89717102 C337.8505481 67.25068665 337.8505481 67.25068665 336.79714966 68.63154602 C331.45877447 73.9206439 326.07922544 75.60414742 318.6474762 75.5748291 C317.71202469 75.55100662 316.77657318 75.52718414 315.81277466 75.50263977 C314.8162941 75.49424576 313.81981354 75.48585175 312.7931366 75.47720337 C310.66863287 75.45744165 308.54419624 75.42874627 306.41992188 75.39179993 C300.90670996 75.29597407 295.39301965 75.2631931 289.87918091 75.22138977 C288.79260696 75.21126862 287.70603302 75.20114746 286.58653259 75.1907196 C277.44449939 75.11577109 268.33019886 75.29364316 259.19558716 75.64717102 C257.95599243 75.69510803 256.71639771 75.74304504 255.4392395 75.79243469 C252.71178505 75.90343806 249.98485199 76.02051709 247.25808716 76.14717102 C246.92035278 77.05080383 246.58261841 77.95443665 246.23464966 78.88545227 C245.78863403 80.06494446 245.34261841 81.24443665 244.88308716 82.45967102 C244.2217981 84.21730774 244.2217981 84.21730774 243.54714966 86.01045227 C242.25808716 89.14717102 242.25808716 89.14717102 240.25808716 92.14717102 C239.59808716 92.14717102 238.93808716 92.14717102 238.25808716 92.14717102 C238.25808716 92.80717102 238.25808716 93.46717102 238.25808716 94.14717102 C236.92475382 95.48050435 235.59142049 96.81383769 234.25808716 98.14717102 C233.63933716 99.13717102 233.02058716 100.12717102 232.38308716 101.14717102 C227.12875218 108.56505569 219.71059319 109.49178408 211.25808716 111.14717102 C211.06666138 112.05596008 211.06666138 112.05596008 210.87136841 112.98310852 C209.84134031 116.61772995 207.62491665 119.30912281 204.41228294 121.27889442 C201.98419803 122.25756559 200.21607835 122.4037466 197.60345459 122.41459656 C196.20725639 122.42739151 196.20725639 122.42739151 194.78285217 122.44044495 C193.26166527 122.43908539 193.26166527 122.43908539 191.70974731 122.43769836 C190.63615463 122.44441559 189.56256195 122.45113281 188.45643616 122.45805359 C184.90329373 122.47706952 181.35033982 122.4809596 177.79714966 122.48310852 C175.32859214 122.48953382 172.86003539 122.49626198 170.39147949 122.50328064 C165.21483596 122.51526233 160.03825921 122.51896053 154.86160278 122.51777649 C148.22803712 122.51757323 141.59489951 122.54487953 134.96143532 122.57932091 C129.86220329 122.60155692 124.76307483 122.60561504 119.66379929 122.60455704 C117.21816914 122.6069178 114.77253635 122.61576795 112.32695389 122.63122177 C108.90606953 122.65081462 105.48611537 122.64506929 102.06521606 122.63301086 C101.05513992 122.64424988 100.04506378 122.65548889 99.00437927 122.66706848 C93.10895677 122.61425501 89.7369754 122.0913849 85.25808716 118.14717102 C81.52027063 112.54044623 80.96349135 106.8399996 81.06277466 100.24482727 C81.06560455 99.52226242 81.06843445 98.79969757 81.0713501 98.05523682 C81.0824433 95.77320486 81.10752628 93.49158205 81.13308716 91.20967102 C81.14313105 89.65173403 81.15225442 88.09379081 81.16043091 86.5358429 C81.18234683 82.73946403 81.21679978 78.94338662 81.25808716 75.14717102 C80.26996033 75.16049469 80.26996033 75.16049469 79.26187134 75.17408752 C72.38341988 75.2628274 65.50513201 75.32301598 58.62625122 75.36689758 C56.06173086 75.38696831 53.49725601 75.41423103 50.93289185 75.44892883 C47.23909245 75.49764457 43.54590007 75.52018615 39.85183716 75.53779602 C38.14199646 75.56876373 38.14199646 75.56876373 36.39761353 75.60035706 C29.44711346 75.60230049 25.27521447 74.59372315 19.25808716 71.14717102 C16.52911549 71.63871185 16.52911549 71.63871185 14.25808716 73.14717102 C8.89757225 75.60606604 4.12847212 75.47876334 -1.67941284 75.45967102 C-3.14411011 75.48384094 -3.14411011 75.48384094 -4.63839722 75.50849915 C-10.88086704 75.51273133 -15.36969998 74.97425368 -20.32467651 70.82026672 C-26.16553504 63.92493451 -24.04339958 49.39123179 -24.00265503 40.83174133 C-23.99193537 38.15280016 -24.00259825 35.47452936 -24.01535034 32.79560852 C-24.03472412 10.38873179 -24.03472412 10.38873179 -19.92941284 4.58467102 C-13.75028525 0.52410146 -7.25332211 0.02663027 0 0 Z M183.25808716 11.14717102 C184.25808716 13.14717102 184.25808716 13.14717102 184.25808716 13.14717102 Z " fill="#010102" transform="translate(36.741912841796875,138.8528289794922)"/>
<path d="M0 0 C1.6266848 0.28211877 3.25132896 0.57602375 4.875 0.875 C5.77992188 1.03742188 6.68484375 1.19984375 7.6171875 1.3671875 C10 2 10 2 12 4 C12 5.32 12 6.64 12 8 C14.97 8.495 14.97 8.495 18 9 C18 9.99 18 10.98 18 12 C19.43750191 13.68798827 19.43750191 13.68798827 21 15 C20.67 15.66 20.34 16.32 20 17 C21.485 17.495 21.485 17.495 23 18 C22.67 20.64 22.34 23.28 22 26 C22.66 26 23.32 26 24 26 C24 19.4 24 12.8 24 6 C35.22 6 46.44 6 58 6 C58 6.99 58 7.98 58 9 C58.99 9 59.98 9 61 9 C61 12.3 61 15.6 61 19 C60.01 19 59.02 19 58 19 C58 20.98 58 22.96 58 25 C58.99 25 59.98 25 61 25 C61 29.62 61 34.24 61 39 C56.71 39 52.42 39 48 39 C48 34.71 48 30.42 48 26 C44.7 26 41.4 26 38 26 C38 30.29 38 34.58 38 39 C33.38 39 28.76 39 24 39 C23.67 38.01 23.34 37.02 23 36 C22.01 36.495 22.01 36.495 21 37 C19.32345271 36.72057545 17.65391846 36.39171753 16 36 C15.01 38.97 15.01 38.97 14 42 C12.35 42 10.7 42 9 42 C9 42.99 9 43.98 9 45 C6.36 44.67 3.72 44.34 1 44 C1 44.66 1 45.32 1 46 C-6.75 45.125 -6.75 45.125 -9 44 C-9.33 43.01 -9.66 42.02 -10 41 C-13.00847418 39.77479736 -13.00847418 39.77479736 -16 39 C-15.67 37.68 -15.34 36.36 -15 35 C-17.31 34.67 -19.62 34.34 -22 34 C-21.67 31.36 -21.34 28.72 -21 26 C-21.99 26 -22.98 26 -24 26 C-24 27.98 -24 29.96 -24 32 C-25.32 32 -26.64 32 -28 32 C-28 32.99 -28 33.98 -28 35 C-28.99 35 -29.98 35 -31 35 C-31 36.32 -31 37.64 -31 39 C-40.9 39 -50.8 39 -61 39 C-61 28.11 -61 17.22 -61 6 C-51.1 6 -41.2 6 -31 6 C-31 6.99 -31 7.98 -31 9 C-30.01 9 -29.02 9 -28 9 C-28 9.99 -28 10.98 -28 12 C-26.68 12 -25.36 12 -24 12 C-23.505 15.96 -23.505 15.96 -23 20 C-22.67 18.35 -22.34 16.7 -22 15 C-20.68 15 -19.36 15 -18 15 C-17.34 12.69 -16.68 10.38 -16 8 C-15.01 8 -14.02 8 -13 8 C-12.67 7.34 -12.34 6.68 -12 6 C-10.68 6 -9.36 6 -8 6 C-7.67 5.01 -7.34 4.02 -7 3 C-4.69 3 -2.38 3 0 3 C0 2.01 0 1.02 0 0 Z " fill="#629A68" transform="translate(208,145)"/>
<path d="M0 0 C9.9 0 19.8 0 30 0 C30 0.99 30 1.98 30 3 C30.99 3 31.98 3 33 3 C33 3.99 33 4.98 33 6 C33.99 6 34.98 6 36 6 C36 12.6 36 19.2 36 26 C35.01 26 34.02 26 33 26 C33 26.99 33 27.98 33 29 C32.01 29 31.02 29 30 29 C30 30.32 30 31.64 30 33 C20.1 33 10.2 33 0 33 C0 22.11 0 11.22 0 0 Z " fill="#A85DC7" transform="translate(147,151)"/>
<path d="M0 0 C4.29 0 8.58 0 13 0 C13 0.99 13 1.98 13 3 C13.99 3 14.98 3 16 3 C16 4.32 16 5.64 16 7 C17.32 7 18.64 7 20 7 C20 7.99 20 8.98 20 10 C20.99 10 21.98 10 23 10 C23 9.01 23 8.02 23 7 C23.99 7 24.98 7 26 7 C26 5.68 26 4.36 26 3 C26.99 3 27.98 3 29 3 C29 2.01 29 1.02 29 0 C33.62 0 38.24 0 43 0 C43 10.89 43 21.78 43 33 C38.38 33 33.76 33 29 33 C29 27.72 29 22.44 29 17 C28.01 17 27.02 17 26 17 C26 17.99 26 18.98 26 20 C25.01 20 24.02 20 23 20 C23 20.99 23 21.98 23 23 C21.68 23 20.36 23 19 23 C19 22.01 19 21.02 19 20 C18.01 20 17.02 20 16 20 C16 19.01 16 18.02 16 17 C15.01 17 14.02 17 13 17 C13 22.28 13 27.56 13 33 C8.71 33 4.42 33 0 33 C0 22.11 0 11.22 0 0 Z " fill="#AB51D0" transform="translate(174,198)"/>
<path d="M0 0 C9.57 0 19.14 0 29 0 C29 0.99 29 1.98 29 3 C30.32 3 31.64 3 33 3 C33 12.9 33 22.8 33 33 C28.38 33 23.76 33 19 33 C19 28.71 19 24.42 19 20 C16.03 20 13.06 20 10 20 C10 24.29 10 28.58 10 33 C5.71 33 1.42 33 -3 33 C-3 23.1 -3 13.2 -3 3 C-2.01 3 -1.02 3 0 3 C0 2.01 0 1.02 0 0 Z " fill="#AE4CD5" transform="translate(276,151)"/>
<path d="M0 0 C9.9 0 19.8 0 30 0 C30 0.99 30 1.98 30 3 C30.99 3 31.98 3 33 3 C33 12.9 33 22.8 33 33 C28.71 33 24.42 33 20 33 C20 28.71 20 24.42 20 20 C16.7 20 13.4 20 10 20 C10 24.29 10 28.58 10 33 C5.71 33 1.42 33 -3 33 C-3 23.1 -3 13.2 -3 3 C-2.01 3 -1.02 3 0 3 C0 2.01 0 1.02 0 0 Z " fill="#B163D1" transform="translate(71,151)"/>
<path d="M0 0 C10.89 0 21.78 0 33 0 C33 0.99 33 1.98 33 3 C33.99 3 34.98 3 36 3 C36 6.3 36 9.6 36 13 C35.01 13 34.02 13 33 13 C33 14.98 33 16.96 33 19 C33.99 19 34.98 19 36 19 C36 23.62 36 28.24 36 33 C31.71 33 27.42 33 23 33 C23 28.71 23 24.42 23 20 C19.7 20 16.4 20 13 20 C13 24.29 13 28.58 13 33 C8.71 33 4.42 33 0 33 C0 22.11 0 11.22 0 0 Z " fill="#C477E3" transform="translate(233,151)"/>
<path d="M0 0 C4.29 0 8.58 0 13 0 C13 0.99 13 1.98 13 3 C13.99 3 14.98 3 16 3 C16 3.99 16 4.98 16 6 C16.99 6 17.98 6 19 6 C19 7.32 19 8.64 19 10 C20.32 10 21.64 10 23 10 C23 6.7 23 3.4 23 0 C27.29 0 31.58 0 36 0 C36 10.89 36 21.78 36 33 C31.38 33 26.76 33 22 33 C22 29.7 22 26.4 22 23 C21.01 23 20.02 23 19 23 C19 22.01 19 21.02 19 20 C18.01 20 17.02 20 16 20 C16 18.68 16 17.36 16 16 C15.01 16 14.02 16 13 16 C13 21.61 13 27.22 13 33 C8.71 33 4.42 33 0 33 C0 22.11 0 11.22 0 0 Z " fill="#AC4FD2" transform="translate(108,151)"/>
<path d="M0 0 C10.89 0 21.78 0 33 0 C33 0.99 33 1.98 33 3 C34.32 3 35.64 3 37 3 C37 7.29 37 11.58 37 16 C35.68 16 34.36 16 33 16 C33 17.32 33 18.64 33 20 C26.73 20 20.46 20 14 20 C14 24.29 14 28.58 14 33 C9.38 33 4.76 33 0 33 C0 22.11 0 11.22 0 0 Z " fill="#AC5DCC" transform="translate(28,151)"/>
<path d="M0 0 C10.89 0 21.78 0 33 0 C33 0.99 33 1.98 33 3 C33.99 3 34.98 3 36 3 C36 7.62 36 12.24 36 17 C35.01 17 34.02 17 33 17 C33 17.99 33 18.98 33 20 C26.4 20 19.8 20 13 20 C13 24.29 13 28.58 13 33 C8.71 33 4.42 33 0 33 C0 22.11 0 11.22 0 0 Z " fill="#AE5ECE" transform="translate(220,198)"/>
<path d="M0 0 C10.56 0 21.12 0 32 0 C32 1.98 32 3.96 32 6 C24.41 6 16.82 6 9 6 C9 8.31 9 10.62 9 13 C15.93 13 22.86 13 30 13 C30 13.99 30 14.98 30 16 C30.99 16 31.98 16 33 16 C33 20.29 33 24.58 33 29 C32.01 29.33 31.02 29.66 30 30 C30 30.99 30 31.98 30 33 C18.78 33 7.56 33 -4 33 C-4 30.69 -4 28.38 -4 26 C3.59 26 11.18 26 19 26 C19 24.02 19 22.04 19 20 C12.73 20 6.46 20 0 20 C0 18.68 0 17.36 0 16 C-1.32 16 -2.64 16 -4 16 C-4 11.71 -4 7.42 -4 3 C-2.68 3 -1.36 3 0 3 C0 2.01 0 1.02 0 0 Z " fill="#A652C8" transform="translate(329,151)"/>
<path d="M0 0 C10.89 0 21.78 0 33 0 C33 2.31 33 4.62 33 7 C25.41 7 17.82 7 10 7 C10 8.98 10 10.96 10 13 C16.6 13 23.2 13 30 13 C30 14.32 30 15.64 30 17 C30.99 17 31.98 17 33 17 C33 21.29 33 25.58 33 30 C32.01 30 31.02 30 30 30 C30 30.99 30 31.98 30 33 C19.11 33 8.22 33 -3 33 C-3 31.02 -3 29.04 -3 27 C4.59 27 12.18 27 20 27 C20 24.69 20 22.38 20 20 C13.4 20 6.8 20 0 20 C0 19.01 0 18.02 0 17 C-0.99 17 -1.98 17 -3 17 C-3 12.38 -3 7.76 -3 3 C-2.01 3 -1.02 3 0 3 C0 2.01 0 1.02 0 0 Z " fill="#B253D9" transform="translate(137,198)"/>
<path d="M0 0 C3.3 0.66 6.6 1.32 10 2 C10.33 3.32 10.66 4.64 11 6 C11.66 6.33 12.32 6.66 13 7 C13 8.32 13 9.64 13 11 C13.99 11 14.98 11 16 11 C16 12.32 16 13.64 16 15 C16.66 15 17.32 15 18 15 C18.14285714 22.42857143 18.14285714 22.42857143 17 26 C15.68 26 14.36 26 13 26 C13.33 23.36 13.66 20.72 14 18 C13.01 18 12.02 18 11 18 C11.33 16.68 11.66 15.36 12 14 C11.01 13.67 10.02 13.34 9 13 C9 11.68 9 10.36 9 9 C6.69 8.67 4.38 8.34 2 8 C2 8.99 2 9.98 2 11 C0.35 11 -1.3 11 -3 11 C-3.13277344 11.84304687 -3.26554688 12.68609375 -3.40234375 13.5546875 C-3.57894531 14.65039062 -3.75554687 15.74609375 -3.9375 16.875 C-4.11152344 17.96554688 -4.28554687 19.05609375 -4.46484375 20.1796875 C-5 23 -5 23 -6 25 C-5.01 25 -4.02 25 -3 25 C-3 26.65 -3 28.3 -3 30 C-2.01 30 -1.02 30 0 30 C0 29.01 0 28.02 0 27 C1.65 27 3.3 27 5 27 C5 26.34 5 25.68 5 25 C6.32 25 7.64 25 9 25 C9 25.99 9 26.98 9 28 C9.66 28.33 10.32 28.66 11 29 C10.01 29 9.02 29 8 29 C7.67 29.99 7.34 30.98 7 32 C6.01 32 5.02 32 4 32 C3.67 32.66 3.34 33.32 3 34 C1.54119891 33.85892253 0.08296449 33.71197585 -1.375 33.5625 C-2.18710938 33.48128906 -2.99921875 33.40007812 -3.8359375 33.31640625 C-6 33 -6 33 -8 32 C-8 30.68 -8 29.36 -8 28 C-8.99 27.67 -9.98 27.34 -11 27 C-10.67 26.01 -10.34 25.02 -10 24 C-10.99 23.67 -11.98 23.34 -13 23 C-13 21.68 -13 20.36 -13 19 C-13.99 19 -14.98 19 -16 19 C-15.74322411 17.24788218 -15.46897047 15.49832064 -15.1875 13.75 C-15.03667969 12.77546875 -14.88585937 11.8009375 -14.73046875 10.796875 C-13.96101188 7.8507193 -13.08214678 6.20277494 -11 4 C-10.34 4 -9.68 4 -9 4 C-8.67 3.34 -8.34 2.68 -8 2 C-5.69 2 -3.38 2 -1 2 C-0.67 1.34 -0.34 0.68 0 0 Z " fill="#62987B" transform="translate(208,150)"/>
<path d="M0 0 C1.6266848 0.28211877 3.25132896 0.57602375 4.875 0.875 C5.77992188 1.03742188 6.68484375 1.19984375 7.6171875 1.3671875 C10 2 10 2 12 4 C12 5.32 12 6.64 12 8 C13.98 8.33 15.96 8.66 18 9 C18 9.99 18 10.98 18 12 C19.43750191 13.68798827 19.43750191 13.68798827 21 15 C20.67 15.66 20.34 16.32 20 17 C20.99 17.33 21.98 17.66 23 18 C22.67 20.64 22.34 23.28 22 26 C22.66 26 23.32 26 24 26 C24 19.4 24 12.8 24 6 C24.33 6 24.66 6 25 6 C25 16.89 25 27.78 25 39 C24.34 38.01 23.68 37.02 23 36 C22.01 36.495 22.01 36.495 21 37 C20.01 36.505 20.01 36.505 19 36 C19.66 32.37 20.32 28.74 21 25 C20.01 25 19.02 25 18 25 C18 23.35 18 21.7 18 20 C17.34 20 16.68 20 16 20 C16 18.68 16 17.36 16 16 C15.01 16 14.02 16 13 16 C13 14.68 13 13.36 13 12 C12.01 11.67 11.02 11.34 10 11 C10 9.68 10 8.36 10 7 C6.7 6.34 3.4 5.68 0 5 C-0.33 5.99 -0.66 6.98 -1 8 C-3.31 7.67 -5.62 7.34 -8 7 C-8.33 7.99 -8.66 8.98 -9 10 C-9.66 10 -10.32 10 -11 10 C-14.33707393 16.67414785 -15.57511728 23.71389759 -17 31 C-16.01 31.33 -15.02 31.66 -14 32 C-14.33 32.99 -14.66 33.98 -15 35 C-17.31 34.67 -19.62 34.34 -22 34 C-21.67 31.36 -21.34 28.72 -21 26 C-21.99 26 -22.98 26 -24 26 C-24 27.98 -24 29.96 -24 32 C-24.33 32 -24.66 32 -25 32 C-25 25.4 -25 18.8 -25 12 C-24.67 12 -24.34 12 -24 12 C-23.67 14.64 -23.34 17.28 -23 20 C-22.67 18.35 -22.34 16.7 -22 15 C-20.68 15 -19.36 15 -18 15 C-17.34 12.69 -16.68 10.38 -16 8 C-15.01 8 -14.02 8 -13 8 C-12.67 7.34 -12.34 6.68 -12 6 C-10.68 6 -9.36 6 -8 6 C-7.67 5.01 -7.34 4.02 -7 3 C-4.69 3 -2.38 3 0 3 C0 2.01 0 1.02 0 0 Z " fill="#2B3841" transform="translate(208,145)"/>
<path d="M0 0 C4.29 0 8.58 0 13 0 C13 0.99 13 1.98 13 3 C13.99 3.33 14.98 3.66 16 4 C15.01 4.66 14.02 5.32 13 6 C11.79549696 8.55183404 11.79549696 8.55183404 11 11 C11.66 11.33 12.32 11.66 13 12 C14.03145371 13.30915279 15.03542166 14.64082143 16 16 C15.01 16 14.02 16 13 16 C13 21.61 13 27.22 13 33 C8.71 33 4.42 33 0 33 C0 22.11 0 11.22 0 0 Z " fill="#AE5CD0" transform="translate(174,198)"/>
<path d="M0 0 C0 3.96 0 7.92 0 12 C-0.99 12 -1.98 12 -3 12 C-3 12.99 -3 13.98 -3 15 C-14.22 15 -25.44 15 -37 15 C-37 11.37 -37 7.74 -37 4 C-25.78 4 -14.56 4 -3 4 C-3 3.01 -3 2.02 -3 1 C-1 0 -1 0 0 0 Z " fill="#2B1832" transform="translate(362,180)"/>
<path d="M0 0 C0.99 0 1.98 0 3 0 C3 3.63 3 7.26 3 11 C2.01 11 1.02 11 0 11 C0 12.32 0 13.64 0 15 C-0.99 15 -1.98 15 -3 15 C-3 15.99 -3 16.98 -3 18 C-12.9 18 -22.8 18 -33 18 C-33 14.37 -33 10.74 -33 7 C-23.1 7 -13.2 7 -3 7 C-3 5.68 -3 4.36 -3 3 C-2.01 3 -1.02 3 0 3 C0 2.01 0 1.02 0 0 Z " fill="#2A1631" transform="translate(180,177)"/>
<path d="M0 0 C0.99 0 1.98 0 3 0 C3 3.63 3 7.26 3 11 C2.01 11 1.02 11 0 11 C0 11.99 0 12.98 0 14 C-10.89 14 -21.78 14 -33 14 C-33 10.37 -33 6.74 -33 3 C-22.11 3 -11.22 3 0 3 C0 2.01 0 1.02 0 0 Z " fill="#301B39" transform="translate(167,228)"/>
<path d="M0 0 C3.96 0 7.92 0 12 0 C11.01 0.33 10.02 0.66 9 1 C9.23976563 1.64066406 9.47953125 2.28132812 9.7265625 2.94140625 C11.74345983 8.82548498 12.17805651 12.01034459 10 18 C9.82173734 19.5591331 9.67720552 21.12240695 9.5625 22.6875 C9.232768 26.26570281 8.6230708 28.3769292 6 31 C7.98 31.33 9.96 31.66 12 32 C12 26.72 12 21.44 12 16 C12.33 16 12.66 16 13 16 C13 21.61 13 27.22 13 33 C8.71 33 4.42 33 0 33 C0 22.11 0 11.22 0 0 Z " fill="#A259C0" transform="translate(108,151)"/>
<path d="M0 0 C3.96 0 7.92 0 12 0 C12 0.66 12 1.32 12 2 C13.32 2 14.64 2 16 2 C16 11.9 16 21.8 16 32 C11.38 32 6.76 32 2 32 C2 27.71 2 23.42 2 19 C-0.97 19 -3.94 19 -7 19 C-7 18.67 -7 18.34 -7 18 C-3.7 18 -0.4 18 3 18 C3 22.29 3 26.58 3 31 C6.96 31 10.92 31 15 31 C13.72574367 24.7703024 10.77574018 19.96584679 7.4609375 14.57421875 C6 12 6 12 6 10 C5.34 10 4.68 10 4 10 C3.67 10.66 3.34 11.32 3 12 C-0.3 12 -3.6 12 -7 12 C-7 9.69 -7 7.38 -7 5 C-4.03 5 -1.06 5 2 5 C1.34 3.35 0.68 1.7 0 0 Z " fill="#943CB7" transform="translate(293,152)"/>
<path d="M0 0 C4.62 0 9.24 0 14 0 C14 10.89 14 21.78 14 33 C12.35 33 10.7 33 9 33 C10.485 32.505 10.485 32.505 12 32 C11.64808594 31.41734375 11.29617187 30.8346875 10.93359375 30.234375 C9.88332274 28.49032183 8.83676989 26.74402677 7.79296875 24.99609375 C6.57563356 22.96189747 5.34871898 20.93340935 4.11328125 18.91015625 C0.96695879 13.67947761 -1.77119812 9.00747584 -3 3 C-2.01 3 -1.02 3 0 3 C0 2.01 0 1.02 0 0 Z " fill="#943DB7" transform="translate(203,198)"/>
<path d="M0 0 C2.31 0.33 4.62 0.66 7 1 C7.12375 1.639375 7.2475 2.27875 7.375 2.9375 C7.58125 3.618125 7.7875 4.29875 8 5 C8.66 5.33 9.32 5.66 10 6 C9.67 7.32 9.34 8.64 9 10 C9.99 10 10.98 10 12 10 C11.67 12.64 11.34 15.28 11 18 C11.99 18 12.98 18 14 18 C13.67 19.32 13.34 20.64 13 22 C10.83125748 21.49396008 9.00032373 21.00016187 7 20 C7 19.01 7 18.02 7 17 C5.68 17 4.36 17 3 17 C3 17.66 3 18.32 3 19 C1.35 19 -0.3 19 -2 19 C-2 19.99 -2 20.98 -2 22 C-2.99 22 -3.98 22 -5 22 C-5 20.35 -5 18.7 -5 17 C-5.99 17 -6.98 17 -8 17 C-7.69147815 15.041036 -7.3780582 13.08284287 -7.0625 11.125 C-6.80146484 9.48917969 -6.80146484 9.48917969 -6.53515625 7.8203125 C-6 5 -6 5 -5 3 C-3.35 3 -1.7 3 0 3 C0 2.01 0 1.02 0 0 Z " fill="#6EA94D" transform="translate(210,158)"/>
<path d="M0 0 C3.96 0 7.92 0 12 0 C12 0.66 12 1.32 12 2 C12.99 2 13.98 2 15 2 C15 11.9 15 21.8 15 32 C10.71 32 6.42 32 2 32 C2 31.67 2 31.34 2 31 C5.96 31 9.92 31 14 31 C12.85296839 24.80602931 10.66193014 20.3866193 7.2421875 15.1015625 C6 13 6 13 6 11 C5.34 11 4.68 11 4 11 C4 9.35 4 7.7 4 6 C3.34 6 2.68 6 2 6 C2 7.98 2 9.96 2 12 C-1.3 12 -4.6 12 -8 12 C-8 9.69 -8 7.38 -8 5 C-5.03 5 -2.06 5 1 5 C0.67 3.35 0.34 1.7 0 0 Z " fill="#943EB7" transform="translate(89,152)"/>
<path d="M0 0 C10.89 0 21.78 0 33 0 C33 0.99 33 1.98 33 3 C33.99 3 34.98 3 36 3 C36 7.62 36 12.24 36 17 C35.01 17 34.02 17 33 17 C33 17.99 33 18.98 33 20 C29.7 20 26.4 20 23 20 C23 19.67 23 19.34 23 19 C24.98 18.67 26.96 18.34 29 18 C28.34 16.35 27.68 14.7 27 13 C26.34 13 25.68 13 25 13 C24.67 12.34 24.34 11.68 24 11 C23.67 11.66 23.34 12.32 23 13 C19.7 13 16.4 13 13 13 C13 10.69 13 8.38 13 6 C17.455 5.505 17.455 5.505 22 5 C20.39327932 1.83096637 20.39327932 1.83096637 17.93701172 1.56762695 C17.10959473 1.54144287 16.28217773 1.51525879 15.4296875 1.48828125 C14.53378906 1.45283203 13.63789063 1.41738281 12.71484375 1.38085938 C11.77769531 1.35830078 10.84054688 1.33574219 9.875 1.3125 C8.93011719 1.27833984 7.98523438 1.24417969 7.01171875 1.20898438 C4.67459747 1.12635888 2.33785809 1.05726012 0 1 C0 0.67 0 0.34 0 0 Z " fill="#933CB6" transform="translate(220,198)"/>
<path d="M0 0 C3.96 0 7.92 0 12 0 C12 0.66 12 1.32 12 2 C12.99 2 13.98 2 15 2 C15 5.3 15 8.6 15 12 C14.01 12 13.02 12 12 12 C12 13.98 12 15.96 12 18 C12.99 18 13.98 18 15 18 C15 22.62 15 27.24 15 32 C10.71 32 6.42 32 2 32 C2 31.67 2 31.34 2 31 C5.96 31 9.92 31 14 31 C12.85296839 24.80602931 10.66193014 20.3866193 7.2421875 15.1015625 C6 13 6 13 6 11 C5.34 11 4.68 11 4 11 C4 9.35 4 7.7 4 6 C3.34 6 2.68 6 2 6 C2 7.98 2 9.96 2 12 C-1.3 12 -4.6 12 -8 12 C-8 9.69 -8 7.38 -8 5 C-4.7 5 -1.4 5 2 5 C1.34 3.35 0.68 1.7 0 0 Z " fill="#983DBC" transform="translate(254,152)"/>
<path d="M0 0 C3.96 0 7.92 0 12 0 C12 0.66 12 1.32 12 2 C13.32 2 14.64 2 16 2 C16 6.29 16 10.58 16 15 C14.68 15 13.36 15 12 15 C12 16.32 12 17.64 12 19 C5.73 19 -0.54 19 -7 19 C-7 18.67 -7 18.34 -7 18 C-1.72 17.67 3.56 17.34 9 17 C8.01 15.35 7.02 13.7 6 12 C6 11.34 6 10.68 6 10 C5.34 10 4.68 10 4 10 C3.67 10.66 3.34 11.32 3 12 C-0.3 12 -3.6 12 -7 12 C-7 9.69 -7 7.38 -7 5 C-4.03 5 -1.06 5 2 5 C1.34 3.35 0.68 1.7 0 0 Z " fill="#8C3AAD" transform="translate(49,152)"/>
<path d="M0 0 C3.3 0 6.6 0 10 0 C10 0.33 10 0.66 10 1 C7.03 1 4.06 1 1 1 C1.89250018 2.66845395 2.78920992 4.33465617 3.6875 6 C4.23019531 7.01191406 4.77289063 8.02382812 5.33203125 9.06640625 C6.72405224 11.514668 8.20856344 13.6789771 9.875 15.9375 C13.15544394 20.95773209 12.32939114 26.2027159 12 32 C8.04 32 4.08 32 0 32 C0 21.44 0 10.88 0 0 Z " fill="#CE7FEE" transform="translate(29,151)"/>
<path d="M0 0 C1.32 0 2.64 0 4 0 C4 3.96 4 7.92 4 12 C3.01 12 2.02 12 1 12 C1 12.99 1 13.98 1 15 C-5.6 15 -12.2 15 -19 15 C-19 11.37 -19 7.74 -19 4 C-12.73 4 -6.46 4 0 4 C0 2.68 0 1.36 0 0 Z " fill="#200F28" transform="translate(61,167)"/>
<path d="M0 0 C9.9 0 19.8 0 30 0 C30 0.33 30 0.66 30 1 C26.04 1 22.08 1 18 1 C18.33 2.65 18.66 4.3 19 6 C15.7 6.33 12.4 6.66 9 7 C8.7525 7.86625 8.505 8.7325 8.25 9.625 C6.88916273 13.29926063 5.51905881 15.9911242 3 19 C1.02 19.33 -0.96 19.66 -3 20 C-3 14.39 -3 8.78 -3 3 C-2.01 3 -1.02 3 0 3 C0 2.01 0 1.02 0 0 Z " fill="#A961C6" transform="translate(71,151)"/>
<path d="M0 0 C0.99 0 1.98 0 3 0 C3 1.32 3 2.64 3 4 C3.99 4 4.98 4 6 4 C6 4.99 6 5.98 6 7 C6.99 7 7.98 7 9 7 C9 10.3 9 13.6 9 17 C13.62 17 18.24 17 23 17 C23 20.63 23 24.26 23 28 C18.38 28 13.76 28 9 28 C9 24.7 9 21.4 9 18 C8.01 18 7.02 18 6 18 C6 17.01 6 16.02 6 15 C5.01 15 4.02 15 3 15 C3 14.01 3 13.02 3 12 C2.01 12 1.02 12 0 12 C0 8.04 0 4.08 0 0 Z " fill="#2A1533" transform="translate(121,167)"/>
<path d="M0 0 C0.99 0 1.98 0 3 0 C3 3.63 3 7.26 3 11 C2.01 11 1.02 11 0 11 C0 11.99 0 12.98 0 14 C-6.27 14 -12.54 14 -19 14 C-19.33 14.66 -19.66 15.32 -20 16 C-20 11.71 -20 7.42 -20 3 C-13.4 3 -6.8 3 0 3 C0 2.01 0 1.02 0 0 Z " fill="#23102B" transform="translate(253,215)"/>
<path d="M0 0 C10.56 0 21.12 0 32 0 C32 1.98 32 3.96 32 6 C24.41 6 16.82 6 9 6 C9 7.98 9 9.96 9 12 C6.52171717 11.57270986 5.27047878 11.28174873 3.5 9.4375 C1.86494057 7.53872976 1.86494057 7.53872976 -2 8 C-2.33 10.64 -2.66 13.28 -3 16 C-3.33 16 -3.66 16 -4 16 C-4 11.71 -4 7.42 -4 3 C-2.68 3 -1.36 3 0 3 C0 2.01 0 1.02 0 0 Z " fill="#AD4CD4" transform="translate(329,151)"/>
<path d="M0 0 C0.66 0 1.32 0 2 0 C2 1.65 2 3.3 2 5 C2.66 5 3.32 5 4 5 C5.34989131 7.19959969 6.6795172 9.407838 8 11.625 C8.3815625 12.24246094 8.763125 12.85992187 9.15625 13.49609375 C9.5171875 14.10839844 9.878125 14.72070312 10.25 15.3515625 C10.58515625 15.90666504 10.9203125 16.46176758 11.265625 17.03369141 C12 19 12 19 12 25 C8.04 25 4.08 25 0 25 C0 21.04 0 17.08 0 13 C-3.3 13 -6.6 13 -10 13 C-9.34 12.34 -8.68 11.68 -8 11 C-8 10.01 -8 9.02 -8 8 C-8.66 7.34 -9.32 6.68 -10 6 C-6.7 6 -3.4 6 0 6 C0 4.02 0 2.04 0 0 Z " fill="#AB50D0" transform="translate(256,158)"/>
<path d="M0 0 C2.64 0.33 5.28 0.66 8 1 C10.43364584 8.30093752 9.58824018 18.51951 8 26 C6.70703125 28.31640625 6.70703125 28.31640625 5 30 C3.68 30 2.36 30 1 30 C0.67 30.99 0.34 31.98 0 33 C0 22.11 0 11.22 0 0 Z " fill="#954CB2" transform="translate(147,151)"/>
<path d="M0 0 C0.66 0 1.32 0 2 0 C4.81573751 5.96273825 3.75822476 11.6677986 3 18 C3.66 18 4.32 18 5 18 C5.2954439 23.02254631 4.98514628 25.89542386 2 30 C3.98 30.33 5.96 30.66 8 31 C8 27.04 8 23.08 8 19 C8.33 19 8.66 19 9 19 C9 23.29 9 27.58 9 32 C4.71 32 0.42 32 -4 32 C-4 22.1 -4 12.2 -4 2 C-3.01 2 -2.02 2 -1 2 C-0.67 1.34 -0.34 0.68 0 0 Z " fill="#9F5FB9" transform="translate(277,152)"/>
<path d="M0 0 C0.33 0 0.66 0 1 0 C1 1.65 1 3.3 1 5 C1.66 5 2.32 5 3 5 C4.34989131 7.19959969 5.6795172 9.407838 7 11.625 C7.3815625 12.24246094 7.763125 12.85992187 8.15625 13.49609375 C8.5171875 14.10839844 8.878125 14.72070312 9.25 15.3515625 C9.58515625 15.90666504 9.9203125 16.46176758 10.265625 17.03369141 C11 19 11 19 11 25 C7.04 25 3.08 25 -1 25 C-1 21.04 -1 17.08 -1 13 C-4.3 13 -7.6 13 -11 13 C-11 11 -11 9 -11 7 C-7.37 7 -3.74 7 0 7 C0 4.69 0 2.38 0 0 Z " fill="#AB4DD1" transform="translate(92,158)"/>
<path d="M0 0 C10.89 0 21.78 0 33 0 C33 5.61 33 11.22 33 17 C32.01 17 31.02 17 30 17 C30 16.01 30 15.02 30 14 C23.07 14 16.14 14 9 14 C9 11.69 9 9.38 9 7 C16.59 7 24.18 7 32 7 C32 5.02 32 3.04 32 1 C21.44 1 10.88 1 0 1 C0 0.67 0 0.34 0 0 Z " fill="#2B1732" transform="translate(329,150)"/>
<path d="M0 0 C1.65 0 3.3 0 5 0 C6.89861177 4.90993454 7.46867413 9.36704645 7.75 14.5625 C7.80542969 15.30435547 7.86085937 16.04621094 7.91796875 16.81054688 C8.16598285 21.0305444 8.12768382 24.29036945 6 28 C3 30 3 30 0 30 C0 20.1 0 10.2 0 0 Z " fill="#9651B1" transform="translate(220,199)"/>
<path d="M0 0 C0.33 0.99 0.66 1.98 1 3 C1.99 3 2.98 3 4 3 C4 3.99 4 4.98 4 6 C4.99 6 5.98 6 7 6 C7 12.6 7 19.2 7 26 C4 25 4 25 2.46484375 22.3125 C1.96082031 21.219375 1.45679688 20.12625 0.9375 19 C-0.71765951 14.74298406 -0.71765951 14.74298406 -4 12 C-5.69382187 8.40909763 -7.21910455 4.90447725 -8 1 C-5.36 0.67 -2.72 0.34 0 0 Z " fill="#943CB7" transform="translate(176,151)"/>
<path d="M0 0 C0.33 0 0.66 0 1 0 C1 10.89 1 21.78 1 33 C5.29 33 9.58 33 14 33 C14 36.63 14 40.26 14 44 C9.38 44 4.76 44 0 44 C0 29.48 0 14.96 0 0 Z " fill="#312238" transform="translate(107,151)"/>
<path d="M0 0 C3.37705625 0.53725895 6.696686 1.11064623 10 2 C10.125 7.75 10.125 7.75 9 10 C9.99 10 10.98 10 12 10 C12 11.65 12 13.3 12 15 C12.99 15 13.98 15 15 15 C15 14.01 15 13.02 15 12 C16.65 12 18.3 12 20 12 C20 11.34 20 10.68 20 10 C21.32 10 22.64 10 24 10 C24 10.99 24 11.98 24 13 C24.66 13.33 25.32 13.66 26 14 C25.01 14 24.02 14 23 14 C22.67 14.99 22.34 15.98 22 17 C21.01 17 20.02 17 19 17 C18.67 17.66 18.34 18.32 18 19 C16.54119891 18.85892253 15.08296449 18.71197585 13.625 18.5625 C12.40683594 18.44068359 12.40683594 18.44068359 11.1640625 18.31640625 C9 18 9 18 7 17 C7 15.68 7 14.36 7 13 C6.01 12.67 5.02 12.34 4 12 C4.33 11.01 4.66 10.02 5 9 C4.01 8.67 3.02 8.34 2 8 C2 6.68 2 5.36 2 4 C1.01 4 0.02 4 -1 4 C-0.67 2.68 -0.34 1.36 0 0 Z " fill="#70AA4F" transform="translate(193,165)"/>
<path d="M0 0 C0.33 0 0.66 0 1 0 C1 9.9 1 19.8 1 30 C5.29 30 9.58 30 14 30 C14 33.63 14 37.26 14 41 C9.38 41 4.76 41 0 41 C0 27.47 0 13.94 0 0 Z " fill="#312237" transform="translate(272,154)"/>
<path d="M0 0 C0.99 0 1.98 0 3 0 C3 0.99 3 1.98 3 3 C3.99 3 4.98 3 6 3 C6 3.99 6 4.98 6 6 C7.32 6 8.64 6 10 6 C10 5.01 10 4.02 10 3 C10.99 3 11.98 3 13 3 C13 2.01 13 1.02 13 0 C13.99 0 14.98 0 16 0 C16 3.63 16 7.26 16 11 C15.01 11 14.02 11 13 11 C13 11.99 13 12.98 13 14 C12.01 14 11.02 14 10 14 C10 15.32 10 16.64 10 18 C8.68 18 7.36 18 6 18 C6 16.68 6 15.36 6 14 C5.01 14 4.02 14 3 14 C3 13.01 3 12.02 3 11 C2.01 11 1.02 11 0 11 C0 7.37 0 3.74 0 0 Z " fill="#23122A" transform="translate(187,215)"/>
<path d="M0 0 C3.3 0 6.6 0 10 0 C10 5.94 10 11.88 10 18 C6.7 18 3.4 18 0 18 C0 12.06 0 6.12 0 0 Z " fill="#23132A" transform="translate(312,151)"/>
<path d="M0 0 C1.4540625 0.0309375 1.4540625 0.0309375 2.9375 0.0625 C2.9375 1.3825 2.9375 2.7025 2.9375 4.0625 C3.9275 4.0625 4.9175 4.0625 5.9375 4.0625 C5.9375 8.3525 5.9375 12.6425 5.9375 17.0625 C4.9475 17.0625 3.9575 17.0625 2.9375 17.0625 C2.9375 18.0525 2.9375 19.0425 2.9375 20.0625 C0.6275 20.0625 -1.6825 20.0625 -4.0625 20.0625 C-4.09138514 16.91668577 -4.10925923 13.77090531 -4.125 10.625 C-4.13337891 9.72716797 -4.14175781 8.82933594 -4.15039062 7.90429688 C-4.15361328 7.05029297 -4.15683594 6.19628906 -4.16015625 5.31640625 C-4.16801147 4.13026733 -4.16801147 4.13026733 -4.17602539 2.92016602 C-3.98010202 -0.28581445 -3.26361999 0.06660449 0 0 Z " fill="#2A1533" transform="translate(164.0625,156.9375)"/>
<path d="M0 0 C0.99 0 1.98 0 3 0 C3 0.99 3 1.98 3 3 C9.6 3 16.2 3 23 3 C23 5.31 23 7.62 23 10 C15.41 10 7.82 10 0 10 C0 6.7 0 3.4 0 0 Z " fill="#3E2847" transform="translate(134,215)"/>
<path d="M0 0 C4.29 0 8.58 0 13 0 C13 0.99 13 1.98 13 3 C13.99 3.33 14.98 3.66 16 4 C14.68 4 13.36 4 12 4 C12 3.01 12 2.02 12 1 C10.01735205 1.65589738 10.01735205 1.65589738 8 3 C7.67 3.845625 7.34 4.69125 7 5.5625 C6.67 6.366875 6.34 7.17125 6 8 C3.9375 8.65234375 3.9375 8.65234375 2 9 C2.28127421 10.48117801 2.57533732 11.95993249 2.875 13.4375 C3.03742188 14.26121094 3.19984375 15.08492187 3.3671875 15.93359375 C3.57601562 16.61550781 3.78484375 17.29742187 4 18 C4.66 18.33 5.32 18.66 6 19 C6.85056945 22.55692677 7.16909807 24.49270578 6 28 C3.9375 29.6875 3.9375 29.6875 2 31 C1.34 30.67 0.68 30.34 0 30 C0 20.1 0 10.2 0 0 Z " fill="#9E5EB8" transform="translate(174,198)"/>
<path d="M0 0 C9.57 0 19.14 0 29 0 C29 0.33 29 0.66 29 1 C25.04 1 21.08 1 17 1 C17.66 2.65 18.32 4.3 19 6 C16.03 6 13.06 6 10 6 C10.12375 7.6396875 10.12375 7.6396875 10.25 9.3125 C10.1675 10.529375 10.085 11.74625 10 13 C8.69855198 14.04115841 7.36161311 15.03886134 6 16 C4.71157463 19.59067962 4.71157463 19.59067962 4 23 C3.67 23 3.34 23 3 23 C2.83870968 13.93189964 2.83870968 13.93189964 3.5625 9.75 C4.06427737 6.59597083 3.66542184 4.1053019 3 1 C2.34 1 1.68 1 1 1 C0.67 1.99 0.34 2.98 0 4 C0 2.68 0 1.36 0 0 Z " fill="#A961C6" transform="translate(276,151)"/>
<path d="M0 0 C4.62 0 9.24 0 14 0 C14 3.63 14 7.26 14 11 C9.38 11 4.76 11 0 11 C0 7.37 0 3.74 0 0 Z " fill="#291431" transform="translate(295,184)"/>
<path d="M0 0 C4.62 0 9.24 0 14 0 C14 3.63 14 7.26 14 11 C9.38 11 4.76 11 0 11 C0 7.37 0 3.74 0 0 Z " fill="#2F1F36" transform="translate(28,184)"/>
<path d="M0 0 C1.32 0 2.64 0 4 0 C4 1.32 4 2.64 4 4 C10.27 4 16.54 4 23 4 C23 5.98 23 7.96 23 10 C15.41 10 7.82 10 0 10 C0 6.7 0 3.4 0 0 Z " fill="#2C1833" transform="translate(325,167)"/>
<path d="M0 0 C3 1 3 1 4.6875 3 C7.69373476 9.87139373 5.83179735 16.6247527 3.94921875 23.6171875 C2.96705628 26.08269822 2.04765175 27.34211574 0 29 C-0.33 29 -0.66 29 -1 29 C-1.02891546 24.54168018 -1.04676981 20.08338431 -1.0625 15.625 C-1.07087891 14.35398438 -1.07925781 13.08296875 -1.08789062 11.7734375 C-1.09111328 10.56171875 -1.09433594 9.35 -1.09765625 8.1015625 C-1.10289307 6.98088379 -1.10812988 5.86020508 -1.11352539 4.70556641 C-1 2 -1 2 0 0 Z " fill="#8F50A8" transform="translate(109,152)"/>
<path d="M0 0 C6.93 0 13.86 0 21 0 C21 0.33 21 0.66 21 1 C19.35 1.33 17.7 1.66 16 2 C16.99 3.485 16.99 3.485 18 5 C14.7 5 11.4 5 8 5 C8.04125 6.11375 8.0825 7.2275 8.125 8.375 C8 12 8 12 6 14 C5.40165446 15.52056618 4.86493344 17.06612088 4.375 18.625 C4.11460937 19.44226563 3.85421875 20.25953125 3.5859375 21.1015625 C3.39257812 21.72804687 3.19921875 22.35453125 3 23 C1.99033502 19.55031133 1.73366081 16.20501739 1.5 12.625 C1.21677859 8.30587351 0.71614079 4.29684471 0 0 Z " fill="#A753C9" transform="translate(225,199)"/>
<path d="M0 0 C7.59 0 15.18 0 23 0 C24.125 6.75 24.125 6.75 23 10 C22.01 10 21.02 10 20 10 C20 8.68 20 7.36 20 6 C13.4 6 6.8 6 0 6 C0 4.02 0 2.04 0 0 Z " fill="#1F0E26" transform="translate(147,205)"/>
<path d="M0 0 C0.33 0.66 0.66 1.32 1 2 C1.99 2.33 2.98 2.66 4 3 C5.640625 5.58203125 5.640625 5.58203125 7.25 8.8125 C7.79140625 9.87082031 8.3328125 10.92914063 8.890625 12.01953125 C10 15 10 15 9.859375 17.32421875 C9 19 9 19 6 20 C5.67 20.66 5.34 21.32 5 22 C2.6875 22.25 2.6875 22.25 0 22 C-1.8125 20.25 -1.8125 20.25 -3 18 C-3 16.68 -3 15.36 -3 14 C-1.68 14 -0.36 14 1 14 C0.835 13.175 0.67 12.35 0.5 11.5 C-0.05896045 7.58727683 -0.06807187 3.94816827 0 0 Z " fill="#AC4BD4" transform="translate(171,161)"/>
<path d="M0 0 C0.99 0 1.98 0 3 0 C3 1.32 3 2.64 3 4 C3.99 4.33 4.98 4.66 6 5 C5.54177532 8.46941546 5.10868317 11.67395049 4 15 C2.35 15 0.7 15 -1 15 C-1 15.99 -1 16.98 -1 18 C-1.99 18 -2.98 18 -4 18 C-4 16.35 -4 14.7 -4 13 C-4.99 13 -5.98 13 -7 13 C-6.34 9.7 -5.68 6.4 -5 3 C-3.68 2.67 -2.36 2.34 -1 2 C-0.67 1.34 -0.34 0.68 0 0 Z " fill="#214A37" transform="translate(209,162)"/>
<path d="M0 0 C1.98 0 3.96 0 6 0 C6.2475 0.639375 6.495 1.27875 6.75 1.9375 C7.78223101 4.13806518 7.78223101 4.13806518 9.78027344 4.60913086 C12.12658721 5.0222906 14.38561915 5.20961112 16.765625 5.31640625 C17.65507812 5.35830078 18.54453125 5.40019531 19.4609375 5.44335938 C20.38132812 5.48267578 21.30171875 5.52199219 22.25 5.5625 C23.18585938 5.60568359 24.12171875 5.64886719 25.0859375 5.69335938 C27.39048641 5.7991805 29.69513839 5.90126557 32 6 C32 6.33 32 6.66 32 7 C24.08 7.495 24.08 7.495 16 8 C16 8.99 16 9.98 16 11 C16 11.33 16 11.66 16 12 C11.71 12 7.42 12 3 12 C3 11.01 3 10.02 3 9 C2.01 9 1.02 9 0 9 C0 6.03 0 3.06 0 0 Z " fill="#B965DC" transform="translate(326,158)"/>
<path d="M0 0 C4.29 0 8.58 0 13 0 C13 3.63 13 7.26 13 11 C8.71 11 4.42 11 0 11 C0 7.37 0 3.74 0 0 Z " fill="#322039" transform="translate(174,231)"/>
<path d="M0 0 C4.29 0 8.58 0 13 0 C13 3.63 13 7.26 13 11 C8.71 11 4.42 11 0 11 C0 7.37 0 3.74 0 0 Z " fill="#33213B" transform="translate(220,231)"/>
<path d="M0 0 C4.29 0 8.58 0 13 0 C13 3.63 13 7.26 13 11 C8.71 11 4.42 11 0 11 C0 7.37 0 3.74 0 0 Z " fill="#2D1736" transform="translate(203,231)"/>
<path d="M0 0 C0.33 0 0.66 0 1 0 C1 2.31 1 4.62 1 7 C0.34 7 -0.32 7 -1 7 C-0.67 8.65 -0.34 10.3 0 12 C-7.59 12 -15.18 12 -23 12 C-23 10.02 -23 8.04 -23 6 C-15.41 6 -7.82 6 0 6 C0 4.02 0 2.04 0 0 Z " fill="#C574E5" transform="translate(157,219)"/>
<path d="M0 0 C4.29 0 8.58 0 13 0 C13 3.63 13 7.26 13 11 C8.71 11 4.42 11 0 11 C0 7.37 0 3.74 0 0 Z " fill="#2A1532" transform="translate(256,184)"/>
<path d="M0 0 C4.29 0 8.58 0 13 0 C13 3.63 13 7.26 13 11 C8.71 11 4.42 11 0 11 C0 7.37 0 3.74 0 0 Z " fill="#301F38" transform="translate(233,184)"/>
<path d="M0 0 C4.29 0 8.58 0 13 0 C13 3.63 13 7.26 13 11 C8.71 11 4.42 11 0 11 C0 7.37 0 3.74 0 0 Z " fill="#2A1533" transform="translate(91,184)"/>
<path d="M0 0 C4.29 0 8.58 0 13 0 C13 3.63 13 7.26 13 11 C8.71 11 4.42 11 0 11 C0 7.37 0 3.74 0 0 Z " fill="#322039" transform="translate(68,184)"/>
<path d="M0 0 C0.99 0 1.98 0 3 0 C3.12375 0.639375 3.2475 1.27875 3.375 1.9375 C3.684375 2.9584375 3.684375 2.9584375 4 4 C4.66 4.33 5.32 4.66 6 5 C6 5.99 6 6.98 6 8 C6.66 8.33 7.32 8.66 8 9 C8 10.32 8 11.64 8 13 C11.63 13.66 15.26 14.32 19 15 C19.33 14.01 19.66 13.02 20 12 C20.66 12.33 21.32 12.66 22 13 C22 13.99 22 14.98 22 16 C21.01 16 20.02 16 19 16 C18.67 16.99 18.34 17.98 18 19 C11.9490696 17.83445193 5.96533774 16.54656904 0 15 C0.33 12.69 0.66 10.38 1 8 C0.34 7.67 -0.32 7.34 -1 7 C-1.04254356 5.00045254 -1.04080783 2.99958364 -1 1 C-0.67 0.67 -0.34 0.34 0 0 Z " fill="#497D7B" transform="translate(192,169)"/>
<path d="M0 0 C3.3 0 6.6 0 10 0 C10 10.56 10 21.12 10 32 C5.38 32 0.76 32 -4 32 C-4 28.7 -4 25.4 -4 22 C-3.67 22 -3.34 22 -3 22 C-3 24.97 -3 27.94 -3 31 C0.96 31 4.92 31 9 31 C9.23859859 20.35253809 7.4875697 13.62182377 1.71484375 4.73046875 C0 2 0 2 0 0 Z " fill="#7C4194" transform="translate(134,152)"/>
<path d="M0 0 C10.89 0 21.78 0 33 0 C33 2.31 33 4.62 33 7 C25.41 7 17.82 7 10 7 C10 6.67 10 6.34 10 6 C14.455 5.505 14.455 5.505 19 5 C18.67 4.01 18.34 3.02 18 2 C12.39 1.67 6.78 1.34 1 1 C1 1.99 1 2.98 1 4 C-0.32 3.67 -1.64 3.34 -3 3 C-2.01 3 -1.02 3 0 3 C0 2.01 0 1.02 0 0 Z " fill="#825196" transform="translate(137,198)"/>
<path d="M0 0 C5.46589287 5.11520505 10.39861385 11.67524913 11.44921875 19.23046875 C11.43902073 21.85815906 11.3232401 24.393556 11 27 C6.93302857 23.39782531 4.53170716 19.69984533 2.015625 14.890625 C1.14138444 13.045287 1.14138444 13.045287 0 12 C-0.07244053 9.98035801 -0.08377188 7.95832876 -0.0625 5.9375 C-0.05347656 4.83277344 -0.04445313 3.72804687 -0.03515625 2.58984375 C-0.02355469 1.73519531 -0.01195313 0.88054687 0 0 Z " fill="#C76DEB" transform="translate(30,155)"/>
<path d="M0 0 C4.25589233 1.41863078 5.38353579 4.54094886 7.5 8.25 C7.89058594 8.91902344 8.28117187 9.58804688 8.68359375 10.27734375 C9.44679057 11.58531405 10.2035032 12.8970932 10.953125 14.21289062 C11.85729997 15.75639826 12.84367055 17.25120633 13.84375 18.734375 C15 21 15 21 14.6875 23.3125 C14.460625 23.869375 14.23375 24.42625 14 25 C12.66121428 22.8782637 11.32884524 20.75294812 10 18.625 C9.6184375 18.02171875 9.236875 17.4184375 8.84375 16.796875 C6 12.2265625 6 12.2265625 6 10 C5.34 10 4.68 10 4 10 C3.67 10.66 3.34 11.32 3 12 C-0.3 12 -3.6 12 -7 12 C-7 9.69 -7 7.38 -7 5 C-4.03 5 -1.06 5 2 5 C1.34 3.35 0.68 1.7 0 0 Z " fill="#8F3DB1" transform="translate(293,152)"/>
<path d="M0 0 C0.825 0.20625 1.65 0.4125 2.5 0.625 C3.49 0.625 4.48 0.625 5.5 0.625 C5.83 3.925 6.16 7.225 6.5 10.625 C2.54 10.625 -1.42 10.625 -5.5 10.625 C-5.79296875 3.7890625 -5.79296875 3.7890625 -5.5 1.625 C-2.5 -0.375 -2.5 -0.375 0 0 Z " fill="#CE7AF0" transform="translate(74.5,172.375)"/>
<path d="M0 0 C3.96 0 7.92 0 12 0 C12 0.33 12 0.66 12 1 C8.7 1 5.4 1 2 1 C2.97453125 2.57587891 2.97453125 2.57587891 3.96875 4.18359375 C4.81353098 5.60094851 5.65722335 7.01895252 6.5 8.4375 C6.92925781 9.12521484 7.35851562 9.81292969 7.80078125 10.52148438 C10.97565902 15.93893454 11.44401589 19.74060926 11 26 C7.53554991 22.00255759 4.9279507 17.65897385 2.26953125 13.109375 C1.1686003 11.08819514 1.1686003 11.08819514 0 10 C-0.14257189 6.66381769 -0.04228157 3.34024394 0 0 Z " fill="#9544B5" transform="translate(132,151)"/>
<path d="M0 0 C7.59 0 15.18 0 23 0 C22.67 1.32 22.34 2.64 22 4 C22.66 4.33 23.32 4.66 24 5 C16.08 5 8.16 5 0 5 C0 3.35 0 1.7 0 0 Z " fill="#C76DEB" transform="translate(326,178)"/>
<path d="M0 0 C0.99 0 1.98 0 3 0 C3 1.32 3 2.64 3 4 C3.99 4 4.98 4 6 4 C6 4.99 6 5.98 6 7 C6.99 7 7.98 7 9 7 C9.85373239 14.02804699 10.12109311 20.92278069 10 28 C9.67 28 9.34 28 9 28 C9 24.7 9 21.4 9 18 C8.01 18 7.02 18 6 18 C6 17.01 6 16.02 6 15 C5.01 15 4.02 15 3 15 C3 14.01 3 13.02 3 12 C2.01 12 1.02 12 0 12 C0 8.04 0 4.08 0 0 Z " fill="#211227" transform="translate(121,167)"/>
<path d="M0 0 C3.3 0 6.6 0 10 0 C10 3.63 10 7.26 10 11 C7.03 11 4.06 11 1 11 C0.67 11.66 0.34 12.32 0 13 C0 8.71 0 4.42 0 0 Z " fill="#25122D" transform="translate(246,171)"/>
<path d="M0 0 C3.3 0 6.6 0 10 0 C10 3.63 10 7.26 10 11 C7.03 11 4.06 11 1 11 C0.67 11.66 0.34 12.32 0 13 C0 8.71 0 4.42 0 0 Z " fill="#25122D" transform="translate(81,171)"/>
<path d="M0 0 C1.02802734 0.00322266 2.05605469 0.00644531 3.11523438 0.00976562 C4.72301758 0.02233398 4.72301758 0.02233398 6.36328125 0.03515625 C7.44673828 0.03966797 8.53019531 0.04417969 9.64648438 0.04882812 C12.3229721 0.06061882 14.99934902 0.07707562 17.67578125 0.09765625 C17.67578125 0.42765625 17.67578125 0.75765625 17.67578125 1.09765625 C13.71578125 1.09765625 9.75578125 1.09765625 5.67578125 1.09765625 C6.33578125 2.74765625 6.99578125 4.39765625 7.67578125 6.09765625 C4.37578125 6.09765625 1.07578125 6.09765625 -2.32421875 6.09765625 C-2.32421875 8.40765625 -2.32421875 10.71765625 -2.32421875 13.09765625 C-8.32421875 5.38337054 -8.32421875 5.38337054 -8.32421875 1.09765625 C-5.26502487 0.07792496 -3.2000385 -0.01767977 0 0 Z " fill="#AE55D2" transform="translate(248.32421875,150.90234375)"/>
<path d="M0 0 C0.33 0 0.66 0 1 0 C1.00257813 0.75023437 1.00515625 1.50046875 1.0078125 2.2734375 C1.28011994 9.48050773 2.62955265 14.08720832 6.72265625 20.0390625 C8 22 8 22 8 24 C8.66 24 9.32 24 10 24 C10.33 24.99 10.66 25.98 11 27 C7.37 27 3.74 27 0 27 C0 18.09 0 9.18 0 0 Z " fill="#CE7AF0" transform="translate(234,156)"/>
<path d="M0 0 C1.22589844 0.01353516 1.22589844 0.01353516 2.4765625 0.02734375 C3.41628906 0.04474609 3.41628906 0.04474609 4.375 0.0625 C9.89832519 6.96665649 8.73776872 14.66843482 8.375 23.0625 C7.055 23.0625 5.735 23.0625 4.375 23.0625 C4.375 24.0525 4.375 25.0425 4.375 26.0625 C1.735 26.0625 -0.905 26.0625 -3.625 26.0625 C-3.625 25.7325 -3.625 25.4025 -3.625 25.0625 C-1.315 25.0625 0.995 25.0625 3.375 25.0625 C3.375 24.0725 3.375 23.0825 3.375 22.0625 C4.365 22.0625 5.355 22.0625 6.375 22.0625 C6.375 17.7725 6.375 13.4825 6.375 9.0625 C5.385 9.0625 4.395 9.0625 3.375 9.0625 C3.375 7.7425 3.375 6.4225 3.375 5.0625 C0.735 5.3925 -1.905 5.7225 -4.625 6.0625 C-5.285 4.4125 -5.945 2.7625 -6.625 1.0625 C-4.21954362 -0.14022819 -2.67503047 -0.03821472 0 0 Z " fill="#A656C7" transform="translate(163.625,151.9375)"/>
<path d="M0 0 C1.98 0 3.96 0 6 0 C6.38671875 0.84304687 6.7734375 1.68609375 7.171875 2.5546875 C7.95304688 4.19824219 7.95304688 4.19824219 8.75 5.875 C9.26046875 6.96554688 9.7709375 8.05609375 10.296875 9.1796875 C12.02537809 12.04202519 12.89999181 12.93521458 16 14 C15.34 14 14.68 14 14 14 C14 14.99 14 15.98 14 17 C14.66 17.33 15.32 17.66 16 18 C14.68 18 13.36 18 12 18 C12 20.97 12 23.94 12 27 C11.67 27 11.34 27 11 27 C10.96003906 26.46375 10.92007813 25.9275 10.87890625 25.375 C9.80390867 17.30588236 5.97931743 11.12578891 1.8984375 4.24609375 C0 1 0 1 0 0 Z " fill="#BD5FE4" transform="translate(234,152)"/>
<path d="M0 0 C0.33 0 0.66 0 1 0 C1 10.89 1 21.78 1 33 C0.67 33 0.34 33 0 33 C0.020625 32.00742188 0.04125 31.01484375 0.0625 29.9921875 C-0.00449937 18.94549602 -2.9828079 12.11488096 -9 3 C-9 2.67 -9 2.34 -9 2 C-6.03 2 -3.06 2 0 2 C0 1.34 0 0.68 0 0 Z " fill="#672D7F" transform="translate(216,198)"/>
<path d="M0 0 C0.33 0 0.66 0 1 0 C1 10.89 1 21.78 1 33 C0.34 32.01 -0.32 31.02 -1 30 C-1.66 30.33 -2.32 30.66 -3 31 C-3.66 30.67 -4.32 30.34 -5 30 C-4.34 26.37 -3.68 22.74 -3 19 C-3.99 19 -4.98 19 -6 19 C-5.34 16.36 -4.68 13.72 -4 11 C-3.01 11.33 -2.02 11.66 -1 12 C-1.33 14.64 -1.66 17.28 -2 20 C-1.34 20 -0.68 20 0 20 C0 13.4 0 6.8 0 0 Z " fill="#182629" transform="translate(232,151)"/>
<path d="M0 0 C2.97 0 5.94 0 9 0 C9 3.63 9 7.26 9 11 C6.03 11 3.06 11 0 11 C0 7.37 0 3.74 0 0 Z " fill="#1F0E26" transform="translate(286,171)"/>
<path d="M0 0 C1.32 0 2.64 0 4 0 C4 0.66 4 1.32 4 2 C5.32 2 6.64 2 8 2 C8 11.9 8 21.8 8 32 C3.38 32 -1.24 32 -6 32 C-6 27.71 -6 23.42 -6 19 C-8.97 19 -11.94 19 -15 19 C-15 18.67 -15 18.34 -15 18 C-11.7 18 -8.4 18 -5 18 C-5 22.29 -5 26.58 -5 31 C-1.04 31 2.92 31 7 31 C7.55203463 14.71517117 7.55203463 14.71517117 0 1 C0 0.67 0 0.34 0 0 Z " fill="#793C93" transform="translate(301,152)"/>
<path d="M0 0 C0.33 0 0.66 0 1 0 C1 2.31 1 4.62 1 7 C-2.63 7 -6.26 7 -10 7 C-9.2236068 10.0745356 -9.2236068 10.0745356 -7 12 C-7.99 12.33 -8.98 12.66 -10 13 C-10.33 16.96 -10.66 20.92 -11 25 C-13.64 25 -16.28 25 -19 25 C-18.525625 24.566875 -18.05125 24.13375 -17.5625 23.6875 C-15.48863549 21.44772633 -14.9872569 19.69391957 -15.04296875 16.66015625 C-15.09066406 15.80292969 -15.13835937 14.94570312 -15.1875 14.0625 C-15.1875 10.84912119 -15.11550231 9.23650473 -13.6875 6.3125 C-9.24546553 4.14313433 -4.76613457 5.24399245 0 6 C0 4.02 0 2.04 0 0 Z " fill="#B564D6" transform="translate(296,158)"/>
<path d="M0 0 C4 1 4 1 5.66796875 3.65234375 C6.16941406 4.73644531 6.67085937 5.82054687 7.1875 6.9375 C7.95126953 8.55978516 7.95126953 8.55978516 8.73046875 10.21484375 C9.14941406 11.13394531 9.56835938 12.05304688 10 13 C10.33 13.66 10.66 14.32 11 15 C8.36 15.33 5.72 15.66 3 16 C3 15.01 3 14.02 3 13 C2.01 13 1.02 13 0 13 C0 8.71 0 4.42 0 0 Z " fill="#C474E4" transform="translate(134,202)"/>
<path d="M0 0 C2 3.75 2 3.75 2 6 C2.66 6 3.32 6 4 6 C4.99 7.98 5.98 9.96 7 12 C1.29309366 12.99250545 -4.21408489 13.10477512 -10 13 C-9.7215625 11.824375 -9.7215625 11.824375 -9.4375 10.625 C-8.74037734 8.02910225 -8.74037734 8.02910225 -10 6 C-6.7 6 -3.4 6 0 6 C0 4.02 0 2.04 0 0 Z " fill="#A851CC" transform="translate(243,205)"/>
<path d="M0 0 C3 1 3 1 4 3 C4.08426094 4.6674606 4.10725143 6.33825187 4.09765625 8.0078125 C4.09443359 8.99394531 4.09121094 9.98007813 4.08789062 10.99609375 C4.07951172 12.02863281 4.07113281 13.06117188 4.0625 14.125 C4.05798828 15.16527344 4.05347656 16.20554688 4.04882812 17.27734375 C4.03701952 19.85161962 4.02055075 22.42578146 4 25 C2.02 25.99 2.02 25.99 0 27 C0 18.09 0 9.18 0 0 Z " fill="#8F53A8" transform="translate(273,154)"/>
<path d="M0 0 C2.97 0.495 2.97 0.495 6 1 C6.33 2.32 6.66 3.64 7 5 C10.3 5.66 13.6 6.32 17 7 C17 6.34 17 5.68 17 5 C22.75 4.875 22.75 4.875 25 6 C24.67 6.99 24.34 7.98 24 9 C21.69 9 19.38 9 17 9 C16.67 9.66 16.34 10.32 16 11 C12.7 10.34 9.4 9.68 6 9 C6 7.68 6 6.36 6 5 C3.69 4.34 1.38 3.68 -1 3 C-0.67 2.01 -0.34 1.02 0 0 Z " fill="#133130" transform="translate(192,184)"/>
<path d="M0 0 C2 1 2 1 2.73828125 3.0390625 C4.10164174 9.178822 4.11317328 12.49207805 1 18 C0.01 18 -0.98 18 -2 18 C-2.33 18.66 -2.66 19.32 -3 20 C-3 14.39 -3 8.78 -3 3 C-2.01 3 -1.02 3 0 3 C0 2.01 0 1.02 0 0 Z " fill="#87559C" transform="translate(71,151)"/>
<path d="M0 0 C1.32 0.33 2.64 0.66 4 1 C4.12375 1.721875 4.2475 2.44375 4.375 3.1875 C4.90050048 5.96916916 4.90050048 5.96916916 6 8.3125 C7.35627052 11.95747702 7.74879176 15.10627236 8 19 C7.34 19.99 6.68 20.98 6 22 C6.66 22.66 7.32 23.32 8 24 C4.7 24 1.4 24 -2 24 C-2 23.01 -2 22.02 -2 21 C-0.02 20.34 1.96 19.68 4 19 C4.34536221 14.76931298 4.235645 11.95675519 2 8.375 C0.04099327 5.06917614 -0.45068919 3.7181858 0 0 Z " fill="#AA60C8" transform="translate(176,207)"/>
<path d="M0 0 C0.33 0 0.66 0 1 0 C1.309375 0.969375 1.61875 1.93875 1.9375 2.9375 C2.69523342 5.84065792 2.69523342 5.84065792 4 7 C4.12712692 9.45088882 4.18520683 11.86110545 4.1875 14.3125 C4.19974609 14.98990234 4.21199219 15.66730469 4.22460938 16.36523438 C4.23573375 20.15864609 3.91316003 22.73380664 2 26 C1.61250787 28.32495277 1.27017161 30.65851268 1 33 C0.67 33 0.34 33 0 33 C0 22.11 0 11.22 0 0 Z " fill="#7D548E" transform="translate(147,151)"/>
<path d="M0 0 C10.89 0 21.78 0 33 0 C33 0.99 33 1.98 33 3 C33.99 3 34.98 3 36 3 C36 7.62 36 12.24 36 17 C35.01 16.67 34.02 16.34 33 16 C33.66 16 34.32 16 35 16 C33.58524558 12.56416784 32.22564489 9.37607482 30.3125 6.1875 C29 4 29 4 29 2 C19.43 1.67 9.86 1.34 0 1 C0 0.67 0 0.34 0 0 Z " fill="#7C4892" transform="translate(220,198)"/>
<path d="M0 0 C2.31 0 4.62 0 7 0 C7 0.66 7 1.32 7 2 C7.99 2 8.98 2 10 2 C10 5.3 10 8.6 10 12 C9.01 12 8.02 12 7 12 C7 13.98 7 15.96 7 18 C7.99 18.33 8.98 18.66 10 19 C8.68 19 7.36 19 6 19 C5.938125 17.72125 5.87625 16.4425 5.8125 15.125 C5.21438219 9.42475605 2.78983506 4.93111068 0 0 Z " fill="#8539A5" transform="translate(259,152)"/>
<path d="M0 0 C4.95 0 9.9 0 15 0 C15 0.33 15 0.66 15 1 C10.71 1 6.42 1 2 1 C2 1.66 2 2.32 2 3 C4.31 3.33 6.62 3.66 9 4 C9 4.99 9 5.98 9 7 C9.66 7.33 10.32 7.66 11 8 C9 10 9 10 6.8359375 10.1953125 C4.55729167 10.13020833 2.27864583 10.06510417 0 10 C0 6.7 0 3.4 0 0 Z " fill="#311F39" transform="translate(148,184)"/>
<path d="M0 0 C2.31 0.66 4.62 1.32 7 2 C7 2.99 7 3.98 7 5 C5.35 5 3.7 5 2 5 C1.67 6.98 1.34 8.96 1 11 C-1.31 10.67 -3.62 10.34 -6 10 C-5.67 7.69 -5.34 5.38 -5 3 C-3.68 3 -2.36 3 -1 3 C-0.67 2.01 -0.34 1.02 0 0 Z " fill="#AEE062" transform="translate(203,156)"/>
<path d="M0 0 C-0.99 0.495 -0.99 0.495 -2 1 C-1.34 2.32 -0.68 3.64 0 5 C-3.3 5 -6.6 5 -10 5 C-10 6.98 -10 8.96 -10 11 C-13.76024616 8.49316923 -14.39192086 6.13506066 -16 2 C-10.60539047 -0.27141454 -5.73842251 -0.20413361 0 0 Z " fill="#AF4ED7" transform="translate(157,199)"/>
<path d="M0 0 C1.32 0.33 2.64 0.66 4 1 C3.01 5.62 2.02 10.24 1 15 C1.99 15.33 2.98 15.66 4 16 C3.67 16.99 3.34 17.98 3 19 C0.69 18.67 -1.62 18.34 -4 18 C-4.38499671 11.64755432 -2.02564668 5.932251 0 0 Z " fill="#1C4133" transform="translate(190,161)"/>
<path d="M0 0 C2.31 0 4.62 0 7 0 C7 0.66 7 1.32 7 2 C7.99 2 8.98 2 10 2 C10 7.61 10 13.22 10 19 C9.67 19 9.34 19 9 19 C8.74476562 18.14019531 8.48953125 17.28039062 8.2265625 16.39453125 C6.94656466 12.85211685 5.32296984 9.90605922 3.375 6.6875 C0 1.0877551 0 1.0877551 0 0 Z " fill="#8A3AAA" transform="translate(94,152)"/>
<path d="M0 0 C4.29 0 8.58 0 13 0 C13 0.66 13 1.32 13 2 C10.36 2.33 7.72 2.66 5 3 C5.88365234 4.44632813 5.88365234 4.44632813 6.78515625 5.921875 C7.54492112 7.19752959 8.30400012 8.47359285 9.0625 9.75 C9.45244141 10.38421875 9.84238281 11.0184375 10.24414062 11.671875 C13.11328125 16.546875 13.11328125 16.546875 12 21 C8.7 15.39 5.4 9.78 2 4 C1.01 4.33 0.02 4.66 -1 5 C-1.66 4.34 -2.32 3.68 -3 3 C-2.01 3 -1.02 3 0 3 C0 2.01 0 1.02 0 0 Z " fill="#8848A2" transform="translate(203,198)"/>
<path d="M0 0 C0.33 0.99 0.66 1.98 1 3 C2.258125 2.896875 3.51625 2.79375 4.8125 2.6875 C6.95703125 2.51171875 6.95703125 2.51171875 9 3 C9.99 4.65 10.98 6.3 12 8 C5.73 8 -0.54 8 -7 8 C-5.35 6.35 -3.7 4.7 -2 3 C-1.34 2.01 -0.68 1.02 0 0 Z " fill="#C065E5" transform="translate(159,175)"/>
<path d="M0 0 C2.64 0.66 5.28 1.32 8 2 C8 2.99 8 3.98 8 5 C8.53625 5.391875 9.0725 5.78375 9.625 6.1875 C11 8 11 8 10.75390625 9.96875 C10.23603164 11.99738985 9.62263174 14.0010244 9 16 C8.67 15.01 8.34 14.02 8 13 C7.34 13 6.68 13 6 13 C6 11.68 6 10.36 6 9 C5.01 9 4.02 9 3 9 C3 7.68 3 6.36 3 5 C2.01 4.67 1.02 4.34 0 4 C0 2.68 0 1.36 0 0 Z " fill="#214A3D" transform="translate(218,152)"/>
<path d="M0 0 C0.66 0 1.32 0 2 0 C3.32 2.64 4.64 5.28 6 8 C3.89646505 8.0810206 1.79204048 8.13919907 -0.3125 8.1875 C-2.07013672 8.23970703 -2.07013672 8.23970703 -3.86328125 8.29296875 C-7 8 -7 8 -8.91796875 6.48828125 C-9.27503906 5.99714844 -9.63210937 5.50601563 -10 5 C-8 3 -8 3 -6.0546875 2.8046875 C-4.03645833 2.86979167 -2.01822917 2.93489583 0 3 C0 2.01 0 1.02 0 0 Z " fill="#AD4AD5" transform="translate(53,162)"/>
<path d="M0 0 C3.3 0 6.6 0 10 0 C10 2.31 10 4.62 10 7 C6.7 7 3.4 7 0 7 C0 4.69 0 2.38 0 0 Z " fill="#2D1636" transform="translate(246,157)"/>
<path d="M0 0 C3.3 0 6.6 0 10 0 C10 2.31 10 4.62 10 7 C6.7 7 3.4 7 0 7 C0 4.69 0 2.38 0 0 Z " fill="#2C1535" transform="translate(81,157)"/>
<path d="M0 0 C4.95 0 9.9 0 15 0 C15 1.65 15 3.3 15 5 C10.71 5 6.42 5 2 5 C1.34 3.35 0.68 1.7 0 0 Z " fill="#8138A0" transform="translate(346,152)"/>
<path d="M0 0 C4.95 0 9.9 0 15 0 C15 0.33 15 0.66 15 1 C13.35 1.33 11.7 1.66 10 2 C10.66 3.32 11.32 4.64 12 6 C8.04 6 4.08 6 0 6 C0 4.02 0 2.04 0 0 Z " fill="#D390EE" transform="translate(134,225)"/>
<path d="M0 0 C3.63 0 7.26 0 11 0 C11.66 1.65 12.32 3.3 13 5 C10.03 5 7.06 5 4 5 C4 7.31 4 9.62 4 12 C3.67 12 3.34 12 3 12 C2.87625 11.030625 2.7525 10.06125 2.625 9.0625 C2.41875 8.051875 2.2125 7.04125 2 6 C1.34 5.67 0.68 5.34 0 5 C0 3.35 0 1.7 0 0 Z " fill="#A647CD" transform="translate(282,152)"/>
<path d="M0 0 C0.99 0 1.98 0 3 0 C3.12375 0.639375 3.2475 1.27875 3.375 1.9375 C3.684375 2.9584375 3.684375 2.9584375 4 4 C4.66 4.33 5.32 4.66 6 5 C6 5.99 6 6.98 6 8 C6.66 8.33 7.32 8.66 8 9 C8 10.32 8 11.64 8 13 C6.68 13.33 5.36 13.66 4 14 C4 13.34 4 12.68 4 12 C3.01 11.67 2.02 11.34 1 11 C1 10.01 1 9.02 1 8 C0.34 7.67 -0.32 7.34 -1 7 C-1.04254356 5.00045254 -1.04080783 2.99958364 -1 1 C-0.67 0.67 -0.34 0.34 0 0 Z " fill="#598E7D" transform="translate(192,169)"/>
<path d="M0 0 C0.33 0.99 0.66 1.98 1 3 C1.99 3 2.98 3 4 3 C4 7.29 4 11.58 4 16 C-4 6 -4 6 -4 1 C-2.68 0.67 -1.36 0.34 0 0 Z " fill="#8C3CAC" transform="translate(358,164)"/>
<path d="M0 0 C0.99 0.33 1.98 0.66 3 1 C4.74448199 6.23344596 4.67853621 11.87957435 3 17.125 C2.67 17.74375 2.34 18.3625 2 19 C1.34 19 0.68 19 0 19 C0 12.73 0 6.46 0 0 Z " fill="#835097" transform="translate(220,203)"/>
<path d="M0 0 C3.20532318 4.80798477 4.15313424 9.81783704 3.75 15.5625 C2.91246401 19.40120664 1.99993626 23.20024222 1 27 C0.67 27 0.34 27 0 27 C0 18.09 0 9.18 0 0 Z " fill="#87579B" transform="translate(108,154)"/>
<path d="M0 0 C1.3968009 4.19040269 -0.13554325 6.12766676 -2 10 C-2.33 10.33 -2.66 10.66 -3 11 C4.26 11.33 11.52 11.66 19 12 C19.33 11.34 19.66 10.68 20 10 C20 10.99 20 11.98 20 13 C10.43 13 0.86 13 -9 13 C-9 12.01 -9 11.02 -9 10 C-8.195625 9.773125 -7.39125 9.54625 -6.5625 9.3125 C-5.716875 8.879375 -4.87125 8.44625 -4 8 C-3.10613836 5.45224694 -3.10613836 5.45224694 -3 3 C-2.34 3 -1.68 3 -1 3 C-0.67 2.01 -0.34 1.02 0 0 Z " fill="#A15DBC" transform="translate(157,171)"/>
<path d="M0 0 C3.48384489 0.23225633 5.3999146 0.37991175 7.875 2.9375 C9.47889802 7.30366682 9.24121951 11.39896121 9 16 C5.49702126 11.97806144 0 5.60566856 0 0 Z " fill="#8B3AAC" transform="translate(134,152)"/>
<path d="M0 0 C1.32 0.33 2.64 0.66 4 1 C3.51116334 8.45475911 3.51116334 8.45475911 1.125 11 C-1 12 -1 12 -4 12 C-4 9.69 -4 7.38 -4 5 C-3.34 4.67 -2.68 4.34 -2 4 C-0.86649466 1.98330173 -0.86649466 1.98330173 0 0 Z " fill="#935DA9" transform="translate(224,217)"/>
<path d="M0 0 C4.94127911 4.78188301 4.94127911 4.78188301 5.16796875 9.484375 C5.17995054 10.90621442 5.18622591 12.32811067 5.1875 13.75 C5.19974609 14.45382813 5.21199219 15.15765625 5.22460938 15.8828125 C5.23695499 20.31077388 4.66037829 23.82608462 3 28 C2.01 27.67 1.02 27.34 0 27 C0.32484375 26.16984375 0.6496875 25.3396875 0.984375 24.484375 C2.11977026 20.58909587 2.26601323 17.30134623 2.25 13.25 C2.25515625 11.93515625 2.2603125 10.6203125 2.265625 9.265625 C2.34791095 5.91627586 2.34791095 5.91627586 0 4 C0 2.68 0 1.36 0 0 Z " fill="#8F51A8" transform="translate(148,152)"/>
<path d="M0 0 C10.56 0 21.12 0 32 0 C32 0.33 32 0.66 32 1 C21.77 1 11.54 1 1 1 C0.67 2.98 0.34 4.96 0 7 C-0.99 7.495 -0.99 7.495 -2 8 C-2.46523063 9.89533342 -2.46523063 9.89533342 -2.625 12.0625 C-2.74875 13.361875 -2.8725 14.66125 -3 16 C-3.33 16 -3.66 16 -4 16 C-4 11.71 -4 7.42 -4 3 C-2.68 3 -1.36 3 0 3 C0 2.01 0 1.02 0 0 Z " fill="#AB76C0" transform="translate(329,151)"/>
<path d="M0 0 C0.33 0.99 0.66 1.98 1 3 C1.99 3 2.98 3 4 3 C4 3.99 4 4.98 4 6 C4.99 6 5.98 6 7 6 C7 9.63 7 13.26 7 17 C4.17547052 14.17547052 2.6862903 11.91210869 0.8125 8.4375 C0.28269531 7.46683594 -0.24710938 6.49617187 -0.79296875 5.49609375 C-2 3 -2 3 -2 1 C-1.34 0.67 -0.68 0.34 0 0 Z " fill="#8839A9" transform="translate(176,151)"/>
<path d="M0 0 C1.6266848 0.28211877 3.25132896 0.57602375 4.875 0.875 C5.77992188 1.03742188 6.68484375 1.19984375 7.6171875 1.3671875 C10 2 10 2 12 4 C12 4.99 12 5.98 12 7 C6.43109483 6.52013969 1.32932432 5.70084819 -4 4 C-2.68 3.67 -1.36 3.34 0 3 C0 2.01 0 1.02 0 0 Z " fill="#1A3B31" transform="translate(208,145)"/>
<path d="M0 0 C3.3 0 6.6 0 10 0 C10 1.98 10 3.96 10 6 C6.7 6 3.4 6 0 6 C0 4.02 0 2.04 0 0 Z " fill="#23112A" transform="translate(233,205)"/>
<path d="M0 0 C1.98 0 3.96 0 6 0 C6 1.32 6 2.64 6 4 C6.99 4 7.98 4 9 4 C9 4.66 9 5.32 9 6 C8.01 6 7.02 6 6 6 C6 6.99 6 7.98 6 9 C4.02 9 2.04 9 0 9 C0 6.03 0 3.06 0 0 Z " fill="#060507" transform="translate(161,168)"/>
<path d="M0 0 C3.3 0 6.6 0 10 0 C10 1.98 10 3.96 10 6 C6.7 6 3.4 6 0 6 C0 4.02 0 2.04 0 0 Z " fill="#8F3FB0" transform="translate(312,151)"/>
<path d="M0 0 C1.51400391 0.01740234 1.51400391 0.01740234 3.05859375 0.03515625 C4.07050781 0.04417969 5.08242187 0.05320313 6.125 0.0625 C7.29869141 0.07990234 7.29869141 0.07990234 8.49609375 0.09765625 C8.82609375 1.74765625 9.15609375 3.39765625 9.49609375 5.09765625 C5.86609375 5.42765625 2.23609375 5.75765625 -1.50390625 6.09765625 C-2.16390625 4.44765625 -2.82390625 2.79765625 -3.50390625 1.09765625 C-2.50390625 0.09765625 -2.50390625 0.09765625 0 0 Z " fill="#A947D1" transform="translate(80.50390625,151.90234375)"/>
<path d="M0 0 C4.94712499 4.55656249 7.77712501 10.16741881 11 16 C11.44214844 16.79921875 11.88429687 17.5984375 12.33984375 18.421875 C14.19679908 21.9375342 15 23.94776417 15 28 C13.68 27.67 12.36 27.34 11 27 C11.99 27 12.98 27 14 27 C13.64808594 26.41734375 13.29617187 25.8346875 12.93359375 25.234375 C11.88482036 23.49280874 10.83954333 21.74913443 9.796875 20.00390625 C8.56502441 17.94457342 7.32501024 15.89010831 6.078125 13.83984375 C5.45421875 12.79957031 4.8303125 11.75929687 4.1875 10.6875 C3.60355469 9.72199219 3.01960937 8.75648438 2.41796875 7.76171875 C1.05537189 5.10784552 0.41200668 2.9375541 0 0 Z " fill="#9D40C2" transform="translate(201,203)"/>
<path d="M0 0 C2.31 0.33 4.62 0.66 7 1 C7.12375 1.639375 7.2475 2.27875 7.375 2.9375 C7.58125 3.618125 7.7875 4.29875 8 5 C8.66 5.33 9.32 5.66 10 6 C9.34 7.32 8.68 8.64 8 10 C7.34 9.67 6.68 9.34 6 9 C6 7.68 6 6.36 6 5 C3.69 4.67 1.38 4.34 -1 4 C-1.33 4.99 -1.66 5.98 -2 7 C-3.32 7 -4.64 7 -6 7 C-5.67 5.68 -5.34 4.36 -5 3 C-3.35 3 -1.7 3 0 3 C0 2.01 0 1.02 0 0 Z " fill="#73AD52" transform="translate(210,158)"/>
<path d="M0 0 C0.99 0 1.98 0 3 0 C5.96037745 6.2623369 6.15562017 11.12841523 5.375 17.875 C5.29330566 18.62450928 5.21161133 19.37401855 5.12744141 20.14624023 C4.70928761 23.24246944 4.37760028 25.52195433 2.4140625 28.0078125 C1.94742188 28.33523437 1.48078125 28.66265625 1 29 C0.01 28.67 -0.98 28.34 -2 28 C-1.34 28 -0.68 28 0 28 C3.6599895 15.16901909 3.6599895 15.16901909 1.5 2.4375 C1.005 1.633125 0.51 0.82875 0 0 Z " fill="#9E5CB8" transform="translate(111,152)"/>
<path d="M0 0 C0.99 0 1.98 0 3 0 C3.33 3.3 3.66 6.6 4 10 C3.01 9.34 2.02 8.68 1 8 C1 7.34 1 6.68 1 6 C0.34 6 -0.32 6 -1 6 C-1 5.34 -1 4.68 -1 4 C-2.98 3.34 -4.96 2.68 -7 2 C-7 1.34 -7 0.68 -7 0 C-4.31581667 -1.34209166 -2.88064523 -0.63233676 0 0 Z " fill="#C56FE7" transform="translate(77,173)"/>
<path d="M0 0 C4.29 0 8.58 0 13 0 C12.01 0.66 11.02 1.32 10 2 C10 2.66 10 3.32 10 4 C10.66 4.33 11.32 4.66 12 5 C8.04 5 4.08 5 0 5 C0 3.35 0 1.7 0 0 Z " fill="#CF7BF0" transform="translate(326,178)"/>
<path d="M0 0 C2.97 0 5.94 0 9 0 C9 1.98 9 3.96 9 6 C6.03 6 3.06 6 0 6 C0 4.02 0 2.04 0 0 Z " fill="#1F0F25" transform="translate(286,158)"/>
<path d="M0 0 C2.97 0 5.94 0 9 0 C9 1.98 9 3.96 9 6 C6.03 6 3.06 6 0 6 C0 4.02 0 2.04 0 0 Z " fill="#1E0E24" transform="translate(42,158)"/>
<path d="M0 0 C0.66 0 1.32 0 2 0 C3.296875 1.80078125 3.296875 1.80078125 4.75 4.3125 C5.53697266 5.67181641 5.53697266 5.67181641 6.33984375 7.05859375 C6.88769531 8.02925781 7.43554688 8.99992188 8 10 C8.55816406 10.98097656 9.11632812 11.96195313 9.69140625 12.97265625 C14.22806442 21.09491413 14.22806442 21.09491413 15 25 C12 24 12 24 10.46484375 21.3125 C9.96082031 20.219375 9.45679688 19.12625 8.9375 18 C7.28234049 13.74298406 7.28234049 13.74298406 4 11 C2.30617813 7.40909763 0.78089545 3.90447725 0 0 Z " fill="#9C3EC2" transform="translate(168,152)"/>
<path d="M0 0 C6.6 0 13.2 0 20 0 C20 1.32 20 2.64 20 4 C20.99 4 21.98 4 23 4 C23 8.29 23 12.58 23 17 C22.01 16.67 21.02 16.34 20 16 C20.66 16 21.32 16 22 16 C21.57585572 10.80423258 20.73556396 5.91821161 17 2 C14.0829935 1.00381336 11.31126163 1.01934789 8.25 1.0625 C7.06083984 1.03833008 7.06083984 1.03833008 5.84765625 1.01367188 C3.89875041 0.97845069 1.94916716 0.98510462 0 1 C0 0.67 0 0.34 0 0 Z " fill="#8C4AA6" transform="translate(147,211)"/>
<path d="M0 0 C0.33 0 0.66 0 1 0 C1 5.28 1 10.56 1 16 C-1.64 16 -4.28 16 -7 16 C-6.360625 15.360625 -5.72125 14.72125 -5.0625 14.0625 C-2.65955888 10.49449652 -2.45695414 8.18798901 -2.2734375 3.98828125 C-2 2 -2 2 0 0 Z " fill="#B463D5" transform="translate(119,167)"/>
<path d="M0 0 C1.32 0 2.64 0 4 0 C4 0.66 4 1.32 4 2 C5.32 2 6.64 2 8 2 C8 6.29 8 10.58 8 15 C7.34 13.68 6.68 12.36 6 11 C4.43831498 8.3661737 2.84055867 5.75622385 1.2421875 3.14453125 C0 1 0 1 0 0 Z " fill="#773792" transform="translate(57,152)"/>
<path d="M0 0 C1.32 0 2.64 0 4 0 C4.33 2.97 4.66 5.94 5 9 C6.32 9.33 7.64 9.66 9 10 C6.03 10 3.06 10 0 10 C0 6.7 0 3.4 0 0 Z " fill="#36263D" transform="translate(325,167)"/>
<path d="M0 0 C4.23362036 1.50466419 5.55059674 4.11332388 7.6875 7.9375 C8.28949219 8.99839844 8.89148438 10.05929688 9.51171875 11.15234375 C11 14 11 14 12 17 C11.01 16.67 10.02 16.34 9 16 C7.8125 13.4375 7.8125 13.4375 7 11 C6.34 11 5.68 11 5 11 C4.67 9.02 4.34 7.04 4 5 C0.37 5 -3.26 5 -7 5 C-7 4.67 -7 4.34 -7 4 C-2.545 3.505 -2.545 3.505 2 3 C1.34 2.01 0.68 1.02 0 0 Z " fill="#9641B8" transform="translate(240,200)"/>
<path d="M0 0 C4 0 4 0 6.625 2.3125 C9 5 9 5 11 8 C8.36 8 5.72 8 3 8 C3 7.01 3 6.02 3 5 C2.01 5 1.02 5 0 5 C0 3.35 0 1.7 0 0 Z " fill="#C56FE7" transform="translate(326,162)"/>
<path d="M0 0 C0.66 0 1.32 0 2 0 C3.79221238 4.42781881 4.40608814 7.37999611 3 12 C0.9375 14.375 0.9375 14.375 -1 16 C-0.98259766 14.84371094 -0.98259766 14.84371094 -0.96484375 13.6640625 C-0.95582031 12.66117188 -0.94679688 11.65828125 -0.9375 10.625 C-0.92589844 9.62726563 -0.91429687 8.62953125 -0.90234375 7.6015625 C-0.81993398 5.01567547 -0.81993398 5.01567547 -2 3 C-1.34 3 -0.68 3 0 3 C0 2.01 0 1.02 0 0 Z " fill="#964EB3" transform="translate(277,152)"/>
<path d="M0 0 C1.6026782 -0.10824843 3.20745748 -0.18570645 4.8125 -0.25 C5.70582031 -0.29640625 6.59914062 -0.3428125 7.51953125 -0.390625 C10 0 10 0 11.82421875 2.015625 C12.40623047 2.99789062 12.40623047 2.99789062 13 4 C11.95199219 4.07347656 11.95199219 4.07347656 10.8828125 4.1484375 C9.97273437 4.22320312 9.06265625 4.29796875 8.125 4.375 C6.76761719 4.47941406 6.76761719 4.47941406 5.3828125 4.5859375 C2.82058097 4.79568132 2.82058097 4.79568132 1 7 C0.67 4.69 0.34 2.38 0 0 Z " fill="#A846D0" transform="translate(230,200)"/>
<path d="M0 0 C4.75 0.875 4.75 0.875 7 2 C6.67 2.99 6.34 3.98 6 5 C3.69 4.67 1.38 4.34 -1 4 C-1.33 4.99 -1.66 5.98 -2 7 C-2.66 7 -3.32 7 -4 7 C-4.66 7.66 -5.32 8.32 -6 9 C-5.67 7.02 -5.34 5.04 -5 3 C-3.68 3 -2.36 3 -1 3 C-0.67 2.01 -0.34 1.02 0 0 Z " fill="#306160" transform="translate(201,148)"/>
<path d="M0 0 C4 5 4 5 4.5 8.625 C4 12 4 12 0 15 C0 10.05 0 5.1 0 0 Z " fill="#9669A8" transform="translate(174,213)"/>
<path d="M0 0 C7.59 0 15.18 0 23 0 C23 0.33 23 0.66 23 1 C16.4 1 9.8 1 3 1 C3 3.64 3 6.28 3 9 C2.01 9.33 1.02 9.66 0 10 C0 6.7 0 3.4 0 0 Z " fill="#37223F" transform="translate(326,184)"/>
<path d="M0 0 C1.32 0 2.64 0 4 0 C4 0.99 4 1.98 4 3 C4.66 3.33 5.32 3.66 6 4 C5.01 4 4.02 4 3 4 C2.67 4.99 2.34 5.98 2 7 C-0.97 6.505 -0.97 6.505 -4 6 C-4 4.68 -4 3.36 -4 2 C-2.68 2 -1.36 2 0 2 C0 1.34 0 0.68 0 0 Z " fill="#7DB757" transform="translate(213,175)"/>
<path d="M0 0 C0.99 0.33 1.98 0.66 3 1 C2.54177532 4.46941546 2.10868317 7.67395049 1 11 C-0.32 11 -1.64 11 -3 11 C-2.69078116 9.54096742 -2.37751201 8.08279278 -2.0625 6.625 C-1.88847656 5.81289062 -1.71445313 5.00078125 -1.53515625 4.1640625 C-1 2 -1 2 0 0 Z " fill="#224C37" transform="translate(212,166)"/>
<path d="M0 0 C0.33 0 0.66 0 1 0 C1.05428973 2.22889496 1.09292338 4.45817471 1.125 6.6875 C1.14820313 7.92886719 1.17140625 9.17023438 1.1953125 10.44921875 C1.01032021 13.81237857 0.45767895 15.9985587 -1 19 C-1.66 19 -2.32 19 -3 19 C-2.67352516 15.99921002 -2.33842493 12.99946477 -2 10 C-1.91621094 9.23816406 -1.83242187 8.47632813 -1.74609375 7.69140625 C-1.11470764 2.22941527 -1.11470764 2.22941527 0 0 Z " fill="#B25DD5" transform="translate(159,161)"/>
<path d="M0 0 C2 1 2 1 2.73828125 3.0390625 C4.10164174 9.178822 4.11317328 12.49207805 1 18 C0.01 18 -0.98 18 -2 18 C-2.33 18.66 -2.66 19.32 -3 20 C-2.625 17.5625 -2.625 17.5625 -2 15 C-1.34 14.67 -0.68 14.34 0 14 C1.08562787 9.06532787 0.90896604 4.94881513 0 0 Z " fill="#9758B0" transform="translate(71,151)"/>
<path d="M0 0 C1.32 0 2.64 0 4 0 C4 0.66 4 1.32 4 2 C4.99 2 5.98 2 7 2 C7 4.64 7 7.28 7 10 C2.57320993 8.52440331 2.08567304 6.09942632 0 2 C0 1.34 0 0.68 0 0 Z " fill="#7F3B9C" transform="translate(262,152)"/>
<path d="M0 0 C4.62 0.99 9.24 1.98 14 3 C13.01 3.33 12.02 3.66 11 4 C11 4.66 11 5.32 11 6 C3.25 5.125 3.25 5.125 1 4 C0.67 2.68 0.34 1.36 0 0 Z " fill="#306161" transform="translate(198,185)"/>
<path d="M0 0 C1.32 0.33 2.64 0.66 4 1 C4 2.32 4 3.64 4 5 C4.99 5.33 5.98 5.66 7 6 C6.34 7.98 5.68 9.96 5 12 C4.01 12 3.02 12 2 12 C2 9.69 2 7.38 2 5 C1.34 4.67 0.68 4.34 0 4 C0 2.68 0 1.36 0 0 Z " fill="#579047" transform="translate(212,162)"/>
<path d="M0 0 C1.32 0.33 2.64 0.66 4 1 C3.01 4.3 2.02 7.6 1 11 C0.01 11 -0.98 11 -2 11 C-1.85892253 9.54119891 -1.71197585 8.08296449 -1.5625 6.625 C-1.48128906 5.81289062 -1.40007812 5.00078125 -1.31640625 4.1640625 C-1 2 -1 2 0 0 Z " fill="#306160" transform="translate(190,161)"/>
<path d="M0 0 C3.45340583 2.96006214 5.1892023 6.04782809 7.0703125 10.09765625 C8.06810253 12.24627513 8.06810253 12.24627513 10 15 C9.625 17.1875 9.625 17.1875 9 19 C7.82807953 17.04480616 6.6626071 15.0857461 5.5 13.125 C4.8503125 12.03445312 4.200625 10.94390625 3.53125 9.8203125 C2 7 2 7 2 5 C1.34 5 0.68 5 0 5 C0 3.35 0 1.7 0 0 Z " fill="#9D3FC3" transform="translate(93,158)"/>
<path d="M0 0 C0.99 0.66 1.98 1.32 3 2 C2.34 3.98 1.68 5.96 1 8 C-0.32 8 -1.64 8 -3 8 C-3.33 8.99 -3.66 9.98 -4 11 C-4.99 10.67 -5.98 10.34 -7 10 C-7 9.01 -7 8.02 -7 7 C-5.35 7 -3.7 7 -2 7 C-1.855625 6.030625 -1.71125 5.06125 -1.5625 4.0625 C-1 1 -1 1 0 0 Z " fill="#123030" transform="translate(224,180)"/>
<path d="M0 0 C3.22744136 2.77805079 5.15817545 6.35424865 7.25 10 C7.81460938 10.94359375 7.81460938 10.94359375 8.390625 11.90625 C9.34315521 13.55917007 10.1801215 15.27742699 11 17 C10.67 17.99 10.34 18.98 10 20 C8.51157487 17.60949904 7.03421905 15.21325565 5.5625 12.8125 C5.14162109 12.13896484 4.72074219 11.46542969 4.28710938 10.77148438 C2.11063712 7.20206988 0.4532743 4.24429573 0 0 Z " fill="#9D3FC3" transform="translate(132,157)"/>
<path d="M0 0 C1.32 0 2.64 0 4 0 C4 0.66 4 1.32 4 2 C4.99 2 5.98 2 7 2 C7 4.64 7 7.28 7 10 C4 9 4 9 2.83203125 6.93359375 C2.49558594 6.10988281 2.15914063 5.28617188 1.8125 4.4375 C1.46832031 3.61121094 1.12414062 2.78492188 0.76953125 1.93359375 C0.51558594 1.29550781 0.26164062 0.65742188 0 0 Z " fill="#7F3B9C" transform="translate(97,152)"/>
<path d="M0 0 C3.3 0.66 6.6 1.32 10 2 C9.67 3.32 9.34 4.64 9 6 C5.37 5.34 1.74 4.68 -2 4 C-1.34 2.68 -0.68 1.36 0 0 Z " fill="#4C8180" transform="translate(208,150)"/>
<path d="M0 0 C4.29 0 8.58 0 13 0 C13 2.97 13 5.94 13 9 C12.67 9 12.34 9 12 9 C11.67 7.35 11.34 5.7 11 4 C10.34 4 9.68 4 9 4 C9 3.34 9 2.68 9 2 C6.03 2 3.06 2 0 2 C0 1.34 0 0.68 0 0 Z " fill="#3A2543" transform="translate(174,231)"/>
<path d="M0 0 C0.99 0.33 1.98 0.66 3 1 C2.34 1 1.68 1 1 1 C1 8.26 1 15.52 1 23 C1.66 23 2.32 23 3 23 C3.33 22.34 3.66 21.68 4 21 C4 22.32 4 23.64 4 25 C2.02 25.99 2.02 25.99 0 27 C0 18.09 0 9.18 0 0 Z " fill="#8E669F" transform="translate(273,154)"/>
<path d="M0 0 C1.65 0 3.3 0 5 0 C5 4.29 5 8.58 5 13 C0.71 13 -3.58 13 -8 13 C-8 12.67 -8 12.34 -8 12 C-4.04 12 -0.08 12 4 12 C2.61189751 5.77585542 2.61189751 5.77585542 0 0 Z " fill="#9645B7" transform="translate(264,171)"/>
<path d="M0 0 C0.99 0 1.98 0 3 0 C2.125 7.625 2.125 7.625 1 11 C-0.32 11 -1.64 11 -3 11 C-2.01 7.37 -1.02 3.74 0 0 Z " fill="#30605F" transform="translate(226,170)"/>
<path d="M0 0 C3 1 3 1 4.6875 3 C7.05901088 8.42059631 6.46150202 14.33667967 5 20 C4.67 20 4.34 20 4 20 C3.96261719 19.11957031 3.92523438 18.23914063 3.88671875 17.33203125 C3.82097656 16.17058594 3.75523438 15.00914062 3.6875 13.8125 C3.62949219 12.66394531 3.57148437 11.51539063 3.51171875 10.33203125 C2.97449351 6.83391577 1.93102411 4.9146557 0 2 C0 1.34 0 0.68 0 0 Z " fill="#954DB2" transform="translate(109,152)"/>
<path d="M0 0 C1.98 0 3.96 0 6 0 C5.01 0.33 4.02 0.66 3 1 C3.44472656 1.67546875 3.88945312 2.3509375 4.34765625 3.046875 C5.19650391 4.38492188 5.19650391 4.38492188 6.0625 5.75 C6.63097656 6.63171875 7.19945312 7.5134375 7.78515625 8.421875 C9 11 9 11 8.68359375 13.328125 C8.45800781 13.87984375 8.23242188 14.4315625 8 15 C6.66121428 12.8782637 5.32884524 10.75294812 4 8.625 C3.6184375 8.02171875 3.236875 7.4184375 2.84375 6.796875 C0 2.2265625 0 2.2265625 0 0 Z " fill="#8C3DAC" transform="translate(246,199)"/>
<path d="M0 0 C0.33 0 0.66 0 1 0 C1.103125 1.0725 1.20625 2.145 1.3125 3.25 C1.98602236 6.92375834 2.65874989 8.25157596 5 11 C5 11.66 5 12.32 5 13 C5.66 13.33 6.32 13.66 7 14 C4.69 14 2.38 14 0 14 C0 9.38 0 4.76 0 0 Z " fill="#D78FF3" transform="translate(29,169)"/>
<path d="M0 0 C4.81879617 2.00783174 6.80874465 5.39748375 9 10 C9.3125 13 9.3125 13 9 15 C0 4.33333333 0 4.33333333 0 0 Z " fill="#8A39AB" transform="translate(299,152)"/>
<path d="M0 0 C0.33 0 0.66 0 1 0 C1 5.28 1 10.56 1 16 C-0.65 15.67 -2.3 15.34 -4 15 C-3.71125 14.38125 -3.4225 13.7625 -3.125 13.125 C-1.58288195 8.84133876 -0.81601453 4.47071788 0 0 Z " fill="#BF6BE1" transform="translate(185,215)"/>
<path d="M0 0 C2.97 0 5.94 0 9 0 C9 1.65 9 3.3 9 5 C6.36 5 3.72 5 1 5 C1.66 4.67 2.32 4.34 3 4 C3 3.01 3 2.02 3 1 C2.01 0.67 1.02 0.34 0 0 Z " fill="#22102A" transform="translate(147,219)"/>
<path d="M0 0 C2.31 0 4.62 0 7 0 C7 1.65 7 3.3 7 5 C4.69 5 2.38 5 0 5 C0 3.35 0 1.7 0 0 Z " fill="#22102A" transform="translate(341,171)"/>
<path d="M0 0 C0.66 0.33 1.32 0.66 2 1 C1.125 8.75 1.125 8.75 0 11 C-0.99 11 -1.98 11 -3 11 C-2.25 3.375 -2.25 3.375 0 0 Z " fill="#1A2C13" transform="translate(209,165)"/>
<path d="M0 0 C1.98 0 3.96 0 6 0 C5.360625 0.309375 4.72125 0.61875 4.0625 0.9375 C0.81089796 4.18910204 1.26124414 7.49353855 1 12 C4.96 12 8.92 12 13 12 C13 12.33 13 12.66 13 13 C8.71 13 4.42 13 0 13 C0 8.71 0 4.42 0 0 Z " fill="#B57ECB" transform="translate(68,171)"/>
<path d="M0 0 C2.475 0.99 2.475 0.99 5 2 C4.01 2.33 3.02 2.66 2 3 C2 5.31 2 7.62 2 10 C1.34 8.68 0.68 7.36 0 6 C-0.99 6 -1.98 6 -3 6 C-3.66 6 -4.32 6 -5 6 C-4.67 5.01 -4.34 4.02 -4 3 C-3.01 2.67 -2.02 2.34 -1 2 C-0.67 1.34 -0.34 0.68 0 0 Z " fill="#BB62DF" transform="translate(79,167)"/>
<path d="M0 0 C0.33 0 0.66 0 1 0 C1.10957031 0.59167969 1.21914062 1.18335938 1.33203125 1.79296875 C2.25914403 6.41345763 3.22351335 10.0876779 6 14 C4.02 14 2.04 14 0 14 C0 9.38 0 4.76 0 0 Z " fill="#D488F3" transform="translate(234,169)"/>
<path d="M0 0 C0.99 0 1.98 0 3 0 C3.33 2.97 3.66 5.94 4 9 C2.68 9 1.36 9 0 9 C0 6.03 0 3.06 0 0 Z " fill="#33233A" transform="translate(134,215)"/>
<path d="M0 0 C0.33 0.99 0.66 1.98 1 3 C1.99 3 2.98 3 4 3 C4.33 2.01 4.66 1.02 5 0 C5 1.32 5 2.64 5 4 C5.99 4.33 6.98 4.66 8 5 C7.67 5.66 7.34 6.32 7 7 C4.03 6.67 1.06 6.34 -2 6 C-1.34 5.67 -0.68 5.34 0 5 C0 3.35 0 1.7 0 0 Z " fill="#629B49" transform="translate(204,177)"/>
<path d="M0 0 C1.98 0 3.96 0 6 0 C6 5.28 6 10.56 6 16 C5.67 16 5.34 16 5 16 C4.95101562 15.33613281 4.90203125 14.67226562 4.8515625 13.98828125 C4.35949283 7.2568203 4.35949283 7.2568203 2 1 C1.34 0.67 0.68 0.34 0 0 Z " fill="#70338A" transform="translate(138,152)"/>
<path d="M0 0 C0.66 0.66 1.32 1.32 2 2 C1.01 3.485 1.01 3.485 0 5 C0.66 5.66 1.32 6.32 2 7 C-1.3 7 -4.6 7 -8 7 C-8 6.01 -8 5.02 -8 4 C-7.236875 4.0825 -6.47375 4.165 -5.6875 4.25 C-2.85416667 4.29166667 -2.85416667 4.29166667 -1.1875 2 C-0.795625 1.34 -0.40375 0.68 0 0 Z " fill="#B373CD" transform="translate(182,224)"/>
<path d="M0 0 C0.33 0 0.66 0 1 0 C1 3.63 1 7.26 1 11 C-1.64 11 -4.28 11 -7 11 C-6.21625 10.29875 -5.4325 9.5975 -4.625 8.875 C-1.91639182 5.90842914 -0.98277285 3.8417484 0 0 Z " fill="#BB6BDC" transform="translate(284,172)"/>
<path d="M0 0 C0.33 0 0.66 0 1 0 C1.08153933 1.58246707 1.13943557 3.16616273 1.1875 4.75 C1.22230469 5.63171875 1.25710937 6.5134375 1.29296875 7.421875 C0.94077359 10.52119245 0.24112963 11.84448656 -2 14 C-3.32 14 -4.64 14 -6 14 C-5.67 13.34 -5.34 12.68 -5 12 C-4.34 12.33 -3.68 12.66 -3 13 C-2.01 8.71 -1.02 4.42 0 0 Z " fill="#9E5EB8" transform="translate(154,167)"/>
<path d="M0 0 C0.99 0.33 1.98 0.66 3 1 C2.67 3.97 2.34 6.94 2 10 C1.67 9.34 1.34 8.68 1 8 C0.01 8 -0.98 8 -2 8 C-1.34 5.36 -0.68 2.72 0 0 Z " fill="#173631" transform="translate(228,162)"/>
<path d="M0 0 C-0.99 0.66 -1.98 1.32 -3 2 C-2.01 3.485 -2.01 3.485 -1 5 C-2.98 5 -4.96 5 -7 5 C-7.66 3.68 -8.32 2.36 -9 1 C-6.04335481 -0.4783226 -3.25770263 -0.06032783 0 0 Z " fill="#9741BA" transform="translate(164,199)"/>
<path d="M0 0 C0 2.64 0 5.28 0 8 C-1.98 8 -3.96 8 -6 8 C-3.18918919 0 -3.18918919 0 0 0 Z " fill="#B96CD9" transform="translate(232,223)"/>
<path d="M0 0 C0.99 0.33 1.98 0.66 3 1 C3.96070434 3.88211302 4.10581883 5.69850044 4.0625 8.6875 C4.05347656 9.49574219 4.04445312 10.30398437 4.03515625 11.13671875 C4.02355469 11.75160156 4.01195312 12.36648437 4 13 C3.01 13.495 3.01 13.495 2 14 C1.34 9.38 0.68 4.76 0 0 Z " fill="#9E4CBF" transform="translate(225,200)"/>
<path d="M0 0 C1.98 0 3.96 0 6 0 C6 2.97 6 5.94 6 9 C3.59927045 6.11912454 1.52708963 3.43595166 0 0 Z " fill="#773593" transform="translate(210,200)"/>
<path d="M0 0 C0.33 0.66 0.66 1.32 1 2 C0.67 2.99 0.34 3.98 0 5 C-1.65 5 -3.3 5 -5 5 C-5 5.99 -5 6.98 -5 8 C-5.99 7.67 -6.98 7.34 -8 7 C-8 6.01 -8 5.02 -8 4 C-6.68 4 -5.36 4 -4 4 C-3.67 3.01 -3.34 2.02 -3 1 C-2.01 0.67 -1.02 0.34 0 0 Z " fill="#33635C" transform="translate(222,182)"/>
<path d="M0 0 C1.9375 0.3125 1.9375 0.3125 4 1 C4.33 1.99 4.66 2.98 5 4 C5.66 4.33 6.32 4.66 7 5 C6.67 6.98 6.34 8.96 6 11 C5.67 10.01 5.34 9.02 5 8 C4.34 8 3.68 8 3 8 C3 6.68 3 5.36 3 4 C2.01 4 1.02 4 0 4 C0 2.68 0 1.36 0 0 Z " fill="#31615D" transform="translate(221,157)"/>
<path d="M0 0 C0.66 0 1.32 0 2 0 C0.54187192 6.44006568 0.54187192 6.44006568 -1.875 8.9375 C-4 10 -4 10 -8 10 C-8 9.34 -8 8.68 -8 8 C-6.02 7.67 -4.04 7.34 -2 7 C-1.34 4.69 -0.68 2.38 0 0 Z " fill="#AC68C7" transform="translate(116,173)"/>
<path d="M0 0 C0.99 0.33 1.98 0.66 3 1 C3 1.99 3 2.98 3 4 C2.360625 4.12375 1.72125 4.2475 1.0625 4.375 C0.0415625 4.684375 0.0415625 4.684375 -1 5 C-1.33 5.66 -1.66 6.32 -2 7 C-2.99 7 -3.98 7 -5 7 C-5 5.68 -5 4.36 -5 3 C-3.68 3 -2.36 3 -1 3 C-0.67 2.01 -0.34 1.02 0 0 Z " fill="#BFF0C9" transform="translate(203,156)"/>
<path d="M0 0 C1.65 0 3.3 0 5 0 C4.34 1.65 3.68 3.3 3 5 C2.67 5 2.34 5 2 5 C1.67 7.64 1.34 10.28 1 13 C0.67 13 0.34 13 0 13 C0 8.71 0 4.42 0 0 Z " fill="#9164A4" transform="translate(325,154)"/>
<path d="M0 0 C1.98 0 3.96 0 6 0 C6.33 1.65 6.66 3.3 7 5 C5.35 5 3.7 5 2 5 C1.34 3.35 0.68 1.7 0 0 Z " fill="#973DBC" transform="translate(346,152)"/>
<path d="M0 0 C0.99 0 1.98 0 3 0 C5.32637691 5.79622721 6.43680971 9.86090397 5 16 C4.67 16 4.34 16 4 16 C3.96261719 15.34773437 3.92523438 14.69546875 3.88671875 14.0234375 C3.48506238 8.68377043 2.83238391 4.6795908 0 0 Z " fill="#9F4EBF" transform="translate(111,152)"/>
<path d="M0 0 C0.99 0.33 1.98 0.66 3 1 C4.05404945 4.98196457 3.84098656 7.98195309 3 12 C2.67 12 2.34 12 2 12 C2 10.02 2 8.04 2 6 C-0.97 6 -3.94 6 -7 6 C-7 5.67 -7 5.34 -7 5 C-4.03 5 -1.06 5 2 5 C1.34 3.35 0.68 1.7 0 0 Z " fill="#803F9B" transform="translate(49,152)"/>
<path d="M0 0 C1.98 0 3.96 0 6 0 C6.33 1.65 6.66 3.3 7 5 C5.02 5 3.04 5 1 5 C0.67 3.35 0.34 1.7 0 0 Z " fill="#BC60E2" transform="translate(150,226)"/>
<path d="M0 0 C0.66 0.99 1.32 1.98 2 3 C4.42521494 3.58189266 4.42521494 3.58189266 7.125 3.6875 C8.49011719 3.78611328 8.49011719 3.78611328 9.8828125 3.88671875 C10.58148438 3.92410156 11.28015625 3.96148437 12 4 C12 4.33 12 4.66 12 5 C9.03 5 6.06 5 3 5 C3 5.66 3 6.32 3 7 C2.01 7 1.02 7 0 7 C-0.33 7.66 -0.66 8.32 -1 9 C-0.67 6.03 -0.34 3.06 0 0 Z " fill="#B45DD8" transform="translate(231,208)"/>
<path d="M0 0 C-1.32 0.33 -2.64 0.66 -4 1 C-3.34 2.32 -2.68 3.64 -2 5 C-4.3125 5.25 -4.3125 5.25 -7 5 C-8.8125 3 -8.8125 3 -10 1 C-6.61981469 -0.04005702 -3.5219721 -0.08004482 0 0 Z " fill="#863CA5" transform="translate(170,199)"/>
<path d="M0 0 C-0.33 1.32 -0.66 2.64 -1 4 C-0.34 4.33 0.32 4.66 1 5 C-0.98 5 -2.96 5 -5 5 C-5.66 3.68 -6.32 2.36 -7 1 C-4.53721199 -0.231394 -2.7204945 -0.07159196 0 0 Z " fill="#BE5FE5" transform="translate(349,178)"/>
<path d="M0 0 C2.64 0 5.28 0 8 0 C7.01 0.66 6.02 1.32 5 2 C5.33 2.99 5.66 3.98 6 5 C4.02 5 2.04 5 0 5 C0 3.35 0 1.7 0 0 Z " fill="#D58BF3" transform="translate(326,178)"/>
<path d="M0 0 C1.65 0 3.3 0 5 0 C4.01 0.495 4.01 0.495 3 1 C3 1.99 3 2.98 3 4 C1.68 4 0.36 4 -1 4 C-1 4.66 -1 5.32 -1 6 C-2.32 5.67 -3.64 5.34 -5 5 C-4.34 4.01 -3.68 3.02 -3 2 C-2.34 2 -1.68 2 -1 2 C-0.67 1.34 -0.34 0.68 0 0 Z " fill="#4E837F" transform="translate(200,152)"/>
<path d="M0 0 C0.99 0.33 1.98 0.66 3 1 C2.67 3.31 2.34 5.62 2 8 C0.68 7.67 -0.64 7.34 -2 7 C-1.34 4.69 -0.68 2.38 0 0 Z " fill="#1E4538" transform="translate(192,153)"/>
<path d="M0 0 C1.32 0 2.64 0 4 0 C5.04976964 3.14930893 5.10131595 5.38814456 5.0625 8.6875 C5.05347656 9.68136719 5.04445312 10.67523438 5.03515625 11.69921875 C5.02355469 12.45847656 5.01195312 13.21773437 5 14 C4.01 14.495 4.01 14.495 3 15 C3.04125 13.96875 3.0825 12.9375 3.125 11.875 C2.9807894 7.4044714 1.98943912 3.97887824 0 0 Z " fill="#9E4BBE" transform="translate(151,152)"/>
<path d="M0 0 C0.66 0 1.32 0 2 0 C2 1.65 2 3.3 2 5 C2.66 5.33 3.32 5.66 4 6 C4 7.32 4 8.64 4 10 C2.68 10 1.36 10 0 10 C0 6.7 0 3.4 0 0 Z " fill="#34263A" transform="translate(134,232)"/>
<path d="M0 0 C0.66 0.66 1.32 1.32 2 2 C1.9375 5.4375 1.9375 5.4375 1 9 C-1.5625 10.9375 -1.5625 10.9375 -4 12 C-4.33 11.34 -4.66 10.68 -5 10 C-4.01 10 -3.02 10 -2 10 C-1.34 6.7 -0.68 3.4 0 0 Z " fill="#9E5CB8" transform="translate(226,217)"/>
<path d="M0 0 C2.38376103 1.7685969 3.79559296 3.22096617 4.55859375 6.12890625 C5.1401255 10.48680469 5.27649498 13.11760547 3 17 C2.86722656 16.10796875 2.73445312 15.2159375 2.59765625 14.296875 C2.42105469 13.12640625 2.24445313 11.9559375 2.0625 10.75 C1.88847656 9.58984375 1.71445313 8.4296875 1.53515625 7.234375 C1.1272264 4.76893039 0.66098697 2.40575438 0 0 Z " fill="#8D4AA7" transform="translate(221,200)"/>
<path d="M0 0 C0.33 0.66 0.66 1.32 1 2 C4.02934491 2.65772428 4.02934491 2.65772428 7 3 C7 3.99 7 4.98 7 6 C4.69 5.67 2.38 5.34 0 5 C0 3.35 0 1.7 0 0 Z " fill="#A2D767" transform="translate(197,161)"/>
<path d="M0 0 C2.63886669 3.18483911 5.14494105 6.2898821 7 10 C6.67 10.99 6.34 11.98 6 13 C2 7.25 2 7.25 2 5 C1.34 5 0.68 5 0 5 C0 3.35 0 1.7 0 0 Z " fill="#9D3FC3" transform="translate(53,157)"/>
<path d="M0 0 C3.3 0 6.6 0 10 0 C10 0.33 10 0.66 10 1 C8.7934375 1.185625 8.7934375 1.185625 7.5625 1.375 C6.716875 1.58125 5.87125 1.7875 5 2 C4.67 2.66 4.34 3.32 4 4 C3.34 4 2.68 4 2 4 C2 4.66 2 5.32 2 6 C1.34 6 0.68 6 0 6 C0 4.02 0 2.04 0 0 Z " fill="#9160A6" transform="translate(312,151)"/>
<path d="M0 0 C3.78125 0.71875 3.78125 0.71875 5.75 3.25 C7.05518125 6.12139874 7.26648789 7.89097466 7 11 C4.59424393 8.81482901 3.20464419 6.74080329 1.8125 3.8125 C1.46832031 3.09707031 1.12414062 2.38164062 0.76953125 1.64453125 C0.51558594 1.10183594 0.26164063 0.55914062 0 0 Z " fill="#8338A2" transform="translate(136,152)"/>
<path d="M0 0 C2.31 0.33 4.62 0.66 7 1 C6.67 1.99 6.34 2.98 6 4 C4.125 4.875 4.125 4.875 2 5 C0.25 3.5625 0.25 3.5625 -1 2 C-0.67 1.34 -0.34 0.68 0 0 Z " fill="#588E7B" transform="translate(216,179)"/>
<path d="M0 0 C3.52809907 3.52809907 3.82539001 5.11092023 4 10 C3.01 10.99 2.02 11.98 1 13 C0.67 8.71 0.34 4.42 0 0 Z " fill="#9F4DBF" transform="translate(73,152)"/>
<path d="M0 0 C0.33 0.99 0.66 1.98 1 3 C1.99 3 2.98 3 4 3 C4 3.99 4 4.98 4 6 C4.99 6 5.98 6 7 6 C7 6.66 7 7.32 7 8 C3 8 3 8 0.25 5.625 C-2 3 -2 3 -2 1 C-1.34 0.67 -0.68 0.34 0 0 Z " fill="#81439A" transform="translate(176,151)"/>
<path d="M0 0 C2.475 0.99 2.475 0.99 5 2 C4.34 3.32 3.68 4.64 3 6 C0.69 5.34 -1.62 4.68 -4 4 C-2.68 3.67 -1.36 3.34 0 3 C0 2.01 0 1.02 0 0 Z " fill="#204341" transform="translate(208,145)"/>
<path d="M0 0 C2.3125 -0.3125 2.3125 -0.3125 5 0 C6.8125 2.5 6.8125 2.5 8 5 C5.125 4.75 5.125 4.75 2 4 C0.625 1.9375 0.625 1.9375 0 0 Z " fill="#CF7BF0" transform="translate(138,226)"/>
<path d="M0 0 C0.66 1.32 1.32 2.64 2 4 C3.3050581 5.68889872 4.63360658 7.3603279 6 9 C4.02 9 2.04 9 0 9 C0 6.03 0 3.06 0 0 Z " fill="#D388F1" transform="translate(69,174)"/>
<path d="M0 0 C1.485 0.99 1.485 0.99 3 2 C3.51579638 5.8168932 2.58076658 8.54207311 1 12 C0.67 12 0.34 12 0 12 C0 8.04 0 4.08 0 0 Z " fill="#894AA3" transform="translate(274,155)"/>
<path d="M0 0 C4.06540996 1.35513665 4.97300269 3.30796918 7 7 C6.609375 9.19921875 6.609375 9.19921875 6 11 C4.99735282 9.35577799 3.99794896 7.70957779 3 6.0625 C2.443125 5.14597656 1.88625 4.22945312 1.3125 3.28515625 C0 1 0 1 0 0 Z " fill="#9D3FC3" transform="translate(162,213)"/>
<path d="M0 0 C0.66 0 1.32 0 2 0 C3.2890625 1.6796875 3.2890625 1.6796875 4.625 3.875 C5.29402344 4.95394531 5.29402344 4.95394531 5.9765625 6.0546875 C7 8 7 8 7 10 C6.01 9.67 5.02 9.34 4 9 C2.8125 6.4375 2.8125 6.4375 2 4 C1.34 4 0.68 4 0 4 C0 2.68 0 1.36 0 0 Z " fill="#9D3FC3" transform="translate(245,207)"/>
<path d="M0 0 C0.99 0 1.98 0 3 0 C3 0.99 3 1.98 3 3 C3.99 3.33 4.98 3.66 6 4 C4.35 4 2.7 4 1 4 C1 6.31 1 8.62 1 11 C0.67 11 0.34 11 0 11 C0 7.37 0 3.74 0 0 Z " fill="#291531" transform="translate(187,215)"/>
<path d="M0 0 C1.32 0 2.64 0 4 0 C4 0.99 4 1.98 4 3 C4.66 3.33 5.32 3.66 6 4 C3.69 4.33 1.38 4.66 -1 5 C-0.67 3.35 -0.34 1.7 0 0 Z " fill="#A851CC" transform="translate(330,152)"/>
<path d="M0 0 C0.66 0 1.32 0 2 0 C3.62950412 4.12168689 4.26264601 6.70700357 3 11 C2.67 11 2.34 11 2 11 C1.34 7.37 0.68 3.74 0 0 Z " fill="#9F4EBF" transform="translate(277,152)"/>
<path d="M0 0 C2.80175356 1.86783571 4.11192137 3.30274481 6 6 C4.35 6 2.7 6 1 6 C-0.0625 4.125 -0.0625 4.125 -1 2 C-0.67 1.34 -0.34 0.68 0 0 Z " fill="#BB5CE2" transform="translate(184,208)"/>
<path d="M0 0 C0.99 0.99 1.98 1.98 3 3 C2.75546876 6.34192692 2.39456443 7.60543557 0 10 C0 6.7 0 3.4 0 0 Z " fill="#9158A9" transform="translate(175,215)"/>
<path d="M0 0 C-0.99 1.485 -0.99 1.485 -2 3 C-5.125 3.1875 -5.125 3.1875 -8 3 C-8 2.34 -8 1.68 -8 1 C-3.375 -1.125 -3.375 -1.125 0 0 Z " fill="#AB6FC3" transform="translate(228,228)"/>
<path d="M0 0 C0.33 0 0.66 0 1 0 C1 2.64 1 5.28 1 8 C-0.32 7.67 -1.64 7.34 -3 7 C-2.01 4.69 -1.02 2.38 0 0 Z " fill="#BE6AE0" transform="translate(119,175)"/>
<path d="M0 0 C0.99 0 1.98 0 3 0 C3 1.98 3 3.96 3 6 C2.01 6 1.02 6 0 6 C0 4.02 0 2.04 0 0 Z " fill="#1C0E22" transform="translate(266,164)"/>
<path d="M0 0 C0.33 0 0.66 0 1 0 C1.25 2.75 1.25 2.75 1 6 C-1 8.375 -1 8.375 -3 10 C-2.01 6.7 -1.02 3.4 0 0 Z " fill="#AF53D6" transform="translate(284,157)"/>
<path d="M0 0 C0.66 0 1.32 0 2 0 C2 0.66 2 1.32 2 2 C2.99 2.33 3.98 2.66 5 3 C4.01 3.495 4.01 3.495 3 4 C2.67 4.99 2.34 5.98 2 7 C1.01 6.67 0.02 6.34 -1 6 C-0.835 5.195625 -0.67 4.39125 -0.5 3.5625 C0.03191839 1.2715557 0.03191839 1.2715557 0 0 Z " fill="#B656DD" transform="translate(184,200)"/>
<path d="M0 0 C2.6875 0.3125 2.6875 0.3125 5 1 C4.67 1.66 4.34 2.32 4 3 C1.69 3 -0.62 3 -3 3 C-1.8125 1.4375 -1.8125 1.4375 0 0 Z " fill="#BB6EDB" transform="translate(155,180)"/>
<path d="M0 0 C0.33 0.99 0.66 1.98 1 3 C1.99 3.33 2.98 3.66 4 4 C3.67 4.99 3.34 5.98 3 7 C1.68 6.67 0.36 6.34 -1 6 C-0.67 4.02 -0.34 2.04 0 0 Z " fill="#30605F" transform="translate(190,173)"/>
<path d="M0 0 C1.32 0 2.64 0 4 0 C3.67 1.32 3.34 2.64 3 4 C1.68 4 0.36 4 -1 4 C-0.67 2.68 -0.34 1.36 0 0 Z " fill="#83BB5D" transform="translate(205,161)"/>
</svg>
